<svg width="60" height="65" viewBox="0 0 60 65" fill="none" xmlns="http://www.w3.org/2000/svg">
<g clip-path="url(#clip0_69_2471)">
<path d="M31.2632 65C29.0581 64.4059 28.0546 62.9534 27.8988 60.7524C27.6769 57.6072 28.3276 53.5655 27.91 50.5868C27.8402 50.092 27.2145 49.3045 27.0574 48.6321C26.762 47.3681 26.7607 44.9492 27.0823 43.6926C28.1967 39.3471 33.6292 41.1377 36.8889 40.7617C37.0771 40.7396 37.2205 40.7458 37.3339 40.5645V37.8994C37.3339 37.1008 38.8136 35.8418 39.6251 35.7083C41.0175 35.4792 45.4714 35.5343 46.9635 35.6727C47.9096 35.7609 48.8283 36.3978 49.2422 37.2417C49.3095 37.3801 49.6062 38.2043 49.6062 38.2803V40.7556H56.6467C57.6539 40.7556 59.1958 42.1873 59.5785 43.0802C60.1918 44.5119 60.0946 47.9621 59.5224 49.4208C59.3379 49.8911 58.964 50.2243 58.9041 50.7179C58.494 54.0762 59.3816 58.3874 58.8493 61.7078C58.5701 63.4482 57.2176 64.5701 55.5484 65.0012H31.2595L31.2632 65ZM39.2723 38.2791C39.1277 38.938 39.3795 40.0391 39.2723 40.7543H47.6703V38.5326C47.6703 38.0819 47.1754 37.6324 46.7067 37.5748C44.6624 37.3237 42.0907 37.7708 39.9866 37.5834C39.7385 37.6005 39.3159 38.0843 39.2723 38.2778V38.2791ZM39.2723 51.8618C39.3633 52.4032 39.2062 53.1343 39.2723 53.7026C40.3693 53.7112 41.47 53.8937 42.5619 53.9623C43.3846 54.0137 45.6571 53.5667 45.4203 54.9789C45.3093 55.6439 44.7185 55.8105 44.1226 55.8656C42.5457 56.0101 40.8155 55.5937 39.2249 55.6243C39.0267 55.6917 38.8572 56.3592 38.6827 56.6139C37.5408 58.2808 34.9343 58.2857 33.7401 56.6641C33.0657 55.7492 33.2415 55.1418 33.1418 54.0786L29.8422 52.4338V61.0023C29.8422 61.0452 30.003 61.7531 30.0316 61.8327C30.2897 62.5382 31.0912 63.0599 31.8391 63.104L55.1009 63.0979C55.7978 63.1628 56.9732 62.123 56.9732 61.5106V52.435C56.3874 52.604 55.9037 53.0658 55.3814 53.3462C54.9813 53.5606 53.8245 53.8263 53.7422 54.2746C53.5789 55.165 53.8133 55.6268 53.2049 56.5392C51.6779 58.8308 47.9782 57.9698 47.6703 55.2912C47.5955 54.6359 47.5593 52.1986 47.674 51.6119C47.7114 51.416 48.0255 51.0449 48.1913 50.9775C48.5042 50.8501 52.3947 50.8428 52.8958 50.9187C53.7173 51.0437 53.6874 51.9341 53.812 51.9304C55.5285 51.2065 57.7523 49.7674 57.9929 47.7882C58.0827 47.0521 58.1064 44.9761 57.9767 44.278C57.8595 43.6448 57.2088 42.9038 56.5619 42.7483L30.8045 42.6552C28.6031 42.8671 28.6916 45.3925 28.8026 47.0472C28.8873 48.321 29.2014 49.1538 30.1139 50.0749C30.5577 50.5231 32.4362 51.8667 33.0096 51.9292C33.3412 51.9647 33.1281 51.3952 33.4646 51.1073C33.679 50.9236 33.9047 50.931 34.1652 50.9077C34.9505 50.8379 37.8749 50.7901 38.5356 50.9408C38.917 51.0277 39.215 51.5152 39.2735 51.8655L39.2723 51.8618ZM37.3352 52.8135H35.1387V55.2887C35.1387 55.5925 35.9079 56.0028 36.227 55.9856C36.7032 55.9599 37.3352 55.3512 37.3352 54.9078V52.8135ZM51.8051 52.8135H49.6087V55.2887C49.6087 55.4614 50.3828 55.993 50.6931 55.9819C51.1382 55.966 51.8051 55.4675 51.8051 55.0352V52.8135Z" fill="#011638"/>
<path d="M19.8936 41.2623L19.1108 58.9615C18.9637 59.9928 17.7521 60.2745 17.2073 59.3241L17.954 39.7387C16.5541 40.5409 15.1568 40.1502 14.1545 38.9659C13.535 38.2347 10.4672 33.2413 10.1132 33.1519C7.79216 34.1304 4.98992 34.5211 3.1575 36.3105C3.03409 36.4073 3.22855 36.4845 3.28964 36.5641C5.65558 39.6334 8.35311 39.9273 8.65726 44.6194C8.95519 49.205 8.42291 54.0967 8.65228 58.7153C8.64604 59.9328 7.27609 60.419 6.71639 59.2199C6.4621 54.4899 7.04423 49.4401 6.71888 44.7468C6.65157 43.7682 6.4409 42.8202 5.91611 41.9825C5.44117 41.2243 3.19988 38.9695 2.45196 38.4049C2.32232 38.3069 2.28866 38.1587 2.06428 38.2163C1.75763 39.2745 2.03935 40.307 2.06927 41.3199C2.18644 45.2649 2.29988 49.1915 2.44572 53.1353C2.51054 54.8683 2.87204 57.1636 2.71498 58.8488C2.57786 60.3259 0.928677 60.2733 0.767872 58.8464L0 38.9156C0.330335 36.144 1.86359 34.324 4.39283 33.2033C5.91486 32.5297 8.51017 31.9552 9.80533 31.1591C10.9422 30.461 11.9818 28.6226 13.2844 27.9772C13.3692 27.7261 13.338 26.0494 13.247 25.7689C13.1511 25.4737 12.5153 24.8956 12.2959 24.5454C11.5455 23.3512 10.9596 22.1203 10.6916 20.7277C8.3718 20.4803 7.35462 18.9494 7.6351 16.7129C7.77595 15.5849 8.38552 14.9199 9.27804 14.2756C9.13095 13.4722 8.90533 12.6687 8.80186 11.8567C8.33939 8.20932 8.09632 4.66727 12.1127 3.08732C13.3692 2.59373 13.6198 2.39409 14.7691 1.76211C18.9126 -0.518419 25.27 -0.691112 29.315 1.85764C32.6545 3.96181 33.8537 7.70839 33.7989 11.4733C33.7851 12.4091 33.3862 13.9057 33.4486 14.6688C33.4822 15.0889 33.916 15.4257 34.0793 15.8372C34.7749 17.585 34.1965 19.9855 32.202 20.5403C31.9752 20.6028 31.6847 20.5244 31.479 20.5918C31.2173 20.6787 30.6189 22.8356 30.3821 23.3218C30.0692 23.9636 28.6556 25.6048 28.5771 25.8644C28.5085 26.0874 28.4985 27.6208 28.5484 27.8718C28.607 28.1633 29.2652 28.3679 29.5855 28.63C30.4045 29.2999 31.3643 30.6423 32.1734 31.164C33.4349 31.9773 35.898 32.2945 37.172 33.1078C37.9897 33.6307 37.6208 34.9302 36.6447 34.8763C35.8469 34.8322 33.5732 33.6981 32.6221 33.3882C32.4114 33.3196 31.8243 33.0637 31.6722 33.1519L27.3904 39.4215C26.3545 40.329 25.1503 40.2262 23.9 39.8636L24.7764 59.193C24.456 60.1826 23.0349 60.1324 22.8741 59.0864L22.0913 41.2586H19.8949L19.8936 41.2623ZM28.2854 13.3424C23.7754 14.0564 18.1634 14.2377 14.536 11.0483C13.9725 10.5535 12.524 9.15975 13.823 8.5792C14.8164 8.13584 15.1917 9.12545 15.7576 9.59332C18.3978 11.771 22.0763 12.0882 25.3822 11.8126C26.3146 11.7354 28.3701 11.1696 29.1031 11.3337C29.9495 11.5236 30.225 13.7857 30.6114 14.0405C30.7847 14.1544 31.4728 14.1581 31.595 13.9805C32.4526 8.79109 31.2048 3.6005 25.4021 2.27652C22.0863 1.51961 18.5162 1.87724 15.5432 3.54171C15.0246 3.83198 14.4026 4.42844 13.9376 4.62931C13.3405 4.88773 12.6824 4.82037 12.0504 5.18658C10.0197 6.36236 10.4797 9.77458 10.7365 11.7354C10.7801 12.0698 11.1603 14.0735 11.2663 14.1972L12.4455 14.7153C12.9977 14.6112 13.7843 12.1862 14.9897 13.3962C15.9396 14.3491 13.5699 16.5978 12.6612 16.8354C11.6365 17.1036 11.3959 16.1716 10.7564 16.0295C9.28178 15.7025 9.16211 18.1569 10.1556 18.653C10.5969 18.8734 10.9422 18.7265 11.361 18.8649C12.5789 19.2654 12.6662 21.0094 13.0763 22.0027C15.7352 28.4438 24.9895 28.9435 28.4424 22.816C29.0096 21.808 29.2515 20.0161 29.8423 19.3682C30.7897 18.3296 32.5486 19.3462 32.4314 17.2139C32.3167 15.1183 30.3634 16.648 29.2901 15.6278C28.8962 15.253 28.4499 13.8996 28.2841 13.3436L28.2854 13.3424ZM26.6125 27.426C23.1658 29.6343 18.7156 29.5363 15.244 27.426V29.393L20.9706 34.2615L26.6138 29.5192V27.4248L26.6125 27.426ZM13.3692 30.3508L11.7711 32.0361L15.7588 37.8991C16.0268 38.1979 16.4395 38.2861 16.8246 38.1869C17.1774 38.0963 19.5284 35.8194 19.496 35.6308L13.3692 30.3508ZM26.18 37.9187L30.0817 32.1549C30.1826 31.7556 28.7566 30.7268 28.4848 30.3471L22.4864 35.6296C22.4565 35.7827 22.5924 35.8378 22.6672 35.9333C22.8903 36.2175 24.6492 37.9505 24.8836 38.0705C25.3473 38.3082 25.7985 38.2775 26.18 37.9174V37.9187ZM21.9604 39.3578C22.0975 38.1734 21.9367 37.6664 20.9918 36.9487C20.1342 37.6394 19.9447 37.9897 19.9472 39.0994C19.9472 39.2476 19.956 39.2635 20.0881 39.359H21.9616L21.9604 39.3578Z" fill="#011638"/>
</g>
<defs>
<clipPath id="clip0_69_2471">
<rect width="60" height="65" fill="white"/>
</clipPath>
</defs>
</svg>
