<svg width="65" height="59" viewBox="0 0 65 59" fill="none" xmlns="http://www.w3.org/2000/svg">
<g clip-path="url(#clip0_69_2425)">
<path d="M0.132434 43.1994C0.462985 40.1147 2.8158 37.5883 5.60777 36.5081C8.45404 35.4055 11.5459 34.7727 14.3898 33.6973C15.5337 33.2652 16.4876 31.211 18.269 31.7163L18.2478 28.6446C15.6742 26.7356 13.9943 23.9141 13.613 20.6984C12.4277 20.3324 11.7111 19.6205 11.501 18.3692C11.6368 11.672 9.41028 0.824018 19.0812 0.160556C21.9983 -0.0389551 26.7713 -0.067288 29.6695 0.160556C31.9243 0.337636 33.6255 1.89004 33.6314 4.2039C36.101 4.24403 37.6121 5.88498 37.7927 8.30036C37.9864 10.8999 37.9946 15.308 37.7927 17.9005C37.7325 18.6655 37.4563 19.5957 36.846 20.1069C36.5709 20.3371 35.6961 20.6051 35.6359 20.6901C35.558 20.8011 35.1932 22.8269 35.0197 23.3251C34.2913 25.4205 32.8239 27.2645 31.0495 28.5596L30.987 31.7163C31.5973 31.675 32.2041 31.7517 32.7589 32.0233C33.4861 32.381 34.2311 33.4741 34.8863 33.6772C35.4624 33.8566 36.2297 33.8413 36.9014 34.055C37.6109 34.2816 38.1174 34.7031 38.7631 34.9651C42.2894 36.396 45.8452 36.3027 48.0103 40.0851C50.251 43.9986 48.6254 51.0264 49.1094 55.4888C48.8945 57.3316 47.2583 58.7187 45.4131 58.7258L3.59731 58.7176C1.78755 58.5523 0.58458 57.4154 0.132434 55.6907C0.444096 51.717 -0.285476 47.094 0.132434 43.197V43.1994ZM35.9003 13.7946V8.05245C35.9003 7.55308 35.3183 6.69129 34.8874 6.4174C33.9182 5.80116 33.0127 6.47289 32.1238 5.27464C31.6126 4.58521 31.8499 4.13188 31.5926 3.40939C31.2632 2.48621 30.4675 2.13323 29.5455 2.05296C26.8208 1.81567 21.9582 1.8499 19.2087 2.05296C16.3754 2.26191 13.3568 4.62889 13.3568 7.67349V13.7946C14.064 13.8524 15.4475 13.889 15.6211 12.9717C15.856 11.7298 15.3684 11.1077 16.2007 9.76659C17.7213 7.31815 20.0375 8.76785 22.1447 9.09014C24.0359 9.37937 25.972 9.30736 27.8444 8.94021C29.5857 8.59904 31.1333 7.66523 32.6869 9.25305C33.7978 10.3875 33.4531 11.5362 33.6266 12.8549C33.7648 13.9115 35.0964 13.8477 35.9003 13.7946ZM35.9003 15.687C34.1992 15.9184 32.0919 15.2207 31.7732 13.3224C31.5796 12.1702 32.1864 10.0865 30.1854 10.2719C28.934 10.3875 27.463 11.0416 26.0122 11.1431C23.1517 11.3414 21.7315 10.6567 19.1816 10.2907C17.0661 9.98735 17.6811 12.13 17.4816 13.3224C17.1688 15.1935 15.0355 15.9361 13.3544 15.6858C13.4312 16.4543 13.2482 17.3964 13.3639 18.139C13.5292 19.2003 15.1075 18.4093 15.4676 19.9428C15.9634 22.0524 15.9068 23.3605 17.3883 25.2116C22.2427 31.2795 31.7354 29.112 33.5487 21.5979C33.6986 20.9781 33.6762 19.99 33.9572 19.4836C34.4105 18.6643 35.5084 18.9039 35.7528 18.5073L35.8992 15.687H35.9003ZM29.0993 29.6964C26.2813 30.9301 22.977 30.9124 20.1579 29.6964V32.8508C20.1579 32.8721 20.3916 32.8886 20.538 33.0314C21.8791 34.3418 23.2214 35.6475 24.6286 36.8871L29.0993 32.7871V29.6952V29.6964ZM17.6032 33.6323C17.3683 33.6855 16.242 34.5189 16.3022 34.7503C17.5607 36.2165 18.6255 38.1975 19.91 39.5988C20.1591 39.8703 20.4105 40.2669 20.8225 40.1512C21.3396 40.006 22.5638 38.5009 23.1789 38.214L18.5158 33.8023C18.2525 33.5945 17.9255 33.5591 17.6044 33.6311L17.6032 33.6323ZM26.0771 38.0275C26.0299 38.2199 26.1066 38.2293 26.2105 38.3332C26.4584 38.5811 28.2587 40.1028 28.4394 40.1489C28.548 40.176 28.6483 40.1973 28.7569 40.1536L32.9455 34.6157C32.38 34.1163 31.7283 33.3171 30.8949 33.7043L26.0783 38.0275H26.0771ZM26.7063 56.8275C27.0144 56.8629 27.2305 56.8216 27.5079 56.6847C28.5857 56.1523 31.4899 53.5362 32.5016 52.6024C33.9277 51.2861 37.3205 47.9062 37.5106 46.0008C37.6712 44.3906 35.9369 44.0671 36.3324 42.432C36.5874 41.3755 39.1244 40.3449 39.1374 39.2493C39.1598 37.4254 36.9971 35.7195 35.2699 35.6263C34.5628 43.3375 30.4463 50.2484 26.7051 56.8263L26.7063 56.8275ZM3.46981 56.8287C4.75778 57.0436 6.58997 56.6693 7.94051 56.8287V51.3392C7.94051 51.2825 8.2864 50.815 8.37258 50.7631C8.81528 50.4951 9.82937 50.7053 9.82937 51.2129V56.8287H19.5263L15.9398 53.5456C15.6825 52.9931 16.0839 52.2045 16.7001 52.1632C17.3895 52.1172 19.0895 53.9175 19.7187 54.4275C20.3232 54.9174 22.1376 56.5218 22.6807 56.7602C22.8471 56.8334 23.428 56.9562 23.304 56.641C19.2973 50.1823 14.98 43.452 13.9211 35.7514C12.547 35.9958 10.9473 37.8386 10.9603 39.2281C10.9721 40.4169 13.6555 41.3519 13.8349 42.6658C14.0344 44.1285 12.1302 44.4685 12.7193 46.5509C13.0215 47.617 14.45 48.9828 14.5893 49.6003C14.7498 50.3074 14.4476 50.9484 13.6708 50.913C13.0003 50.8823 11.6745 48.7928 11.3629 48.1624C10.7006 46.8236 10.4232 45.5345 11.0642 44.1226C11.2106 43.8015 11.769 43.151 11.7064 42.9078C9.8093 41.4463 8.23564 39.7935 9.57673 37.2696C5.94658 38.1467 2.35657 39.4595 2.01539 43.7625C1.7238 47.4541 2.24442 51.5222 2.01657 55.2539C2.07088 55.9504 2.81107 56.7189 3.46745 56.8287H3.46981ZM41.3155 56.8287H45.7862C46.3198 56.8287 47.2607 55.8618 47.237 55.2539C47.0222 51.5529 47.5133 47.552 47.2394 43.8877C46.9478 39.9813 44.1063 38.4135 40.6874 37.5198C41.6767 39.8597 40.2424 41.68 38.2957 42.8252C39.1232 44.2359 39.6604 45.1733 39.2389 46.8602C38.3122 50.5671 33.1674 54.2941 30.4852 56.8287H39.4266V51.2129C39.4266 50.7041 40.4407 50.4951 40.8834 50.7631C40.9684 50.815 41.3155 51.2825 41.3155 51.3392V56.8287ZM28.9718 49.0041C30.6127 45.3669 32.3835 41.7344 33.1284 37.7725C31.9821 38.8113 30.9326 41.3601 29.4747 41.8713C29.0367 42.0248 28.1501 42.0165 27.966 42.1263C27.8396 42.2018 27.4406 42.883 27.2305 43.0341C27.7936 44.8545 28.0628 47.0668 28.7097 48.8282C28.7734 49.0017 28.6648 49.0442 28.973 49.0029L28.9718 49.0041ZM20.9122 48.6263L22.0279 43.0388C22.0019 42.942 21.2558 42.1688 21.1625 42.1298C20.407 41.8075 19.6998 42.1168 18.8357 41.307L16.2538 37.9011C17.0672 41.3448 18.5913 44.9242 20.3432 47.9983C20.3857 48.0727 20.7399 48.8412 20.9122 48.6263ZM26.4549 40.9304L24.6286 39.535L22.8011 40.993C23.2556 42.0566 24.3759 42.0802 25.3912 41.9445C25.8835 41.8784 26.2447 41.3601 26.4549 40.9316V40.9304ZM25.4302 43.8463L23.8223 43.8428L22.2073 51.1102C22.2026 51.3841 24.762 55.6977 25.0075 55.8182C25.2035 55.915 25.1799 55.732 25.2224 55.6576C25.9956 54.3212 26.7901 52.979 27.4571 51.5836L25.4302 43.8451V43.8463Z" fill="#011638"/>
<path d="M62.7252 17.2029H56.2393C56.0139 17.2029 55.1249 16.7023 54.9148 16.5111C54.7377 16.3482 54.1616 15.5242 54.1616 15.373V8.68413L53.9727 8.49524H40.8747C40.2372 8.49524 39.7886 6.82124 41.2642 6.61346C45.513 6.84485 50.1525 6.26639 54.3552 6.59694C54.9372 6.64298 55.5287 6.7811 56.0422 7.05144C57.2499 7.68657 62.41 12.9541 63.4843 14.2338C64.0864 14.9516 64.5303 15.6576 64.62 16.6291V48.3159C64.2139 53.757 56.1437 51.1917 52.595 51.7725C51.4405 51.5955 51.2941 50.3453 52.3377 49.8908L61.1173 49.8542C61.6639 49.8931 62.724 49.0715 62.724 48.5627V17.2029H62.7252ZM61.717 15.3093L56.0493 9.63092V14.9941C56.0493 15.0224 56.4424 15.3093 56.4896 15.3093H61.7159H61.717Z" fill="#011638"/>
<path d="M42.4072 21.6677C43.485 21.65 46.4942 22.2981 45.7835 23.8895C45.3184 24.9307 44.1544 23.8942 43.5594 23.7242C40.7084 22.9132 38.1041 25.5281 39.1513 28.3944C39.7498 30.0342 41.6812 31.0896 43.3587 30.5442C44.2902 30.2408 44.8686 29.0425 45.793 29.5643C47.0042 30.2479 45.5935 31.5394 44.8804 31.9431C41.5076 33.8532 37.2506 31.2643 37.0299 27.4925C36.8457 24.3534 39.2717 21.7185 42.4084 21.6677H42.4072Z" fill="#011638"/>
<path d="M52.3968 28.6871L54.6115 22.1339C55.1935 21.1871 56.6031 21.6475 56.3764 22.7584C55.1711 25.5953 54.4982 29.0837 53.2138 31.8391C52.7888 32.7493 52.0816 32.9358 51.4182 32.1295L48.2992 23.0146C47.8399 21.9698 49.2613 21.0443 49.9071 22.0324C50.7334 23.9071 51.1832 25.9329 51.9258 27.8347C52.0332 28.1086 52.1253 28.5442 52.3956 28.6871H52.3968Z" fill="#011638"/>
</g>
<defs>
<clipPath id="clip0_69_2425">
<rect width="64.6202" height="58.7282" fill="white"/>
</clipPath>
</defs>
</svg>
