<?xml version="1.0" encoding="UTF-8"?>
<svg id="Layer_1" xmlns="http://www.w3.org/2000/svg" version="1.1" viewBox="0 0 1031.7 500">
  <!-- Generator: Adobe Illustrator 29.0.1, SVG Export Plug-In . SVG Version: 2.1.0 Build 192)  -->
  <defs>
    <style>
      .st0 {
        fill: #ffbf9d;
      }

      .st1 {
        fill: #ff9a6c;
      }

      .st2 {
        fill: #263238;
      }

      .st3 {
        fill: #fff;
      }

      .st4 {
        fill: #1c811c;
      }

      .st5 {
        fill: none;
      }

      .st6 {
        fill: #e0e0e0;
      }

      .st7 {
        fill: #ae7461;
      }

      .st8 {
        fill: #eec643;
      }

      .st9 {
        opacity: .3;
      }

      .st10 {
        fill: #0d21a1;
      }

      .st11 {
        fill: #455a64;
      }

      .st12 {
        fill: #ebebeb;
      }

      .st13 {
        fill: #f5f5f5;
      }

      .st14 {
        opacity: .1;
      }

      .st15 {
        fill: #fafafa;
      }

      .st16 {
        fill: #6f4439;
      }
    </style>
  </defs>
  <g id="freepik--Plant--inject-2">
    <path class="st2" d="M954,452.2s-3.3-23.2-3.1-36.7,0-28.7,0-28.7h1.5s-1.1,26.8,0,43c1.1,16.2,4.1,22.4,4.1,22.4h-2.7"/>
    <path class="st11" d="M964.1,360.6c-.2-.8-.7-1.5-1.4-2-1-.6-2.3-.4-3.4,0-4.7,1.6-8.9,10.4-10.8,15l6.3,21c11.3-10.4,13.2-24.1,9.3-34Z"/>
    <path class="st2" d="M962.3,359.4c0,0,0,.2,0,.2,0,.2-.2.5-.3.8-.2.6-.6,1.6-1.1,2.8-.9,2.4-2.1,5.7-3.2,9.5s-1.8,7.2-2.2,9.7c-.2,1.2-.4,2.3-.5,3,0,.3,0,.6-.2.8v.2-.3c0-.2,0-.5,0-.8,0-.7.2-1.7.4-3,.6-3.2,1.2-6.5,2.1-9.7s1.9-6.4,3.2-9.5c.5-1.2.9-2.1,1.2-2.8s.2-.6.3-.7c0,0,0-.2,0-.3h0Z"/>
    <path class="st11" d="M952,399.7c-5.8-3.2-9.4-9.3-9.7-16-.2-4.6,1.2-9.3,2.8-13.6,0-.4.3-.7.6-1,.6-.2,1.1,0,1.6.2,4.2,2.4,6.8,7.1,8.2,11.8,1,3.1,1.3,6.4,1,9.7-.6,3.4-2.2,6.6-4.6,9"/>
    <path class="st2" d="M952,399.7v-1.1c0-.7,0-1.7,0-3-.2-3.2-.6-6.5-1.1-9.7-.6-3.7-1.5-7.1-2-9.6l-.7-2.9-.2-.8v-.2c0,0,0,.2,0,.2,0,.2.2.5.2.8.2.6.5,1.6.8,2.8.6,2.4,1.5,5.8,2.1,9.6.6,3.2.9,6.5,1,9.7v3.8c0,0,0,.2,0,.3h0Z"/>
    <g class="st9">
      <path d="M952,399.7c-5.8-3.2-9.4-9.3-9.7-16-.2-4.6,1.2-9.3,2.8-13.6,0-.4.3-.7.6-1,.6-.2,1.1,0,1.6.2,4.2,2.4,6.8,7.1,8.2,11.8,1,3.1,1.3,6.4,1,9.7-.6,3.4-2.2,6.6-4.6,9"/>
    </g>
    <path class="st11" d="M958.6,435.3c5.8,1.3,10.5,5.4,16.1,7.3,3.7,1.3,7.8,1.8,10.7,4.3-.7-1.8-2.4-2.9-4-4-4.5-2.8-9.5-5.2-14.5-7-2.6-.9-5.4-1.6-8.1-.9"/>
    <path class="st11" d="M950.2,440.4c-7.2,0-14.8-6.3-22-6.7,7.5-2.4,18.3-.4,22,6.7"/>
    <path class="st11" d="M953,423.1c3.7-1.2,7.7-1.5,11.5-.8s7.6,1.7,11.3,3.1c-.4-2.5-2.4-4.4-4.3-6-1.4-1.3-2.9-2.4-4.5-3.5-1.6-1-3.5-1.5-5.4-1.5-2.4.2-4.5,1.2-6,3-1.5,1.6-2.4,3.6-2.6,5.8"/>
    <path class="st11" d="M938.3,415.1c-4.5-3.9-11.4-3.5-17.4-3.3,9.6,4.5,18.6,10.2,27,16.8.2-4.2-3.8-8.5-9.6-13.4h0Z"/>
    <g class="st9">
      <path d="M938.3,415.1c-4.5-3.9-11.4-3.5-17.4-3.3,9.6,4.5,18.6,10.2,27,16.8.2-4.2-3.8-8.5-9.6-13.4h0Z"/>
    </g>
    <path class="st11" d="M955.1,409.8c2.2-1.5,4.5-2.9,7-4.1,2.4-1.1,4.6-2.8,6.9-4.1,3-1.6,5.6-3.9,8.4-5.8s5.8-3.8,9.1-4.4c-2.8-.5-5.6-.3-8.3.5s-5.3,1.8-7.8,3c-3.6,1.6-7.1,3.2-10.1,5.8-2.9,2.6-5.5,5.1-5.2,9"/>
    <path class="st2" d="M974.5,440.4h-.2c0,0-.6-.4-.6-.4-.6-.3-1.3-.7-2.3-1.2s-1.1-.5-1.6-.8-1.2-.6-1.9-.9c-1.5-.6-2.9-1.1-4.5-1.5s-3.1-.5-4.6,0c-.6.2-1.3.3-1.9.6-.6.2-1.1.5-1.5.8-.7.5-1.4,1-2,1.6s-.6.7-.6.7c0,0,0-.2.2-.2.2-.2.2-.4.4-.6.6-.6,1.2-1.2,1.9-1.7.5-.3,1.1-.6,1.6-.8.6-.2,1.3-.5,2-.6,1.5-.3,3.2-.3,4.7,0,1.5.4,3,.9,4.5,1.5.6.3,1.3.6,1.9.9s1.1.6,1.6.8c1,.5,1.7,1,2.3,1.3l.6.4c0,.2.2.2.2.2h0Z"/>
    <path class="st2" d="M944.9,436.8c.2,0,.3,0,.5.2.4.2.8.3,1.1.5,1.3.6,2.4,1.5,3.4,2.4,1.1,1,1.9,2.1,2.6,3.3.2.4.4.7.6,1.1,0,.2,0,.3.2.4,0,0-.3-.6-.9-1.5-1.5-2.4-3.5-4.4-5.9-5.7-1-.6-1.6-.8-1.5-.8h0Z"/>
    <path class="st2" d="M928.9,414.7c0,0,.2,0,.3,0l.9.3,1.4.5c.5.2,1.1.5,1.8.8,3.4,1.5,6.6,3.6,9.4,6,1.5,1.3,3,2.8,4.4,4.3,1.1,1.2,2.1,2.6,3.1,3.9.8,1.1,1.5,2.1,1.9,2.8l.5.8c0,0,0,.2.2.2,0,0-.2-.2-.2-.2,0-.2-.3-.4-.6-.7-.5-.6-1.1-1.6-1.9-2.8s-1.9-2.4-3.2-3.9c-1.4-1.5-2.8-2.9-4.4-4.3-2.8-2.4-5.9-4.5-9.3-6.1-.6-.3-1.2-.6-1.7-.8l-1.4-.6-.8-.3c0,0-.2,0-.3-.2h0Z"/>
    <path class="st2" d="M963.8,419h-1.2c-.2-.2-.6-.2-.9-.2-1.7-.2-3.4.2-5,1-.8.4-1.6,1-2.3,1.7-.6.6-1.1,1.1-1.5,1.8-.4.6-.7,1.2-1,1.9,0-.2,0-.4.2-.6.2-.5.4-1,.7-1.5.4-.6.9-1.3,1.5-1.9.6-.7,1.5-1.3,2.3-1.7,1.5-.8,3.3-1.1,5.1-.9.3,0,.6,0,.9.2l.6.2c.2,0,.4,0,.6.2v-.2Z"/>
    <path class="st2" d="M971.1,396.5s-.2.2-.2.2l-.8.4c-.7.4-1.7.9-2.9,1.6s-2.7,1.6-4.1,2.7c-1.6,1.1-3.2,2.4-4.6,3.9-.7.7-1.4,1.5-1.9,2.4-.5.9-.9,1.8-1.3,2.6-.7,1.5-1.4,3-2,4.5-.4,1.1-.7,2.1-1,3.2,0,.4-.2.8-.2,1.2v-.3c0-.2,0-.5.2-.9.2-1.1.6-2.2.9-3.2.6-1.5,1.2-3.1,1.9-4.6.4-.8.9-1.7,1.3-2.6.6-.9,1.2-1.8,1.9-2.5,1.5-1.5,3-2.8,4.7-3.9,1.5-1.1,3-1.9,4.2-2.7s2.3-1.2,3-1.6l.8-.4h.3,0Z"/>
    <path class="st2" d="M950.9,418.4c0-.2,0-.4-.2-.6,0-.4-.2-1-.3-1.6-.6-3.7-1.8-7.2-3.4-10.6l-.7-1.5c0-.2-.2-.4-.2-.6.2.2.2.3.3.6.2.3.5.9.8,1.5.8,1.7,1.5,3.4,2.1,5.2.6,1.8,1,3.6,1.3,5.4,0,.7.2,1.3.2,1.7v.6-.2Z"/>
    <path class="st11" d="M950.4,402c-.2-2.8-1.1-5.4-2.4-7.8-3.6-6.7-10-11.4-17.5-13l16.2,24,2.1,4.3c1.3-2.3,1.9-5,1.5-7.6Z"/>
    <rect class="st8" x="932.1" y="443.9" width="45.4" height="8"/>
    <polygon class="st8" points="935.5 450.3 941.6 475.3 969.5 475.3 974.1 450.3 935.5 450.3"/>
    <path class="st2" d="M977.5,451.9c0,0-10.2.2-22.9.2s-22.9,0-22.9-.2,10.2-.2,22.9-.2,22.9,0,22.9.2Z"/>
  </g>
  <g>
    <path class="st10" d="M683.9,284.5c-4-26.3-14.4-51.5-30.3-73-31.3-42.6-81.6-68-134.5-68-85.3,0-156.5,63.7-165.7,148.2-.6,5.9-1,12-1,18s.3,10.6.8,15.8c1.4,15.4,5.1,30.5,10.7,44.9,4.5,11.6,10.4,22.6,17.3,32.7,3.3,4.8,6.7,9.3,10.2,13.5,7.9,9.4,16.8,17.8,26.5,25.2,26.1,20,57.3,31.7,90.1,33.8h111.5v-68.7h65.3v-107.4c0-4.9-.4-9.9-1.1-14.9h.2ZM634.2,355.6h-115c-15.6,0-30.4-7.9-39.3-20.4h138l.5-29c-.5-37.8-21.3-71.5-54.3-88s-29.1-10.6-44.9-10.6c-49.2,0-90.8,35.1-98.9,83.4-.9,5.5-1.4,11.1-1.4,16.7s.6,12.7,1.8,18.7c3.3,17.4,11.2,33.7,23,47.1,19.1,21.8,46.6,34.3,75.5,34.3h48.1v14.6h-48.1c-24.3,0-47.5-7.5-67.1-21.6-4.8-3.4-9.4-7.3-13.6-11.5-8.4-8.2-15.4-17.6-20.9-27.9-6.4-12-10.5-24.9-12.3-38.3-.7-5-1-10.2-1-15.3s.3-9.2.8-13.6c6.8-57.6,55.9-101.1,114.2-101.1s107.3,43.3,114.2,100.8l.8,14.2v47.6h0ZM559.8,282.1h-81.3c8.7-13.6,24.1-22.3,40.6-22.3s32,8.7,40.7,22.3Z"/>
    <path class="st10" d="M872.7,157.8l-236.2,188.6v60.4h239.4v68.1h72.8V157.8h-76ZM875.9,351.4h-157l157-126v126ZM941.4,351.4v55.4h71.4v-55.4h-71.4Z"/>
    <path class="st10" d="M255.1,157.8L18.9,346.4v60.4h239.4v68.1h72.8V157.8h-76,0ZM258.3,351.4H101.3l157-126v126ZM323.8,351.4v55.4h71.4v-55.4h-71.4Z"/>
    <rect class="st8" x="636.5" y="422.4" width="48.5" height="52.5"/>
  </g>
  <g id="freepik--background-complete--inject-2">
    <path class="st13" d="M322.9,467.7c-1.3-1.1-4.3-4.8-2-8.9.8-1.5,2.6-2.3,4.2-3,1.7-.6,3.2-1.4,4.6-2.4,2.5-2.1,3.2-5.7,4.9-8.5,1.9-3.3,5.5-5.7,9.2-5.5,4.3.2,7.9,3.7,9.6,7.8s1.7,8.5,1.7,12.8,0,5.1-1.8,6.7-4.1,1.5-6.3,1.5l-23.6-.7"/>
    <path class="st6" d="M241.9,368.6h-91.2l16.5,98c.7,4.1,3.7,7.5,7.8,8.7h.3c.3.1.6.3.7.3.6,0,1.2.1,1.9.1h41.1c.7,0,1.5,0,2.2-.1,4.8-.7,8.7-4.7,9.3-9.5l7.9-67.4.3-2.6h0l3.1-26.7v-.4h.1ZM224.7,431h-9.4l1-28.4h10.9l-2.4,28.4h-.1ZM227.9,402.7h9l-3.4,28.5h-8.1l2.5-28.5h0ZM201.2,462.6l-.6-24.7h13.5l-.9,24.7h-12ZM186.6,437.9h13.1l.6,24.7h-11.8l-1.9-24.7ZM187.7,462.6h-11c-1-6.6-2.4-15.3-3.8-24.7h12.9l1.9,24.7h0ZM186.2,431.2l-2.2-28.5h15l.6,28.5h-13.4ZM200.6,431.2l-.7-28.5h15.4l-.9,28.5h-13.8ZM199.7,395.9l-.7-26.4h17.3l-.9,26.3h-15.7,0ZM198.8,395.9h-15.4l-2.1-26.4h16.9l.7,26.4h-.1ZM182.5,395.9h-16.3c-.6-3.7-1.2-7.1-1.6-10.1-1.8-10.6-2.4-14.7-2.6-16.2h18.5l2.1,26.3ZM183.1,402.7l2.2,28.5h-13.5c-.4-2.9-.9-5.9-1.3-8.7-1-6.8-2.1-13.4-3.1-19.7h15.9-.1ZM170.9,431.2h-8.8l-4.8-28.5h9.1c1.5,8.7,2.9,18.5,4.6,28.4h0ZM171.9,437.9c1.3,8.5,2.6,16.9,3.8,24.7h-8.5l-4.1-24.7h8.8,0ZM214.2,462.6l.7-24.7h9l-2.1,24.7h-7.6ZM216.5,395.9l.9-26.3h12.5l-2.2,26.3h-11.2ZM161.1,369.5c.3,1.9,2.1,12.3,4.3,26.3h-9.1l-4.4-26.3h9.3ZM230,462.6h-7.1l2.1-24.7h7.9l-2.9,24.7ZM237.8,395.8h-9.3l2.2-26.3h10l-3.1,26.3h.1Z"/>
    <path class="st6" d="M796.8,418.3h-48.9l8.8,52.5c.4,2.2,2,4,4.2,4.6h.2c.2,0,.3.2.4.2.3,0,.6,0,1,0h22.1c.4,0,.8,0,1.2,0,2.6-.4,4.6-2.5,5-5.1l4.3-36.2.2-1.4h0l1.7-14.3v-.2h0ZM787.6,451.8h-5l.6-15.2h5.8l-1.3,15.2h0ZM789.3,436.5h4.8l-1.8,15.3h-4.3l1.3-15.3h0ZM775,468.7l-.3-13.2h7.2l-.5,13.2h-6.5ZM767.2,455.5h7l.3,13.2h-6.3l-1-13.2ZM767.7,468.7h-5.9c-.6-3.5-1.3-8.2-2-13.2h6.9l1,13.2h0ZM766.9,451.8l-1.2-15.3h8l.3,15.3h-7.2ZM774.6,451.8l-.4-15.3h8.3l-.5,15.3h-7.4ZM774.2,432.9l-.4-14.2h9.3l-.5,14.1h-8.4,0ZM773.7,432.9h-8.3l-1.1-14.2h9.1l.4,14.2h0ZM764.9,432.9h-8.7c-.3-2-.6-3.8-.9-5.4-.9-5.7-1.3-7.9-1.4-8.7h9.9l1.1,14.1ZM765.3,436.5l1.2,15.3h-7.2c-.2-1.6-.5-3.2-.7-4.6-.6-3.6-1.1-7.2-1.7-10.6h8.5,0ZM758.7,451.8h-4.7l-2.6-15.3h4.9c.8,4.6,1.6,9.9,2.4,15.2h0ZM759.3,455.5c.7,4.6,1.4,9.1,2,13.2h-4.6l-2.2-13.2h4.7,0ZM782,468.7l.4-13.2h4.8l-1.1,13.2h-4.1ZM783.1,432.9l.5-14.1h6.7l-1.2,14.1h-6ZM753.4,418.7c.2,1,1.1,6.6,2.3,14.1h-4.9l-2.4-14.1h5ZM790.4,468.7h-3.8l1.1-13.2h4.3l-1.6,13.2ZM794.6,432.8h-5l1.2-14.1h5.4l-1.7,14.1h0Z"/>
    <rect class="st6" x="316.9" y="44.9" width="100.1" height="145.1"/>
    <rect class="st13" x="311.9" y="44.9" width="100.1" height="145.1"/>
    <rect class="st3" x="324.3" y="60.6" width="75.2" height="113.7"/>
    <path class="st6" d="M399.5,174.3v-31.8c0-20,0-48.4-.1-81.8l.2.2h-75.2l.3-.3v113.7l-.2-.2h54.8c0,.1,15.1.2,15.1.2h5.4-20.3l-54.9.2h-.2V60.3h75.7v.2c0,33.5,0,61.9-.1,82v31.2c0,.4-.2.7-.2.7h-.3Z"/>
    <path class="st6" d="M412.3,44.9c-.5.9-1.1,1.8-1.8,2.6-1.2,1.5-2.8,3.7-4.7,6s-3.6,4.3-4.9,5.8c-.7.8-1.4,1.6-2.2,2.2.6-.9,1.2-1.7,1.9-2.5,1.3-1.6,3-3.6,4.8-5.8l4.8-5.8c.6-.9,1.3-1.7,2.1-2.4h0Z"/>
    <path class="st3" d="M399.9,173.9c3.7,5.9,8.1,11.5,13.1,16.4"/>
    <path class="st6" d="M413,190.3c-.8-.6-1.6-1.3-2.3-2.1-1.8-1.8-3.4-3.6-5-5.6-1.6-1.9-3-4-4.4-6.1-.6-.8-1.1-1.7-1.5-2.7.7.8,1.3,1.6,1.9,2.5,1.1,1.6,2.6,3.7,4.5,5.9s3.5,4.2,4.8,5.7c.7.7,1.4,1.5,2,2.3h0Z"/>
    <path class="st3" d="M311.9,189.9l13.1-16.2"/>
    <path class="st6" d="M325,173.7c-2,2.9-4.1,5.6-6.3,8.3-2.1,2.8-4.4,5.4-6.8,7.9-.1,0,2.7-3.8,6.3-8.3,2.1-2.8,4.4-5.4,6.8-7.9Z"/>
    <path class="st6" d="M311.9,44.9c2.3,2.4,4.4,5,6.4,7.6,2.1,2.5,4.1,5.2,5.9,8-2.2-2.4-4.3-5-6.3-7.6-2.1-2.5-4.1-5.2-6-7.9h0Z"/>
    <rect class="st6" x="350.9" y="83.7" width="25.2" height="71.5"/>
    <rect class="st6" x="626.2" y="35.2" width="94.5" height="98.5"/>
    <rect class="st15" x="619.8" y="35.2" width="94.5" height="98.5"/>
    <path class="st6" d="M714.4,133.7h-94.5V35.1h94.5v98.6ZM619.9,133.6h94.4V35.2h-94.4v98.4Z"/>
    <rect class="st3" x="632.5" y="48.4" width="69.1" height="72"/>
    <path class="st6" d="M632.5,120.9c-.5.7-1.1,1.4-1.7,2-1.1,1.2-2.7,2.7-4.4,4.4-1.7,1.7-3.3,3.2-4.5,4.3-.6.6-1.3,1.2-2,1.7.5-.7,1.1-1.4,1.7-2,1.1-1.2,2.7-2.7,4.4-4.5s3.4-3.2,4.5-4.3c.6-.6,1.3-1.2,2-1.6Z"/>
    <path class="st6" d="M701.6,120.7c.7.5,1.4,1.1,2,1.7,1.2,1.1,2.7,2.7,4.5,4.4,1.7,1.7,3.2,3.3,4.3,4.5.6.6,1.2,1.3,1.7,2-.7-.5-1.4-1.1-2-1.7-1.2-1.1-2.7-2.7-4.5-4.4s-3.2-3.3-4.3-4.5c-.6-.6-1.2-1.3-1.7-2Z"/>
    <path class="st6" d="M701.4,48.6c.5-.7,1.1-1.4,1.7-2,1.1-1.2,2.6-2.7,4.4-4.5s3.3-3.2,4.5-4.3c.6-.6,1.3-1.2,2-1.7-.5.7-1.1,1.4-1.7,2-1.1,1.2-2.7,2.7-4.4,4.5s-3.3,3.2-4.5,4.3c-.6.6-1.3,1.2-2,1.7Z"/>
    <path class="st6" d="M632.3,48.8c-.7-.5-1.4-1.1-2-1.7-1.2-1.1-2.7-2.7-4.5-4.4s-3.2-3.3-4.3-4.5c-.6-.6-1.2-1.3-1.7-2,.7.5,1.4,1.1,2,1.7,1.2,1.1,2.7,2.7,4.5,4.4s3.2,3.3,4.3,4.5c.6.6,1.2,1.3,1.7,2Z"/>
    <path class="st6" d="M701.4,120.4v-19.9c0-12.6,0-30.6,0-52.1l.3.3h-68.9l.3-.3v72l-.3-.3h49.9c0,0,14,.2,14,.2h5-18.8l-50.1.2h-.3V48.1h69.5v.3c0,21.6,0,39.6,0,52.3v19.4c0,0,0,.2-.2.3h-.2Z"/>
    <rect class="st12" x="655.6" y="72.9" width="23" height="23.1"/>
    <polygon class="st13" points="570.2 444.2 570.2 474.3 614.3 474.3 662.8 474.3 662.8 444.2 570.2 444.2"/>
    <polygon class="st6" points="566.3 435.8 566.3 444.2 666.1 444.2 666.1 435.8 614.3 435.8 566.3 435.8"/>
    <polygon class="st6" points="616.2 474.3 662.8 474.3 662.8 444.2 666.1 444.2 666.1 435.8 614.3 435.8 614.3 443.4 616.2 474.3"/>
    <rect class="st6" x="583.2" y="449" width="18.8" height="4.5"/>
    <rect class="st3" x="580.8" y="459.2" width="24.1" height="9.6"/>
    <polygon class="st13" points="584.5 405.7 584.5 435.8 628.5 435.8 677.1 435.8 677.1 405.7 584.5 405.7"/>
    <polygon class="st12" points="581 397.3 581 405.7 680.8 405.7 680.8 397.3 628.9 397.3 581 397.3"/>
    <polygon class="st12" points="630.4 435.8 677.5 435.8 677.5 405.7 680.3 405.7 680.3 397.3 628.5 397.3 628.5 404.9 630.4 435.8"/>
    <rect class="st6" x="597.4" y="410.5" width="18.8" height="4.5"/>
    <rect class="st3" x="595" y="420.7" width="24.1" height="9.6"/>
  </g>
  <g id="freepik--Floor--inject-2">
    <path class="st2" d="M1012.8,475.3c0,.1-223.5.3-498.9.3s-498.9-.1-498.9-.3,223.5-.3,498.9-.3,498.9.1,498.9.3Z"/>
  </g>
  <g id="freepik--Character--inject-2">
    <rect class="st6" x="390" y="383.4" width="12.3" height="59.3"/>
    <path class="st6" d="M352,375.7c.2,0,38,11.9,38,11.9h12.3l43.3-11.9h-93.6,0Z"/>
    <path class="st11" d="M317.6,176.9c-5.5,1.2-10.4,6.3-9.5,16.4,0,0-4.4.8-4.1,8.7s-.5,57,9.3,83.7c8.1,22,22,68.9,26.7,84.9,1,3.3,4,5.5,7.3,5.5h106.7c7.7,0,14-6.3,14-14v-.5h0c-.3-7.5-6.6-13.4-14.1-13.4l-77.8.8s-4.8-25.7-9.7-26c0,0,2.2-16.1-6-20.7,0,0,1.6-19.9-7.1-21.6,0,0,1.4-16.6-6-19.6,0,0,4.1-14.9-3.5-22.6,0,0,2.2-17.4,0-30.5s-3-36.2-26.2-31.1h0Z"/>
    <path class="st2" d="M459.5,363.2h-31.1c0,.1-78.2.1-78.2.1h-.2v-.2l-11.1-31.9c-6.4-18.7-12.4-36.5-17.8-52.8-1.3-4.1-2.6-8-3.8-11.9-.6-1.9-1.1-3.8-1.5-5.8-.2-1-.4-1.9-.5-2.9s-.3-1.9-.3-2.9c-.7-7.6-.8-14.7-1-21.2-.2-12.9,0-23.4.2-30.6,0-3.6.2-6.4.2-8.3v-2.2c0-.5.1-.7.1-.7v2.9c0,1.9,0,4.7-.1,8.3,0,7.2-.2,17.7,0,30.6.1,6.5.3,13.6,1,21.1,0,1,.2,1.9.3,2.9.1,1,.3,1.9.5,2.9.4,2,1,3.9,1.6,5.8,1.2,3.9,2.5,7.8,3.8,11.9,5.3,16.2,11.4,34.1,17.8,52.8,3.8,11,7.5,21.8,11,31.9l-.2-.2h78.2l22.9.2h8.2v.2Z"/>
    <path class="st2" d="M364.4,349.2c-.3.3-.6.6-1,.9-.7.5-1.6,1.3-2.8,2.3-3,2.6-5.7,5.5-8.3,8.5-2.5,3-4.8,6.3-6.9,9.7-.8,1.3-1.4,2.4-1.8,3.1-.2.4-.4.8-.7,1.1.1-.4.3-.8.5-1.2.4-.8.9-1.9,1.7-3.2,2-3.5,4.3-6.8,6.8-9.8,2.5-3.1,5.4-5.9,8.4-8.5,1.2-1,2.2-1.7,2.9-2.2.4-.3.7-.5,1.1-.7h0Z"/>
    <path class="st2" d="M376,349h-3l-8.6.2h-.1c0-.1-.2-1.2-.2-1.2-.1-.3-.2-.7-.4-1-.4-.7-1-1.2-1.7-1.5-1.7-.4-3.6,0-5.1.8l-.4.2v-.4c1.3-3.5,1.5-7.3.6-11-1-4.3-3.4-8.1-6.8-10.9h-.1v-.2c2.2-6.2.4-13.2-4.5-17.6h-.1v-.3c2.7-8.6-.6-18-8-23.2h-.1v-.2c0-2.8,0-5.5-.3-8.3-.2-2.8-.8-5.6-1.6-8.3-.8-2.6-2.1-5.2-4.2-6.8h-.2v-.3c1.2-4,1.6-8.2,1.4-12.4-.2-2-.6-3.9-1.3-5.8-.7-1.8-1.7-3.5-3-4.9h-.1v-.3c2.2-3.5,3.4-7.5,3.5-11.6,0-3.7-1.2-7.3-3.4-10.3h0c.1-5.1-.9-10-2.9-14.5-.9-1.8-2.1-3.4-3.7-4.7-1.3-1.1-2.9-1.8-4.5-2.2-1.3-.3-2.7-.4-4.1-.3l-1.6.2-1.3.3c-.8.1-1.4.4-1.8.5s-.6.1-.6.1c.8-.3,1.6-.5,2.4-.7l1.3-.3,1.7-.2c1.4-.1,2.8,0,4.1.2,1.7.4,3.3,1.1,4.7,2.2,1.6,1.3,2.9,2.9,3.8,4.8,2.1,4.5,3.1,9.5,3,14.5h0c2.3,2.9,3.6,6.6,3.6,10.4s-1.3,8.3-3.5,11.9v-.3c1.3,1.5,2.4,3.2,3.1,5,.7,1.9,1.1,3.9,1.3,6,.3,4.2-.2,8.5-1.3,12.6l-.2-.4c2.4,1.6,3.6,4.4,4.5,7,.8,2.7,1.3,5.6,1.6,8.4.3,2.8.3,5.6.2,8.3v-.2c7.5,5.3,10.8,14.9,8.1,23.8v-.3c5,4.6,6.8,11.8,4.5,18.2v-.2c3.4,2.8,5.8,6.7,6.8,11.1.9,3.7.7,7.6-.6,11.1l-.2-.2c.9-.4,1.8-.7,2.7-.9.9-.2,1.8-.2,2.7.1.8.3,1.5.9,1.9,1.8.2.4.3.7.4,1.1l.2,1.1h-.1c0-.1,8.6-.1,8.6-.1h3,0Z"/>
    <g class="st9">
      <path d="M361.8,302l-35.7,4.6c1.1,1.9,3,3.2,5.2,3.5s4.3.2,6.5-.1c9.2-1,18.5-1.3,27.8-1-1-2.5-2.3-4.8-3.8-7Z"/>
    </g>
    <path class="st2" d="M344.1,236.6c-2.5.3-4.9.5-7.4.4-2.5.1-5,0-7.4-.1,2.5-.3,4.9-.5,7.4-.4,2.5-.1,5,0,7.4.1Z"/>
    <path class="st6" d="M343.8,466s5.7-17.4,13.6-21.6c12.6-6.8,41.8-10,41.8-10l3.2,8.2s-38.9,1.5-45,9.4c-3.5,4.5-6.8,9.2-9.8,14h-3.8Z"/>
    <circle class="st2" cx="348.8" cy="467" r="8.2"/>
    <path class="st6" d="M449.1,465.7s-5.7-17.4-13.6-21.6c-12.6-6.8-41.8-10-41.8-10l-3.2,8.2s38.9,1.5,45,9.4c3.5,4.5,6.8,9.2,9.8,14h3.8Z"/>
    <circle class="st2" cx="446.2" cy="467" r="8.2"/>
    <polyline class="st6" points="391.9 438.8 393.7 461.2 398.8 462.2 398.8 438.8"/>
    <circle class="st2" cx="396.2" cy="467" r="8.2"/>
    <path class="st2" d="M334.9,263.2c2-.7,4-1.2,6.1-1.5,2-.5,4.1-.8,6.2-1-2,.7-4,1.2-6.1,1.5-2,.5-4.1.8-6.2,1Z"/>
    <path class="st2" d="M352.5,280.7c-.7.3-1.3.5-2.1.7-1.3.3-3.1.7-5.1,1s-3.8.5-5.1.6h-2.2c0-.1,3.2-.5,7.2-1.1s7.2-1.3,7.2-1.1h.1Z"/>
    <path class="st2" d="M367.3,323.9c-.8.2-1.6.3-2.4.4-1.5.1-3.5.3-5.8.4s-4.3,0-5.8,0-1.6,0-2.4-.2c.8-.1,1.6-.2,2.4-.1h5.8c0-.1,5.8-.3,5.8-.3h2.4v-.2Z"/>
    <path class="st2" d="M371.4,339.6c0,.2-3.3.9-7.2,2.5s-6.7,3.5-6.8,3.4c.5-.5,1.1-1,1.8-1.4,1.5-1,3.1-1.8,4.8-2.5,1.7-.7,3.4-1.3,5.2-1.7.7-.2,1.5-.3,2.2-.4h0Z"/>
    <path class="st2" d="M438.1,376.3c0,.1-19.7.2-43.9.2s-43.9-.2-43.9-.4,19.7-.2,43.9-.2,43.9.2,43.9.4Z"/>
    <path class="st2" d="M401.7,388c-1.9.3-3.9.3-5.9.3s-3.9,0-5.9-.3c1.9-.3,3.9-.3,5.9-.3s3.9,0,5.9.3Z"/>
    <path class="st2" d="M402.3,435.8c-3.7,2.1-8.1,2.2-11.9.3,2,.5,4,.8,6,.8,2-.1,4-.5,5.9-1.1h0Z"/>
    <path class="st6" d="M523.8,250.5s-4.7-7.2-7.4-9.7c-2.1-1.9-12.3-5.6-16.9-7.3-1.5-.5-3-.8-4.6-.8-6,0-21.9,0-29.9,1.4-10.1,1.8,56.7,54.4,56.7,54.4h55.6c0,.1,3.6-13.6,3.6-13.6l-37.1-7.7-20.5-16.3"/>
    <g class="st9">
      <path d="M480.4,236.1s3.7.2,8.8,1,10.8,1.1,13.6,3.6c1.9,1.7,13.4,2,13.4,2l-16-.6-19.8-6h0Z"/>
    </g>
    <path class="st2" d="M475.1,234.8c.3,0,.7,0,1,.1.6.1,1.6.3,2.8.6,2.3.6,5.5,1.4,8.9,2.5l3.8,1.2h0c2.6.1,5.2.5,7.7,1.1h0c.2.4.4.8.5,1.2-.3-.4-.5-.7-.7-1.1h0c-2.5-.4-5.1-.6-7.7-.8h0l-3.8-1.2-8.9-2.6-2.7-.8c-.3,0-.6-.2-.9-.3h0Z"/>
    <path class="st0" d="M620.5,288.2c0-.4-1.1-5.2-1.2-5.7s-3.8-6-3.8-6l-2-.6s-9.3-2.2-11.2-2.1h-1.3c0,.1-2.4.3-3.4.5s-6.9,2.3-6.9,2.3c-1.5.3-3,.4-4.4.3-2.1-.3-4.1-.8-6.1-1.3l-2.4,13.1h4.5c1.4.4,2.9.7,4.3.9,1.6.1,6.2.6,6.2.6,0,0,7.1,3,8.9-1.2s-5.1-4.6-5.1-4.6l2.1-1.5,5.4-.6,1.4.5,1.5,2.4s-.4,5.3,3,4.9h.9c0-.1.5-5.5.5-5.5l-1.6-5.5,3.6,5.4s.3,4.7,1.9,5.3h.4c1.9,0,2.2-.6,2.2-.6l.4-1s1.9,1.2,2.1-.2v.2Z"/>
    <path class="st1" d="M600.1,274h1.7c1.4.2,2.7.5,4,1.1,1.3.5,2.5,1.3,3.4,2.4.4.4.7,1,.7,1.5,0,0-.3-.6-1-1.3-.9-.9-2.1-1.7-3.3-2.2-2.9-1.2-5.5-1.4-5.5-1.6h0Z"/>
    <path class="st1" d="M603.6,279.7c0,0,.2.6.3,1.2s0,1.3,0,1.3c0,0-.4-.5-.5-1.2s0-1.3.2-1.3Z"/>
    <path class="st1" d="M600.1,279.9c0-.1,1.1,1,2.7,1.8s3,1,3,1.1c-1.1.2-2.3,0-3.2-.7-1-.4-1.9-1.2-2.4-2.2h0Z"/>
    <path class="st1" d="M588.8,280.4c.5,0,1,.2,1.4.5,1.1.6,2,1.4,2.7,2.4.2.3.4.7.6,1h-.3c1.3-.4,2.7-.3,3.9.2-1.3,0-2.5,0-3.8.2h-.2v-.2c-.3-.3-.4-.6-.6-.9-1-1.3-2.2-2.4-3.6-3.2h-.1Z"/>
    <path class="st1" d="M613.7,275.9c.5.4,1,.9,1.4,1.5,1,1.3,1.7,2.8,2.3,4.3s.9,3.1,1.1,4.8c0,.7,0,1.3,0,2-.3-2.2-.8-4.5-1.5-6.6-.9-2.1-2-4.1-3.2-6h0Z"/>
    <path class="st11" d="M525.1,432.8l-1,27.1s27.1,10.2,27.4,15.2h-52.5c0-.1-.1-42.4-.1-42.4h26.2Z"/>
    <path class="st6" d="M507.9,457.5c-1,.3-1.7,1.4-1.5,2.4.3,1.1,1.3,1.7,2.4,1.5,1.1-.3,1.8-1.5,1.6-2.6-.4-1.1-1.6-1.6-2.7-1.3"/>
    <path class="st2" d="M499,474.9l.2-4.3,50.3,1.7s2.3,1,2.1,2.7h-52.6Z"/>
    <path class="st3" d="M524.9,459.6c0,.3-1.3.4-2.6,1.2s-1.9,1.9-2.2,1.8,0-1.6,1.7-2.5,3.1-.7,3-.4h0Z"/>
    <path class="st3" d="M530.4,461.9c0,.2-1,.7-1.9,1.8s-1.1,2.2-1.4,2.2-.4-1.5.7-2.8,2.6-1.4,2.6-1.2h0Z"/>
    <path class="st3" d="M533.5,468.5c-.2,0-.6-1.2,0-2.6s1.9-2,2-1.7-.6,1-1.2,2.1-.7,2.2-.9,2.2h.1Z"/>
    <path class="st3" d="M524.5,453.4c0,.2-1.3-.1-2.7,0s-2.6.5-2.7.3.9-1.1,2.7-1.2c1.7,0,2.9.7,2.8.9h0Z"/>
    <path class="st11" d="M483,430l-17,21s15.6,24.4,12.9,28.6l-42-31.6,25.2-33.9,20.9,15.9Z"/>
    <path class="st6" d="M454.3,439.4c-1-.4-2.2,0-2.7,1.1-.4,1,0,2.2,1,2.6,1.1.4,2.3,0,2.8-1.1.3-1.1-.3-2.3-1.4-2.6"/>
    <path class="st2" d="M436.9,448l2.7-3.3,39.2,31.5s1.3,2.2,0,3.4l-42-31.6h0Z"/>
    <path class="st3" d="M466.8,451.3c-.2.2-1.3-.5-2.8-.6s-2.7.4-2.8.1,1.1-1.2,2.9-1,2.9,1.3,2.7,1.4h0Z"/>
    <path class="st3" d="M469.8,456.4c-.1.2-1.2,0-2.6.3s-2.2,1.1-2.4,1,.6-1.4,2.2-1.8,3,.4,2.8.6h0Z"/>
    <path class="st3" d="M468.3,463.6c-.2,0,.3-1.3,1.6-2.1s2.7-.5,2.6-.2-1.1.4-2.2,1-1.8,1.4-2.1,1.3h.1Z"/>
    <path class="st3" d="M470.1,446.1c-.2.1-.9-.9-2.2-1.7s-2.4-1.1-2.4-1.4,1.4-.3,2.9.6,1.9,2.3,1.7,2.4h0Z"/>
    <path class="st2" d="M522.4,243.3c5.1-1.4,10.3-2.3,15.5-2.7,5.3-.5,10.6.4,15.4,2.5.7.3,5.5,3.1,5.4,3.9,0,.6-4.6-1.3-5.2-1-4.9,2.4-10.6,2.6-16,1.8-5.2-.9-10.3-2.4-15.2-4.4"/>
    <path class="st0" d="M495.2,241.3l47.3,3.1c13.2.6,23.8,8.9,22.8,22l-.2,1.2c-1.7,12.2-12.4,21.1-24.7,20.4-11.4-.6-24.1-1.5-30.1-2.4-12.6-1.8-12.8-14.7-12.8-14.7,0,0-1.1-.1-4.8-.5l-12-8.6h0l14.5-20.6h0Z"/>
    <path class="st1" d="M497.5,271c.8-5.8,3.2-11.3,7.1-15.7,0,0-10,2.7-10.6,15.3l3.5.4Z"/>
    <path class="st2" d="M531.5,276.6c.3.2-.6,1.7-.3,3.6s1.4,3.2,1.2,3.5-.5,0-1.1-.6c-.7-.8-1.1-1.7-1.2-2.7,0-1,0-2,.5-2.9.4-.7.8-.9.9-.8h0Z"/>
    <path class="st2" d="M532.9,259.4c.2.2-.8,1.6-.8,3.5s.9,3.4.7,3.6c0,.1-.5-.1-1-.8-.6-.9-.9-1.9-.8-2.9,0-1,.4-2,1-2.8.5-.6.9-.8,1-.7h-.1Z"/>
    <path class="st2" d="M521.6,270.5c.2,1.1.2,2.1,0,3.2,0,.5,0,1,.3,1.1.5.1,1,0,1.5-.1l4-1c5.6-1.3,10.2-2.2,10.3-1.9s-4.5,1.5-10.1,2.8l-4,.9c-.6.2-1.4.2-2,0-.3-.2-.6-.5-.6-.9v-.9c0-1.1.2-2.2.5-3.2Z"/>
    <path class="st2" d="M543.3,267.1c-.5-.3.3-2.1.7-4.4s.3-4.2.8-4.4c.2,0,.6.4.9,1.2.7,2.3.3,4.8-1.1,6.7-.5.7-1.1,1-1.3.9h0Z"/>
    <path class="st2" d="M540.9,285.5c-.4-.5.3-2,.5-3.9s0-3.5.6-3.8c.2-.1.6.2,1,.9.4,1,.5,2.1.3,3.2,0,1.1-.6,2.1-1.2,3-.5.6-1,.8-1.2.6h0Z"/>
    <path class="st0" d="M533,244.1c0-.2,3.7-8.3-4.9-9.2s-7.7,8-7.5,8,12.4,1.2,12.4,1.2Z"/>
    <path class="st1" d="M524.1,240.7s0-.2-.2-.4c0-.4,0-.8,0-1.1.4-.9,2-1.5,3.5-1.4.7,0,1.5.3,2.1.6.5.2.9.7,1,1.2,0,.4-.2.7-.5.9h-.4s0,.2.5.2.4-.1.6-.3c.2-.2.3-.5.3-.8,0-.7-.5-1.4-1.2-1.7-.7-.4-1.5-.7-2.4-.8-1.8-.1-3.5.6-4,1.8-.2.5-.2,1,0,1.4.2.3.4.4.4.3h.2Z"/>
    <path class="st2" d="M555.2,283.8c.6,1.5,5.6-2.3,7.5-5.6,2.8-5,5-12.8,4.1-17.7-1.1-5.9-3.5-11-8.5-14.4-5.1-3.3-11-5.2-17-5.4-1.8-.2-3.7,0-5.4.7-2,1-3.4,3.2-6.1,2.9-1-.2-1.9,0-2.7.6-1.8,1.4-.4,3.5,1.1,4.5,3.2,2.2,7.2,2.8,11.1,3.3,2.7.5,5.5.6,8.3.2,1.5-.3,2.9-.8,4.4-1,1.5-.3,3.1,0,4.3,1,.2.2.4.5.6.8,1.9,2.7,2.2,6.1.9,9.1-2.2,4.7-5.5,12.8-4.1,15.1,2.1,3.3,3.6,4.2,3.6,4.2l-2,1.5v.2Z"/>
    <path class="st3" d="M533.1,239.9c-.3-2.1-1.8-3.8-3.8-4.4,0,0,.4-.1,1,0,.8.2,1.5.7,2,1.3s.9,1.3,1,2.1c0,.6,0,1-.2,1h0Z"/>
    <path class="st1" d="M517.3,266.1c-.4-.9-1.4-1.4-2.4-1.1h.2c-.9-.2-1.8.3-2.1,1.2-.3.9,0,1.8.7,2.4.8.6,1.9.7,2.7.2.8-.6,1.2-1.6.8-2.6h0Z"/>
    <path class="st2" d="M516.9,268.3c.3-.3.4-.8.4-1.2s0-.9-.3-1.4c-.4-.4-.9-.6-1.5-.7-.6,0-1.1,0-1.6.3-.4.2-.7.6-.8,1.1,0,.4,0,.9.3,1.3,0,0-.2,0-.3-.2-.2-.3-.3-.7-.3-1.1,0-.6.4-1.1.8-1.5.6-.4,1.3-.6,2-.5.7,0,1.4.4,1.8.9.3.5.3,1.1.2,1.6,0,.4-.2.7-.4,1-.3.2-.4.2-.4.2v.2Z"/>
    <g class="st14">
      <path class="st3" d="M565.8,258.3c-2.8-9.1-10.9-15.5-20.4-16.2l-3.5-.2c-.6,0-1.2,0-1.8.2s-1,.8-.9,1.4c0,.7.9,1,1.6,1.2,4,1.1,8.2.9,12.1,2.2,7.7,2.7,12,10.9,9.9,18.7-.2.6-.3,1.2-.3,1.8s.5,1.1,1.1,1.2c.6,0,1.1-.4,1.4-.9,2-2.6,1.8-6.4.8-9.5h0Z"/>
    </g>
    <path class="st1" d="M530.8,266.7s-.5,0-1.1-.2c-1.7-.8-2.6-2.8-2-4.6.2-.7.5-1,.6-.9s0,.4-.2,1c-.3,1.6.4,3.3,1.8,4.2.5.4,1,.5.9.6h0Z"/>
    <path class="st1" d="M528.3,283.1c-.9-1.7-.5-3.8.9-5.1,0,.1-.6,1.1-.8,2.5s0,2.5,0,2.6h0Z"/>
    <path class="st2" d="M436.9,316.3c.6-.2,43,1.9,56.8,3.1s37.6,7.7,38.8,23.9c1,13,.8,103.6.8,103.6h-37l-.9-95.8-57.5-14.5-1-20.3Z"/>
    <g class="st9">
      <path d="M467.2,322.4s20.6,3.7,37.1,8.4c16.5,4.7,23.7,14.7,26.1,20.6s3.5,14.8-1.5,23.2c-3.2,5.3-19.2,23.9-19.2,23.9,0,0-3.3-53.3-3.5-54.1s-39-21.9-39-21.9h0Z"/>
    </g>
    <path class="st2" d="M528.6,357.5c-1.7-10.3-13.4-17.5-27.6-22.8-14.1-5.3-50.9-18.4-50.9-18.4l-8.8-2.2h-3.9l-1.3-3.9s-25-7.2-61.1,6.1l-1.2,1s-1.1,26.3,4,32c0,0,57.5-.8,60.5-.6s45.2,19.4,45.2,19.4l-36.1,55.4,29.9,20.9s18-25.7,29-41c15.7-22,24.5-33.8,22.4-45.9h-.1Z"/>
    <path class="st11" d="M528.6,357.5s0,.6.2,1.8c.2,1.8,0,3.6-.2,5.4-.5,2.9-1.4,5.7-2.6,8.3-1.7,3.6-3.6,7-5.8,10.4-4.8,7.5-11.3,16.2-18.4,26.5l-24.4,34.6v.2c-.1,0-.3-.1-.3-.1l-29.9-20.8h-.2c0-.1.1-.3.1-.3,11.1-17,23.2-35.7,36.1-55.4v.4c-7.9-3.6-16.1-7.3-24.5-11-4.2-1.8-8.4-3.7-12.7-5.5-2.1-.9-4.3-1.8-6.5-2.5-.3,0-.5-.2-.8-.2s-.5-.1-.8-.1h-5.3c-18.9.1-37.2.4-54.9.6h-.2c-.9-1.2-1.5-2.5-1.9-3.9-.4-1.3-.8-2.7-1-4.1-.5-2.7-.8-5.4-1-8.2-.3-5.5-.4-10.8-.2-16.1h0v-.2l1.2-1h0c10.2-3.8,20.8-6.3,31.6-7.4,5.1-.5,10.2-.7,15.2-.5,4.9,0,9.8.7,14.5,1.8h.1c.4,1.5.9,2.8,1.3,4h-.2c0-.1,4-.1,4-.1l8.8,2.2h0l35.8,13,14.7,5.3c4.1,1.5,8.1,3.3,12,5.4,7,3.7,11.7,8.1,13.7,11.8.5.8.9,1.6,1.2,2.5.2.6.5,1.3.6,1.9.2,1,.3,1.6.3,1.6,0,0,0-.5-.4-1.6,0-.5-.4-1.1-.7-1.9,0-.4-.4-.8-.5-1.2-.2-.4-.4-.9-.7-1.3-2.1-3.6-6.8-7.9-13.7-11.6-3.9-2-7.9-3.8-12-5.3l-14.6-5.2-35.8-12.9h0l-8.8-2.2h-4c0-.1-1.4-4-1.4-4h.1c-4.7-1-9.5-1.6-14.3-1.7-5.1-.2-10.1,0-15.2.5-10.8,1.2-21.4,3.7-31.5,7.4h0l-1.2,1v-.2c0,5.2,0,10.6.3,16,.2,2.7.5,5.4.9,8.1.3,1.4.6,2.7,1,4s1,2.5,1.8,3.6h-.2c17.7-.3,36-.6,54.9-.7h5.3c.3,0,.6,0,.9.1.3,0,.6.2.9.3,2.2.8,4.4,1.7,6.5,2.6,4.3,1.8,8.5,3.6,12.7,5.5,8.4,3.7,16.6,7.3,24.6,11h.3c0,.1-.2.4-.2.4l-36.1,55.4v-.3l29.8,20.9h-.3l24.5-34.6c7.2-10.3,13.7-19,18.5-26.5,2.2-3.3,4.1-6.7,5.8-10.2,1.2-2.6,2.1-5.4,2.7-8.2.3-1.8.4-3.6.3-5.4,0-1.2-.2-1.8-.2-1.8l.4-.3Z"/>
    <path class="st11" d="M501.4,361.4c-.9.2-1.9.4-2.9.5-4.6.8-9,2.6-12.9,5.1-1.5,1-2.4,1.6-2.4,1.6.7-.7,1.4-1.4,2.2-1.9,1.9-1.4,4-2.5,6.2-3.4s4.5-1.5,6.8-1.8c1-.2,1.9-.2,2.9-.2h0Z"/>
    <polygon class="st8" points="494.9 270.4 494.9 273.5 487.1 274.3 486.7 272.6 488.8 267.8 494.9 270.4"/>
    <polygon class="st8" points="488.8 272.9 478.9 292.9 481.1 328.7 476.1 336.5 470.8 327.5 471.7 293.4 487.2 271.4 488.8 272.9"/>
    <path class="st6" d="M491.9,239.5s-14.1-5.3-27.7-6.2-30.4,8.2-38.5,11.8-38.8,34-45.4,44.1c-3.8,5.8-8.9,19-8.9,19-.9,4.6,2.3,9.1,2.3,9.1l61.9.5h11.6l4.9-10.5s9.4-.7,12.1-5.8,12.5-12.7,12.5-12.7l11.2-18.5,7.4,1.6,4.1-31.4-7.4-.9h-.1Z"/>
    <path class="st2" d="M446,253.6c0,.4-.1.7-.3,1.1-.2.8-.5,1.8-.9,2.9-.9,3.2-1.7,6.4-2.3,9.7-.6,3.3-1,6.6-1.2,9.9,0,1.2-.1,2.2-.2,3,0,.4,0,.7-.1,1.1,0-.4-.1-.7-.1-1.1v-3c0-3.4.4-6.7,1-10s1.4-6.5,2.4-9.7c.4-1.2.8-2.2,1-2.9.1-.4.3-.7.5-1h.2Z"/>
    <path class="st0" d="M473.1,376.9s4.2,4.9,5.6,6.7c1.2,1.6,2.4,7.5,2.8,13.2.1,1.1-.7,2.1-1.9,2.2h-.8c-.6-.2-1-.7-1.1-1.3-.9-4.1-1.1-5.9-1.1-5.9-.1-2-.3-1.7-.4-.4s1,8.8,1,8.8c0,0,2.9,10.2,2.1,11.3-.6.8-1.8,1-2.6.4-.1,0-.2-.2-.3-.3-.4-.5-3.6-9-3.6-9l-.9-4.6s1.7,14.7.7,15.8c-.5.7-1.5.9-2.2.5-.1,0-.3-.2-.4-.3-.6-.6-1.3-7.1-1.3-7.1l-1.5-8.6.3,16.5s-.2,1.6-1.4,1.6-2-1.8-2-1.8l-1.8-17s.6,9.5,0,10c-.9.7-1.6.4-1.9-.3-.6-1.5-1.4-10-1.4-10l-.8-16.2-.6-5.4,14.2-5.1,1.4,6.3h-.1Z"/>
    <g class="st9">
      <path d="M442.4,275.9c-4.4,13.6-7.5,27.6-9.3,41.8.2,5.1.8,10.3,1.8,15.3,1.6,8.1,14.9,43.2,14.9,43.2l9.1.8-7.7-62.3,7.7-29.1-16.5-9.6h0Z"/>
    </g>
    <path class="st6" d="M483.2,249.3c6.2,1.9,7.4,14.6,6.1,18.2-4.3,11.5-18,22.4-17.8,21.8l-8.9,35.4,12.6,48-20.4,7.3s-18.6-49.3-19-57,5.2-27.8,6-39.9c.5-7.7,4.4-23.4,14-32.6"/>
    <path class="st2" d="M455.7,250.4s-.1.2-.5.5-.8.8-1.4,1.5c-1.7,2-3.2,4.2-4.5,6.4-2,3.6-3.7,7.5-4.9,11.4-.8,2.5-1.4,5-1.9,7.6-.2,1.4-.5,2.8-.6,4.2s-.2,3-.4,4.5c-.7,6.1-2.1,12.8-3.4,19.9-.7,3.6-1.4,7.3-1.9,11.1-.3,1.9-.4,3.9-.3,5.8l.2,1.5.3,1.5c.2,1,.5,2,.8,3,1.1,3.9,2.4,7.9,3.8,12s2.8,8.2,4.3,12.5c3,8.5,6.2,17.2,9.5,26.1h-.3c0-.1,9.5-3.5,9.5-3.5l10.9-3.9-.2.3c-4.5-17.1-8.7-33.2-12.6-48h0c3.3-13.2,6.3-25.1,8.9-35.5h.4-.1c0-.1.2-.1.2-.1l.3-.3.6-.4,1.1-.9c.7-.6,1.4-1.2,2-1.8,1.3-1.2,2.6-2.5,3.7-3.7,2.2-2.3,4.2-4.8,6-7.5,1.6-2.3,2.9-4.8,3.9-7.4.5-2.3.6-4.6.2-7-.6-4.2-1.9-7.3-3.4-9-.8-.8-1.7-1.5-2.8-1.9,0,0,.3.1.8.3.3.1.6.3.9.6.4.3.8.6,1.1,1,1.6,1.6,3,4.8,3.6,9,.2,1.1.2,2.2.3,3.4,0,1.2,0,2.5-.4,3.7-1,2.6-2.2,5.2-3.9,7.5-1.8,2.7-3.8,5.2-6,7.5-1.2,1.2-2.4,2.5-3.7,3.7-.7.6-1.3,1.2-2,1.8-.4.3-.7.6-1.1.9l-.6.4-.3.2h-.2c0,.1-.1.1-.1.1h0c-.1,0-.2,0-.2-.2h.4c0,.1-8.9,35.6-8.9,35.6h0c0-.1,12.6,47.9,12.6,47.9v.2h-.2l-10.9,3.9-9.5,3.4h-.2c-3.4-9.1-6.5-17.8-9.5-26.2-1.5-4.2-2.9-8.4-4.3-12.5s-2.6-8.1-3.7-12.1c-.3-1-.6-2-.8-3-.1-.5-.2-1-.3-1.5s-.1-1-.2-1.5c-.1-2,0-4,.3-5.9.5-3.9,1.2-7.5,1.9-11.1,1.4-7.1,2.7-13.8,3.5-19.9.2-1.5.3-3,.4-4.5s.4-2.9.6-4.2c.5-2.6,1.1-5.1,1.9-7.6,1.2-4,2.9-7.8,5-11.4,1.3-2.3,2.8-4.4,4.6-6.4,1.2-1.3,1.9-1.9,1.9-1.9h-.2Z"/>
    <path class="st2" d="M488.9,257.5c-.1-.9-.1-1.8,0-2.7,0-2.1.3-4.3.6-6.4.3-2.1.7-4.2,1.3-6.3.2-.9.5-1.7.8-2.5,0,.9-.2,1.8-.5,2.6-.3,1.6-.8,3.8-1.1,6.3s-.6,4.7-.8,6.3c0,.9-.2,1.8-.4,2.6h.1Z"/>
    <g class="st9">
      <path d="M491.1,240.4c-.2,0-.4.1-.6.3-1.3,1.5-2.4,3.2-3.1,5.1-1.1,3.3,0,7,1.1,10.4.9,3.2,1.3,6.6,1,10l-.2,1.2c1.1-2.1,1.4-4.5.9-6.8s-.9-4.6-1.2-6.9c-.2-4.3,1.5-8.4,2.4-12.6,0-.2,0-.5-.2-.6h0Z"/>
    </g>
    <rect class="st6" x="415" y="334.3" width="6.4" height="45.6"/>
    <path class="st11" d="M323.9,304.6h0c1.2,2.8,4.2,4.3,7.2,3.4,14.9-4.1,30.7-4.3,45.7-.5,21.1,5.2,28.8,16.6,31.6,23.7,1.4,3.5,4.9,5.8,8.6,5.8h.9c3.3,0,6-2.7,6-6s0-.8-.1-1.2c-2.2-9.9-15.4-27.1-38.9-33.5-28.3-7.7-48-2.6-57.2.3-3.2,1-4.9,4.4-3.9,7.5,0,.1,0,.3.2.4h-.1Z"/>
    <path class="st2" d="M323.9,304.6s0-.2-.2-.6c-.5-1.6-.3-3.2.5-4.7.7-1.2,1.7-2.2,3-2.7,8.2-2.7,16.7-4.2,25.3-4.5,5.9-.2,11.9.1,17.7.9,1.6.2,3.2.5,4.8.8l4.9,1,5,1.2c1.7.5,3.4,1,5.1,1.6s3.4,1.2,5.1,2.1c.8.4,1.7.7,2.5,1.2l2.5,1.3c3.3,1.9,6.5,4.1,9.4,6.6,3,2.6,5.8,5.5,8.2,8.6l.9,1.2.9,1.3c.3.4.6.8.8,1.3l.8,1.3c1,1.8,1.9,3.7,2.5,5.7.1.5.3,1,.4,1.5s.1,1.1.1,1.6c-.2,3.3-3,5.9-6.4,5.8-2.1.1-4.1-.4-5.9-1.5-1.7-1.1-3-2.7-3.8-4.6-.7-1.8-1.6-3.5-2.7-5.1-.5-.8-1.1-1.6-1.6-2.3s-1.2-1.5-1.8-2.1c-2.5-2.7-5.3-5-8.4-6.9-3-1.8-6.1-3.3-9.3-4.6-3.1-1.1-6.2-2.1-9.4-2.8-5.7-1.3-11.6-2.1-17.5-2.3-8.5-.3-17.1.7-25.3,2.9-.7.2-1.4.4-2.1.4-1.7,0-3.3-.5-4.5-1.7s-1-1.2-1.3-2c.4.7.8,1.4,1.4,2s1.6,1.1,2.5,1.4c.6.2,1.2.2,1.8.2s1.4-.2,2.1-.4c8.3-2.3,16.9-3.3,25.4-3,5.9.1,11.8.9,17.6,2.2,3.2.7,6.4,1.6,9.5,2.8,3.3,1.2,6.5,2.8,9.4,4.6,3.2,1.9,6,4.3,8.5,7,.7.7,1.2,1.4,1.8,2.2s1.1,1.5,1.6,2.4c1.1,1.6,2,3.4,2.7,5.2.7,1.8,1.9,3.3,3.6,4.4,1.7,1,3.6,1.5,5.6,1.4,3.1,0,5.7-2.3,5.8-5.4,0-.5,0-1-.1-1.5s-.3-1-.4-1.5c-.6-1.9-1.4-3.8-2.4-5.6l-.7-1.3c-.3-.4-.6-.9-.8-1.3l-.9-1.2-.9-1.2c-2.4-3.1-5.1-6-8.1-8.5-2.9-2.5-6.1-4.6-9.4-6.5l-2.4-1.3c-.8-.5-1.7-.8-2.5-1.2-1.7-.8-3.3-1.4-5-2s-3.4-1.1-5-1.6l-5-1.2-4.9-1c-1.6-.3-3.2-.5-4.8-.8-5.8-.8-11.7-1.2-17.7-1-8.6.3-17,1.7-25.2,4.3-1.2.5-2.3,1.4-2.9,2.6-.5.8-.7,1.8-.8,2.8,0,.8,0,1.6.3,2.4v-.3Z"/>
    <path class="st3" d="M334.4,302.1c0,2.7-2.2,4.8-4.8,4.8s-4.8-2.2-4.8-4.8,2.2-4.8,4.8-4.8h0c2.7,0,4.8,2.1,4.8,4.8h0Z"/>
  </g>
  <g id="freepik--Desk--inject-2">
    <path class="st11" d="M620.9,269.9h22.8l-1.8,12.5s-1.5,6.2-5,6.2h-9.9c-2.5-1.5-4.2-3.9-4.8-6.8l-1.3-11.9h0Z"/>
    <path class="st2" d="M620.9,269.9v.4c0,.3,0,.6.2,1.1,0,1,.3,2.4.6,4.2s.5,3.9.8,6.4c.6,2.7,2.3,5,4.7,6.5h10c.7,0,1.3-.3,1.8-.8,1-1,1.8-2.2,2.3-3.6.2-.5.4-1.1.5-1.6h0c.6-4.4,1.2-8.6,1.7-12.5l.2.2h-21.1c0-.1-1.7-.1-1.7-.1h22.8c0-.1.2-.1.2-.1v.2c-.5,3.9-1.1,8.1-1.7,12.5h0c0,.6-.3,1.1-.5,1.7-.5,1.4-1.3,2.7-2.4,3.8-.6.5-1.3.8-2.1.9h-10.1c-2.5-1.5-4.2-3.9-4.8-6.7-.3-2.5-.5-4.7-.8-6.5s-.4-3.2-.5-4.2v-1.1c-.2-.2-.2-.3-.2-.5v-.2Z"/>
    <path class="st11" d="M641.9,276.3h.3s.2,0,0,0,0,0,0,0h.7c-.2,0,0,0,0,0h.4c0,.1.3.2.3.2,0,0,0,0,0,0h.2c.2.2.4.3.6.5,0,0,0,0,0,0h0c0,.2.2.3.3.4,0,0,.2.3,0,0,0,.1,0,.2.2.3s0,.2.2.3,0,0,0,0v.2c0,.1,0,.3,0,.4,0,0,0,.4,0,.2s0,.2,0,.2v.6s0,.2,0,0v.5s0,.4,0,.2c0,.2-.2.5-.4.7h0c0,.1,0,0,0,0s-.2.2-.3.3-.3.2-.2.1,0,0-.2.1l-.3.2h0c.2,0,0,0,0,0,0,0-.5.1-.8.2s0,0,0,0h-1.7c0-.1-.2-.2,0-.1s0,0,0,0c-.7-.4-1.5-.2-1.9.5s-.2,1.5.5,1.9c2.7,1.4,6.1.5,7.7-2.1.7-1.3,1-2.9.6-4.3-.3-1.4-1.2-2.7-2.5-3.5-1.4-.9-3.1-1.1-4.7-.7-.7.2-1.2,1-1,1.7s1,1.2,1.7,1h.3Z"/>
    <path class="st2" d="M641.9,276.3h-.5c-.5,0-.9-.3-1.2-.7-.4-.7-.2-1.6.5-2h0c.4-.2.9-.3,1.3-.3h1.5c1.2.2,2.3.7,3.1,1.5,1,.9,1.7,2.2,1.8,3.5.2,1.5-.2,3-1,4.3-.9,1.3-2.4,2.2-4,2.4-.7.1-1.4,0-2.1,0s-.7-.2-1-.3l-.5-.2c-.2,0-.3-.2-.5-.3-.5-.6-.5-1.5,0-2.1s1.3-.7,2-.3l-.3.2s0-.2.2-.2h0c0-.1,0,.3,0,.3h-.2c0-.4.3-.3.2-.3h.2c.2.1.4.2.6.2h0c0,0,0,0,0,.2s0,.1,0,.1h-.2s0,0,0-.2,0,0,0,0h1.1v.3h-.2v-.2h.5l.3-.2h0s0,.3,0,.3h0l-.2-.3.4-.2h.2q0-.1,0-.1h0v.2h0s0,0,0-.1v-.2h0c0,0,.2-.2.3-.3h0c0-.1.2-.1.2,0h0c0,.1-.3,0-.3,0,.2-.2.3-.5.5-.8h.3v.2h0s0,0,0-.2h0v-.3c0-.1,0-.3,0-.4h0v-.2c0-.1,0,0,0,0h0c0,.3-.4.3-.3.2h0v-1h0v-.2h0v.2h-.2v-.2c0-.2-.2-.5-.2-.7h.2c0,.1,0,.1,0,.1h0v-.3c0,0-.3-.4-.3-.4h.2c0-.1,0,0,0,0h0c0,.1,0,.1-.2.1h0c0-.1,0-.2,0-.2l-.3-.3v-.2h.2c-.2.3,0,0,0,.1h0l-.2-.2c0-.1-.3-.2-.5-.3v-.2h.2c0,.1.4.1.4.1h-.5c0-.1-.3-.1-.3-.1h0s0,0,0-.1h0c0,.1-.7.1-.7.1h-.2,0-.4c0,0,.2,0,.4-.1h0,.9c0,.1,0,.1,0,.1h0c0-.2,0-.1,0-.1h.8c0,.1.2.1.2.1,0,.3,0,.2,0,.2h0v-.2c.2,0,.4.2.6.3h.3c0,.1,0,.2,0,.2h0c0,.1,0,0,0,0h0v-.2c.2,0,.3.2.4.3,0,0,0,.1.2.2h0l.2-.2c0,.1.2.2.2.4v.2c0,0,.2,0,0,.1h0l.2-.2c0,.2.2.5.2.7h0v.2h.2,0v.9h0c0,.1-.3.1-.3.1,0,0,0,0,0,0,.2,0,0,0,0,0h0c0,.2,0,.4,0,.5v.2h0c-.4,0-.2,0-.3,0h.3c-.2.3-.3.6-.5.8l-.3-.2h0v.3c-.3.1-.4.2-.5.3h0q0-.1,0,0h-.2c0,.1-.4.3-.4.3l-.2-.3h.2c0,0,.2.4,0,.3h-.5c0,.1-.3.1-.3.1h0v-.3h0v.3h-1v-.2h0c0-.1,0-.1,0-.1h0c0,.2,0,.1,0,.1h0v.2h0c-.2,0-.4,0-.6-.1h0v-.2c0-.3,0-.1,0-.2h0v.2h0s0,0,0-.1h0v.2c-.6-.3-1.2-.2-1.6.2-.4.5-.4,1.1,0,1.6.2.2.5.4.8.5s.6.2,1,.3c.7.1,1.3.2,2,0,1.5-.2,2.9-1,3.8-2.2.8-1.2,1.2-2.6,1-4,0-1.3-.7-2.5-1.7-3.3-.8-.8-1.9-1.3-3-1.5-.9-.2-1.8,0-2.7.2-.3.2-.5.5-.6.8,0,.3,0,.6,0,.9.2.4.6.6,1,.7,0,.2.2.5.4.7l-.8.2Z"/>
    <path class="st2" d="M636.2,265.4c.3-.2.5-.5.7-.8.5-.8.7-1.8.4-2.8-.2-.6-.5-1.2-1.1-1.6-.5-.5-1.2-.9-1.9-1.4-.3-.3-.6-.7-.8-1-.2-.4-.3-.9-.2-1.4s.4-.9.7-1.2c.3-.4.7-.6,1-1,.3-.3.6-.7.8-1.1,0-.4,0-.9,0-1.3-.3-.8-.7-1.6-1.3-2.2-.6-.6-1-1.3-1.4-2-.2-.7-.3-1.4-.2-2.1,0-1,.6-2,1.4-2.6.2-.2.4-.3.7-.5h.3c-.3,0-.6.3-.9.6-.7.7-1.1,1.6-1.2,2.6,0,.7,0,1.4.2,2,.3.7.8,1.3,1.3,1.9.6.6,1.1,1.4,1.4,2.3,0,.5,0,1,0,1.4-.2.5-.5.9-.9,1.2-.7.7-1.5,1.2-1.7,2.1,0,.8.2,1.7.9,2.2.6.5,1.3.9,1.9,1.4.3.2.5.5.7.8s.3.6.4.9c.2,1,0,2.1-.5,2.9-.2.3-.5.6-.8.8h0Z"/>
    <path class="st2" d="M631.9,265.4c.3-.3.5-.5.7-.8.5-.8.7-1.8.4-2.8-.2-.7-.5-1.2-1.1-1.6-.5-.5-1.2-.9-1.9-1.4-.3-.3-.6-.7-.8-1-.2-.4-.3-.9-.2-1.4s.4-.9.7-1.2c.3-.4.7-.6,1-1,.3-.3.6-.7.8-1.1,0-.4,0-.9,0-1.3-.3-.8-.7-1.6-1.3-2.2-.6-.6-1-1.3-1.4-2-.2-.7-.3-1.4-.2-2.1,0-1,.6-2,1.4-2.6.2-.2.4-.3.7-.5,0,0,.2,0,.3-.1-.3.2-.6.4-.9.7-.7.7-1.1,1.6-1.3,2.6,0,.7,0,1.4.2,2,.3.7.8,1.3,1.3,1.9.6.6,1.1,1.4,1.4,2.3,0,.5,0,1,0,1.4-.2.5-.5.9-.9,1.2-.7.7-1.5,1.2-1.7,2.1,0,.8.2,1.7.9,2.2.6.5,1.3.9,1.9,1.4.3.2.5.5.7.8s.3.6.4.9c.2,1,0,2.1-.5,2.9-.2.3-.5.6-.8.8h.2Z"/>
    <rect class="st2" x="675.1" y="200.5" width="2.9" height="43.6" transform="translate(15.4 486.9) rotate(-40)"/>
    <rect class="st2" x="678.5" y="195.8" width="2.9" height="43.6" transform="translate(19.2 488) rotate(-40)"/>
    <rect class="st2" x="652.4" y="260.3" width="52.4" height="2.9" transform="translate(94.8 695.4) rotate(-57.7)"/>
    <rect class="st2" x="659.4" y="261.2" width="51.4" height="2.9" transform="translate(97 701.4) rotate(-57.7)"/>
    <path class="st2" d="M693.6,234.4l-4.4,5.9c-1.1,1.5-.9,3.6.4,4.9h0c1.1,1.1,2.8,1.3,4.2.6l5.9-3c1-.5,1.8-1.5,2-2.6v-.4c.3-1.3-.2-2.7-1.3-3.5l-3-2.4c-1.1-.9-2.8-.8-3.7.4h0q0,.1,0,.1Z"/>
    <path class="st11" d="M693.6,234.4s0-.1.2-.3c.3-.3.6-.5,1-.7.6-.2,1.3-.2,1.9,0,.4.1.7.3,1,.6l1,.8,1.1.9c.4.3.8.6,1.2,1,.8.9,1.2,2.1,1,3.3,0,1.3-.9,2.5-2.1,3.1l-3.6,1.8-1.8.9c-.6.4-1.3.6-1.9.7-2.2.2-4.1-1.4-4.3-3.5,0-.5,0-.9,0-1.4.2-.5.4-1,.7-1.4l.9-1.1,2.6-3.4c.3-.4.6-.8,1-1.2-.2.5-.5.9-.8,1.3l-2.5,3.5c-.6.7-1.1,1.5-1.5,2.4-.3,1,0,2.1.6,3,.7.9,1.9,1.4,3.1,1.3.6,0,1.2-.3,1.8-.6l1.8-.9,3.6-1.8c1.8-1,2.5-3.4,1.4-5.2,0-.2-.2-.3-.3-.5-.3-.4-.7-.7-1.1-1-.4-.3-.7-.6-1.1-.9l-1-.8c-.3-.2-.6-.4-.9-.6-.6-.2-1.2-.2-1.7,0s-.9.5-1.2.8h-.2Z"/>
    <path class="st2" d="M649.1,288.7s3.4-7.3,16.9-7.2h6.2s12.1,2.6,13.5,7.3h-36.6Z"/>
    <path class="st2" d="M657.5,198.8l2.8,11c0,.4.4.6.8.5,0,0,.3-.1.4-.2l8.3-8.5c.2-.3.2-.7,0-.9,0,0-.2-.1-.3-.1l-11.1-2.4c-.4,0-.7.2-.7.5v.2h-.2Z"/>
    <path class="st11" d="M657.5,198.8v-.3c0-.3.2-.5.5-.6h1.3c0,.1,1.6.5,1.6.5l4.4.9,2.6.6,1.4.3c.3,0,.6.2.8.5s0,.7,0,1h0l-3.7,3.8-4.6,4.7h0c-.3.4-.9.4-1.3.1,0,0-.2-.2-.3-.4,0-.5-.2-.9-.3-1.3-.2-.8-.4-1.6-.6-2.4-.4-1.5-.7-2.8-.9-3.9s-.4-1.9-.6-2.6c0-.3,0-.6,0-.9,0,.3.2.6.3.9.2.7.4,1.5.7,2.5s.7,2.4,1,3.9l.6,2.4.3,1.2c0,.2.3.3.5.2,0,0,0,0,.2-.1h0l4.6-4.7,3.7-3.8h0c0-.2,0-.5,0-.6,0,0-.2-.1-.3,0l-1.4-.3-2.6-.6-4.3-1-1.6-.4-.7-.2h-.5c-.2,0-.4.2-.5.5v.3-.2Z"/>
    <path class="st2" d="M649.3,230.1c5.5-7.4,8.6-14.8,8.1-22.5l-10.3-9.9c-10-3.3-23.8,7.2-23.8,7.2,0,0,3.4,18.5,26,25.2Z"/>
    <path class="st2" d="M662.9,190.4l.3.3c3,2.8,3.2,7.6.3,10.6l-9.3,9.9h0l-11.3-10.6h0l9.3-9.9c2.8-3,7.6-3.2,10.6-.3h.1Z"/>
    <path class="st11" d="M656.7,207.3c-.7,0-1.5,0-2.2-.4-1.7-.5-3.3-1.4-4.6-2.6-1.3-1.2-2.4-2.6-3.2-4.3-.3-.7-.6-1.4-.6-2.1.4.6.7,1.3,1,1.9.8,1.5,1.9,2.9,3.2,4.1,1.3,1.1,2.8,2,4.4,2.7,1.2.5,2,.6,2,.7h0Z"/>
    <path class="st11" d="M697.2,238c0,.5-.4.9-.9.9s-.9-.4-.9-.9.4-.9.9-.9h0c.5,0,.9.4.9.9Z"/>
    <path class="st11" d="M662.7,205.8c0,.5-.4.9-.9.9s-.9-.4-.9-.9.4-.9.9-.9h0c.5,0,.9.4.9.9Z"/>
    <path class="st11" d="M666.3,202.2c0,.5-.4.9-.9.9s-.9-.4-.9-.9.4-.9.9-.9h0c.5,0,.9.4.9.9Z"/>
    <path class="st11" d="M693.4,241.4c0,.5-.4.9-.9.9s-.9-.4-.9-.9.4-.9.9-.9h0c.5,0,.9.4.9.9Z"/>
    <polygon class="st6" points="656.5 305 656.2 466.3 505.8 466.3 505.8 304.5 496.1 304.5 496.1 466.3 496.1 475.3 505.8 475.3 656.2 475.3 665.9 475.3 665.9 466.3 666.2 305 656.5 305"/>
    <path class="st2" d="M656.5,305h9.7c0,21.5,0,83.1,0,170.3v.2h-170.2v-171.3h10.2v162.1l-.2-.2h150.5l-.2.2c.3-99.6.5-159.8.5-161.4v161.6h-150.9v-162l.3.3h-9.6l.3-.3v170.8l-.2-.2h169.8l-.2.2c.2-87.2.4-148.8.4-170.3h-10.1Z"/>
    <rect class="st7" x="477.2" y="288.7" width="218" height="17.4"/>
    <path class="st16" d="M531.9,288.4h-.6c-.4.2-.9.3-1.6.4-1.4.3-3.4.8-5.8,1.5s-5.3,1.7-8.4,2.8-6.6,2.4-10.3,3.5c-3.5,1.1-7,1.8-10.6,2.3-2.9.4-5.9.4-8.8,0-2-.2-3.9-.7-5.8-1.3-.5-.2-1-.4-1.5-.6-.3-.1-.5-.2-.5-.2,0,0,.2,0,.5.2s.9.4,1.5.5c1.9.6,3.8,1,5.8,1.2,2.9.3,5.9.3,8.8-.1,3.6-.5,7.1-1.3,10.6-2.3,3.7-1.1,7.1-2.4,10.3-3.5s6-2,8.4-2.7c1.9-.6,3.9-1,5.8-1.4.7-.1,1.2-.2,1.6-.3s.5,0,.5,0h0Z"/>
    <path class="st16" d="M643.1,304.5l-.2-.2c-.2-.2-.4-.5-.6-.7-.8-.9-1.8-1.6-2.9-2.2-1.7-.9-3.5-1.5-5.4-1.8-2.5-.4-5.1-.3-7.6.2-3,.6-6,1.4-9,2.3-3.4,1.1-6.9,1.9-10.4,2.2-1.9.1-3.9,0-5.8-.4-2-.4-3.9-1.1-5.7-1.9-3.8-1.6-7.4-3.9-11.4-5.5-8-3.2-16.6-3.5-24-2.5-6.6.9-13,2.7-19.2,5.1-5.3,2-9.5,4-12.4,5.3l-3.3,1.5c-.8.4-1.2.5-1.2.5,0,0,.4-.2,1.1-.6l3.3-1.6c2.9-1.3,7-3.3,12.3-5.4,6.2-2.5,12.6-4.2,19.2-5.2,7.4-1,16-.7,24.1,2.5,4,1.6,7.6,3.9,11.4,5.5,1.8.8,3.7,1.5,5.7,1.9,1.9.4,3.8.5,5.7.4,3.5-.3,7-1.1,10.4-2.1,3-.9,6-1.7,9-2.3,2.5-.5,5.1-.5,7.7-.1,1.9.3,3.8.9,5.5,1.9,1.1.6,2,1.4,2.9,2.3.3.3.6.6.9,1h0Z"/>
    <path class="st16" d="M694,294.1c-2.3.9-4.7,1.6-7.1,2.2-1.1.3-2.4.5-3.7.7s-2.8.4-4.3.6c-6.6.6-13.2.1-19.6-1.4-1.5-.4-2.9-.7-4.1-1.2s-2.5-.8-3.5-1.2c-2.3-.9-4.6-1.9-6.7-3.2.2,0,.3.1.5.2l1.3.6c.6.3,1.3.6,2.1,1s1.8.8,2.9,1.2,2.2.8,3.5,1.2,2.7.8,4.1,1.1c6.4,1.5,13,2,19.5,1.4,1.5-.2,2.9-.3,4.3-.5s2.5-.4,3.7-.7,2.1-.5,3-.7,1.6-.4,2.2-.6l1.4-.4c.2,0,.4-.1.5-.1v-.2Z"/>
    <rect class="st11" x="499.9" y="284.4" width="71.4" height="4.6" rx="2.3" ry="2.3"/>
    <path class="st11" d="M588.1,227l-16.7,60.1c-.4,1.3-1.7,2.1-3,1.7h0c-1.3-.4-2.1-1.7-1.7-3l16.7-60.1c.4-1.3,1.7-2.1,3-1.7h0c1.3.4,2.1,1.7,1.7,3h0Z"/>
    <path class="st2" d="M574.5,231.6c0,.1-4.8-4.3-10.5-9.8s-10.2-10-10.1-10.1,4.8,4.3,10.4,9.8,10.2,10,10.1,10.1h0Z"/>
    <path class="st2" d="M572.2,238.8c-.6-.2-1.1-.4-1.7-.6l-4.5-1.9c-3.8-1.6-9-3.7-14.8-6s-11.1-4.2-14.9-5.6l-4.6-1.7c-.6-.2-1.1-.4-1.6-.7.6.1,1.2.3,1.7.5,1.1.3,2.7.9,4.6,1.5,3.9,1.3,9.2,3.2,15,5.5s11,4.5,14.7,6.1c1.9.8,3.4,1.5,4.4,2,.6.3,1.1.5,1.6.9h0Z"/>
    <path class="st2" d="M571.3,246c-1.4.2-2.7.2-4.1,0-1.4,0-2.8-.1-4.1-.4,2.7-.2,5.5-.1,8.2.3h0Z"/>
  </g>
  <g id="freepik--Plant--inject-21" data-name="freepik--Plant--inject-2">
    <path class="st2" d="M693.1,446.8s-4.1-28.6-3.8-45.2,0-35.4,0-35.4h1.9s-1.3,33,0,52.9,5.1,27.6,5.1,27.6h-3.3"/>
    <path class="st11" d="M705.5,334.1c-.3-1-.9-1.9-1.7-2.5-1.2-.8-2.8-.5-4.2,0-5.8,2-10.9,12.8-13.3,18.5l7.7,25.9c13.9-12.8,16.3-29.7,11.5-41.9Z"/>
    <path class="st2" d="M703.3,332.6c0,.1,0,.2,0,.3,0,.2-.2.6-.4,1-.3.8-.8,2-1.4,3.5-1.1,2.9-2.6,7-3.9,11.7s-2.2,8.9-2.7,12c-.3,1.5-.5,2.8-.6,3.7,0,.4,0,.7-.2,1v.3-.4c0-.3,0-.6,0-1,0-.9.3-2.1.5-3.7.7-4,1.5-8,2.6-12s2.4-7.9,4-11.7c.6-1.5,1.1-2.6,1.5-3.4s.3-.7.4-.9c0-.1,0-.2,0-.4h.1Z"/>
    <path class="st11" d="M690.6,382.2c-7.1-4-11.6-11.5-11.9-19.7-.3-5.7,1.5-11.4,3.5-16.8,0-.5.4-.9.8-1.2.7-.3,1.4-.1,2,.3,5.2,3,8.4,8.7,10.1,14.5,1.2,3.8,1.6,7.9,1.2,11.9-.7,4.2-2.7,8.1-5.7,11.1"/>
    <path class="st2" d="M690.6,382.2v-1.4c0-.9,0-2.1,0-3.7-.2-4-.7-8-1.3-12-.8-4.6-1.8-8.8-2.5-11.8l-.9-3.6-.2-1v-.3c0,.1,0,.2,0,.3,0,.3.2.6.3,1,.2.8.6,2,1,3.5.8,3,1.8,7.1,2.6,11.8.7,4,1.1,8,1.2,12v4.7c0,.1,0,.3,0,.4h0Z"/>
    <g class="st9">
      <path d="M690.6,382.2c-7.1-4-11.6-11.5-11.9-19.7-.3-5.7,1.5-11.4,3.5-16.8,0-.5.4-.9.8-1.2.7-.3,1.4-.1,2,.3,5.2,3,8.4,8.7,10.1,14.5,1.2,3.8,1.6,7.9,1.2,11.9-.7,4.2-2.7,8.1-5.7,11.1"/>
    </g>
    <path class="st11" d="M698.7,426c7.1,1.6,12.9,6.6,19.8,9,4.5,1.6,9.6,2.2,13.2,5.3-.9-2.2-2.9-3.6-4.9-4.9-5.6-3.5-11.7-6.4-17.9-8.6-3.2-1.1-6.7-2-10-1.1"/>
    <path class="st11" d="M688.4,432.3c-8.9-.1-18.2-7.7-27.1-8.2,9.2-3,22.5-.5,27.1,8.2"/>
    <path class="st11" d="M691.9,411c4.6-1.5,9.5-1.9,14.2-1s9.4,2.1,13.9,3.8c-.5-3.1-3-5.4-5.3-7.4-1.7-1.6-3.6-3-5.6-4.3-2-1.2-4.3-1.9-6.7-1.9-2.9.2-5.5,1.5-7.4,3.7-1.8,2-2.9,4.4-3.2,7.1"/>
    <path class="st11" d="M673.7,401.2c-5.6-4.8-14.1-4.3-21.4-4.1,11.8,5.6,22.9,12.6,33.2,20.7.3-5.2-4.7-10.5-11.8-16.5h0Z"/>
    <g class="st9">
      <path d="M673.7,401.2c-5.6-4.8-14.1-4.3-21.4-4.1,11.8,5.6,22.9,12.6,33.2,20.7.3-5.2-4.7-10.5-11.8-16.5h0Z"/>
    </g>
    <path class="st11" d="M694.4,394.6c2.7-1.9,5.6-3.6,8.6-5,3-1.3,5.7-3.5,8.5-5,3.7-2,6.9-4.8,10.3-7.2s7.1-4.7,11.2-5.4c-3.4-.6-6.9-.4-10.2.6s-6.5,2.2-9.6,3.7c-4.4,2-8.8,4-12.4,7.2s-6.8,6.3-6.4,11.1"/>
    <path class="st2" d="M718.3,432.3h-.3c0-.1-.8-.5-.8-.5-.7-.4-1.6-.9-2.8-1.5s-1.3-.6-2-1-1.5-.7-2.3-1.1c-1.8-.8-3.6-1.4-5.5-1.9s-3.8-.6-5.7-.1c-.8.2-1.6.4-2.4.7-.7.3-1.3.6-1.9,1-.9.6-1.7,1.2-2.5,2s-.8.9-.8.9c0,0,0-.2.2-.3.2-.2.3-.5.5-.7.7-.8,1.5-1.5,2.4-2.1.6-.4,1.3-.8,2-1,.8-.3,1.6-.6,2.5-.8,1.9-.4,3.9-.4,5.8.1,1.9.5,3.7,1.1,5.5,1.9.8.4,1.6.7,2.3,1.1s1.4.7,2,1c1.2.6,2.1,1.2,2.8,1.6l.7.5c0,.2.2.2.2.2h0Z"/>
    <path class="st2" d="M681.9,427.9c.2,0,.4,0,.6.2.5.2,1,.4,1.4.6,1.6.8,3,1.8,4.2,3,1.3,1.2,2.3,2.6,3.2,4.1.3.5.5.9.7,1.4,0,.2,0,.4.2.5,0,0-.4-.7-1.1-1.9-1.8-2.9-4.3-5.4-7.3-7-1.2-.7-2-1-1.9-1h0Z"/>
    <path class="st2" d="M662.2,400.7c0,0,.3,0,.4.1l1.1.4,1.7.6c.6.2,1.4.6,2.2,1,4.2,1.9,8.1,4.4,11.6,7.4,1.9,1.6,3.7,3.4,5.4,5.3,1.4,1.5,2.6,3.2,3.8,4.8,1,1.4,1.8,2.6,2.3,3.5l.6,1c0,.1,0,.2.2.3,0,0-.2-.2-.2-.3,0-.2-.4-.5-.7-.9-.6-.8-1.4-2-2.4-3.4s-2.3-3-3.9-4.8c-1.7-1.9-3.5-3.6-5.4-5.3-3.5-3-7.3-5.5-11.5-7.5-.8-.4-1.5-.7-2.1-1l-1.7-.7-1-.4c0,0-.3-.1-.4-.2h0Z"/>
    <path class="st2" d="M705.2,406h-1.5c-.3-.2-.7-.2-1.1-.2-2.1-.2-4.2.2-6.1,1.2-1,.5-2,1.2-2.8,2.1-.7.7-1.3,1.4-1.8,2.2-.5.7-.9,1.5-1.2,2.3,0-.2,0-.5.2-.7.2-.6.5-1.2.9-1.8.5-.8,1.1-1.6,1.8-2.3.8-.9,1.8-1.6,2.8-2.1,1.9-1,4.1-1.4,6.3-1.1.4,0,.8,0,1.1.2l.8.2c.2,0,.5.1.7.2v-.2Z"/>
    <path class="st2" d="M714.2,378.3s-.2.2-.3.2l-1,.5c-.9.5-2.1,1.1-3.6,2s-3.3,2-5.1,3.3c-2,1.4-4,3-5.7,4.8-.9.9-1.7,1.9-2.4,3-.6,1.1-1.1,2.2-1.6,3.2-.9,1.8-1.7,3.7-2.5,5.6-.5,1.3-.9,2.6-1.2,4,0,.5-.2,1-.3,1.5v-.4c0-.3,0-.6.2-1.1.3-1.4.7-2.7,1.1-4,.7-1.9,1.5-3.8,2.4-5.7.5-1,1.1-2.1,1.6-3.2.7-1.1,1.5-2.2,2.4-3.1,1.8-1.8,3.7-3.4,5.8-4.8,1.9-1.3,3.7-2.4,5.2-3.3s2.8-1.5,3.7-2l1-.5h.4-.1Z"/>
    <path class="st2" d="M689.3,405.2c0-.2,0-.5-.2-.8,0-.5-.2-1.2-.4-2-.8-4.5-2.2-8.9-4.2-13l-.9-1.9c0-.2-.2-.5-.3-.7.2.2.3.4.4.7.2.4.6,1.1,1,1.9,1,2.1,1.9,4.2,2.6,6.4.7,2.2,1.2,4.4,1.6,6.7,0,.9.2,1.6.3,2.1v.8-.2Z"/>
    <path class="st11" d="M688.6,385c-.3-3.4-1.3-6.6-2.9-9.6-4.4-8.2-12.3-14.1-21.5-16l19.9,29.6,2.6,5.3c1.6-2.8,2.3-6.1,1.9-9.3Z"/>
    <rect class="st4" x="666.1" y="436.6" width="55.9" height="9.9"/>
    <polygon class="st4" points="670.3 444.5 677.8 475.3 712.2 475.3 717.8 444.5 670.3 444.5"/>
    <path class="st2" d="M722,446.5c0,.1-12.6.2-28.2.2s-28.2,0-28.2-.2,12.6-.2,28.2-.2,28.2,0,28.2.2Z"/>
  </g>
  <rect class="st5" x="433.7" y="36.3" width="180.5" height="181.4"/>
  <line class="st5" x1="433.1" y1="182.9" x2="403.1" y2="182.9"/>
  <line class="st5" x1="705" y1="182.9" x2="675" y2="182.9"/>
  <line class="st5" x1="450.6" y1="182.1" x2="420.6" y2="182.1"/>
  <line class="st5" x1="705" y1="182.1" x2="675" y2="182.1"/>
</svg>