<?xml version="1.0" encoding="UTF-8"?>
<svg id="Layer_1" data-name="Layer 1" xmlns="http://www.w3.org/2000/svg" viewBox="0 0 1399.28 1399.28">
  <defs>
    <style>
      .cls-1 {
        fill: #f95738;
      }

      .cls-2 {
        fill: #e9d758;
      }

      .cls-3 {
        fill: #27187e;
      }

      .cls-4 {
        fill: #64b6ac;
      }
    </style>
  </defs>
  <path class="cls-3" d="M285.69,1084.5v-318.38l-138.44,15.53v-78.33l231.4,39.27,111.16,18.16c74.45,12.13,132.82,70.51,144.96,144.96l29.2,178.79h-378.28Z"/>
  <path class="cls-1" d="M1117.21,314.78v320.1l134.81-9.37v72.17l-231.4-39.27-111.16-18.16c-74.45-12.13-132.82-70.51-144.96-144.96l-29.2-180.52h381.91Z"/>
  <path class="cls-4" d="M1117.21,1084.5h-350.46l16.32,163.78h-79.12l39.27-231.4,18.16-111.16c12.13-74.45,70.51-132.82,144.96-144.96l210.88-29.2v352.94Z"/>
  <path class="cls-2" d="M285.69,314.78h347.34l-21.06-163.78h83.85l-39.27,231.4-18.16,111.16c-12.13,74.45-70.51,132.82-144.96,144.96l-207.75,29.2v-352.94Z"/>
</svg>