<?xml version="1.0" encoding="UTF-8"?>
<svg id="Layer_1" data-name="Layer 1" xmlns="http://www.w3.org/2000/svg" xmlns:xlink="http://www.w3.org/1999/xlink" viewBox="0 0 864 841.89">
  <defs>
    <style>
      .cls-1 {
        fill: url(#linear-gradient-2);
      }

      .cls-2 {
        fill: url(#linear-gradient-10);
      }

      .cls-3 {
        fill: #c428c9;
      }

      .cls-4 {
        fill: #efd600;
      }

      .cls-5 {
        fill: url(#linear-gradient-4);
      }

      .cls-6 {
        fill: url(#linear-gradient-3);
      }

      .cls-7 {
        fill: url(#linear-gradient-5);
      }

      .cls-8 {
        fill: url(#linear-gradient-8);
      }

      .cls-9 {
        fill: url(#linear-gradient-7);
      }

      .cls-10 {
        fill: url(#linear-gradient-9);
      }

      .cls-11 {
        fill: #efd600;
      }

      .cls-12 {
        fill: url(#linear-gradient-6);
      }

      .cls-13 {
        fill: #c428c9;
      }

      .cls-14 {
        fill: #f34d01;
      }

      .cls-15 {
        fill: url(#linear-gradient);
      }

      .cls-16 {
        fill: #00aff2;
      }

      .cls-17 {
        fill: #0a5;
      }
    </style>
    <linearGradient id="linear-gradient" x1="-7524.98" y1="10847.12" x2="-7349.19" y2="10542.64" gradientTransform="translate(-6810.09 11071.24) rotate(-180)" gradientUnits="userSpaceOnUse">
      <stop offset="0" stop-color="#f34d01"/>
      <stop offset=".11" stop-color="#f34d01" stop-opacity=".98"/>
      <stop offset=".24" stop-color="#f34d01" stop-opacity=".92"/>
      <stop offset=".37" stop-color="#f34d01" stop-opacity=".83"/>
      <stop offset=".51" stop-color="#f34d01" stop-opacity=".7"/>
      <stop offset=".66" stop-color="#f34d01" stop-opacity=".53"/>
      <stop offset=".8" stop-color="#f34d01" stop-opacity=".32"/>
      <stop offset=".95" stop-color="#f34d01" stop-opacity=".09"/>
      <stop offset="1" stop-color="#f34d01" stop-opacity="0"/>
    </linearGradient>
    <linearGradient id="linear-gradient-2" x1="-7365.83" y1="10318.66" x2="-7365.83" y2="10486.05" gradientTransform="translate(-6810.09 11071.24) rotate(-180)" gradientUnits="userSpaceOnUse">
      <stop offset="0" stop-color="#f34d01"/>
      <stop offset=".09" stop-color="#f34d01" stop-opacity=".97"/>
      <stop offset=".22" stop-color="#f34d01" stop-opacity=".88"/>
      <stop offset=".39" stop-color="#f34d01" stop-opacity=".74"/>
      <stop offset=".58" stop-color="#f34d01" stop-opacity=".55"/>
      <stop offset=".78" stop-color="#f34d01" stop-opacity=".3"/>
      <stop offset="1" stop-color="#f34d01" stop-opacity="0"/>
    </linearGradient>
    <linearGradient id="linear-gradient-3" x1="-7516.38" y1="10471.03" x2="-7184.21" y2="10471.03" gradientTransform="translate(-6810.09 11071.24) rotate(-180)" gradientUnits="userSpaceOnUse">
      <stop offset="0" stop-color="#00aff2"/>
      <stop offset=".11" stop-color="#00aff2" stop-opacity=".98"/>
      <stop offset=".23" stop-color="#00aff2" stop-opacity=".92"/>
      <stop offset=".37" stop-color="#00aff2" stop-opacity=".82"/>
      <stop offset=".52" stop-color="#00aff2" stop-opacity=".68"/>
      <stop offset=".67" stop-color="#00aff2" stop-opacity=".5"/>
      <stop offset=".83" stop-color="#00aff2" stop-opacity=".28"/>
      <stop offset=".99" stop-color="#00aff2" stop-opacity=".02"/>
      <stop offset="1" stop-color="#00aff2" stop-opacity="0"/>
    </linearGradient>
    <linearGradient id="linear-gradient-4" x1="-6967.54" y1="10457.38" x2="-7111.58" y2="10457.38" xlink:href="#linear-gradient-3"/>
    <linearGradient id="linear-gradient-5" x1="-7117.85" y1="10318.84" x2="-7117.85" y2="10673.13" gradientTransform="translate(-6810.09 11071.24) rotate(-180)" gradientUnits="userSpaceOnUse">
      <stop offset="0" stop-color="#c428c9"/>
      <stop offset=".01" stop-color="#c428c9" stop-opacity=".98"/>
      <stop offset=".5" stop-color="#c428c9" stop-opacity=".46"/>
      <stop offset=".84" stop-color="#c428c9" stop-opacity=".13"/>
      <stop offset="1" stop-color="#c428c9" stop-opacity="0"/>
    </linearGradient>
    <linearGradient id="linear-gradient-6" x1="-6921.26" y1="10781.75" x2="-7088.31" y2="10781.75" gradientTransform="translate(-6810.09 11071.24) rotate(-180)" gradientUnits="userSpaceOnUse">
      <stop offset="0" stop-color="#c428c9"/>
      <stop offset=".21" stop-color="#c428c9" stop-opacity=".73"/>
      <stop offset=".49" stop-color="#c428c9" stop-opacity=".42"/>
      <stop offset=".72" stop-color="#c428c9" stop-opacity=".19"/>
      <stop offset=".9" stop-color="#c428c9" stop-opacity=".05"/>
      <stop offset="1" stop-color="#c428c9" stop-opacity="0"/>
    </linearGradient>
    <linearGradient id="linear-gradient-7" x1="-7326.56" y1="10991.9" x2="-7245.96" y2="10852.3" gradientTransform="translate(-6810.09 11071.24) rotate(-180)" gradientUnits="userSpaceOnUse">
      <stop offset="0" stop-color="#efd600"/>
      <stop offset=".04" stop-color="#efd600" stop-opacity=".95"/>
      <stop offset=".31" stop-color="#efd600" stop-opacity=".62"/>
      <stop offset=".55" stop-color="#efd600" stop-opacity=".35"/>
      <stop offset=".75" stop-color="#efd600" stop-opacity=".16"/>
      <stop offset=".91" stop-color="#efd600" stop-opacity=".04"/>
      <stop offset="1" stop-color="#efd600" stop-opacity="0"/>
    </linearGradient>
    <linearGradient id="linear-gradient-8" x1="-6904.47" y1="10639.37" x2="-7202.37" y2="10811.36" gradientTransform="translate(-6810.09 11071.24) rotate(-180)" gradientUnits="userSpaceOnUse">
      <stop offset="0" stop-color="#efd600"/>
      <stop offset=".09" stop-color="#efd600" stop-opacity=".96"/>
      <stop offset=".24" stop-color="#efd600" stop-opacity=".85"/>
      <stop offset=".43" stop-color="#efd600" stop-opacity=".67"/>
      <stop offset=".66" stop-color="#efd600" stop-opacity=".42"/>
      <stop offset=".92" stop-color="#efd600" stop-opacity=".11"/>
      <stop offset="1" stop-color="#efd600" stop-opacity="0"/>
    </linearGradient>
    <linearGradient id="linear-gradient-9" x1="-7592.95" y1="10692.26" x2="-7419.69" y2="10692.26" gradientTransform="translate(-6810.09 11071.24) rotate(-180)" gradientUnits="userSpaceOnUse">
      <stop offset="0" stop-color="#0a5"/>
      <stop offset=".12" stop-color="#0a5" stop-opacity=".94"/>
      <stop offset=".31" stop-color="#0a5" stop-opacity=".79"/>
      <stop offset=".56" stop-color="#0a5" stop-opacity=".54"/>
      <stop offset=".85" stop-color="#0a5" stop-opacity=".19"/>
      <stop offset="1" stop-color="#0a5" stop-opacity="0"/>
    </linearGradient>
    <linearGradient id="linear-gradient-10" x1="-7148.22" y1="10841.46" x2="-7399.08" y2="10841.46" xlink:href="#linear-gradient-9"/>
  </defs>
  <g>
    <path class="cls-15" d="M505.61,509.26c5.91-44.11,21.43-86.35,45.66-123.9,1.84-2.85,3.72-5.67,5.66-8.47.12-.15.22-.32.34-.47.54-.79,1.09-1.57,1.65-2.34.77-1.11,1.57-2.21,2.37-3.3.93-1.3,1.89-2.59,2.86-3.87.89-1.2,1.82-2.41,2.74-3.59.49-.64.99-1.28,1.5-1.92.29-.37.57-.74.89-1.09.62-.81,1.28-1.62,1.94-2.42,1.03-1.26,2.07-2.53,3.11-3.77.77-.93,1.57-1.85,2.36-2.76.39-.45.79-.93,1.2-1.38,1.03-1.2,2.07-2.37,3.13-3.54.54-.61,1.08-1.21,1.63-1.8.12-.13.25-.27.39-.4.71-.79,1.43-1.58,2.17-2.36,1.25-1.33,2.51-2.64,3.77-3.94,13.81-14.23,28.99-27.09,45.37-38.4l90.9-69.42c10.59,16.06,19.9,33.03,27.8,50.8l-85.09,64.99-.59.42c-1.33.91-2.64,1.84-3.94,2.78-1.82,1.28-3.62,2.61-5.39,3.96-14.68,11.1-28.05,23.81-39.9,37.9-2.96,3.52-5.83,7.12-8.55,10.78-.71.93-1.4,1.87-2.09,2.81-26.87,36.82-42.87,80.02-46.5,125.2-6.01-2.91-12.11-5.62-18.3-8.13-12.17-4.92-24.55-9.04-37.09-12.34Z"/>
    <path class="cls-1" d="M504.99,585.19c5.45,1.78,10.86,3.75,16.21,5.93,17.06,6.92,33.27,15.73,48.37,26.25,1.06,3.75,2.22,7.49,3.47,11.21l33.44,99.55c-16.58,9.51-34.01,17.71-52.16,24.45l-35.54-105.77c-6.73-20.09-11.36-40.74-13.79-61.62Z"/>
  </g>
  <path class="cls-14" d="M692.48,508.97c3.45-10.64,14.88-16.47,25.52-13,10.64,3.45,16.47,14.88,13,25.52-3.45,10.64-14.88,16.47-25.52,13-10.64-3.45-16.45-14.88-13-25.52Z"/>
  <g id="_Radial_Repeat_" data-name="&amp;lt;Radial Repeat&amp;gt;">
    <path class="cls-1" d="M504.99,585.19c5.45,1.78,10.86,3.75,16.21,5.93,17.06,6.92,33.27,15.73,48.37,26.25,1.06,3.75,2.22,7.49,3.47,11.21l33.44,99.55c-16.58,9.51-34.01,17.71-52.16,24.45l-35.54-105.77c-6.73-20.09-11.36-40.74-13.79-61.62Z"/>
    <path class="cls-14" d="M692.48,508.97c3.45-10.64,14.88-16.47,25.52-13,10.64,3.45,16.47,14.88,13,25.52-3.45,10.64-14.88,16.47-25.52,13-10.64-3.45-16.45-14.88-13-25.52Z"/>
  </g>
  <path class="cls-6" d="M377.3,520.05c16.92-2.9,34.01-4.34,51.1-4.34,25.36,0,50.71,3.18,75.49,9.56,13.12,3.38,26.08,7.64,38.81,12.8,5.93,2.39,11.77,4.98,17.53,7.76,18.67,8.97,36.4,19.85,52.9,32.48l91.78,63.36,1.38.94c-12.09,15.1-25.41,29.19-39.78,42.11l-87.08-60.12-.57-.44c-3.05-2.34-6.13-4.6-9.28-6.79-15.1-10.52-31.32-19.33-48.37-26.25-5.35-2.17-10.76-4.14-16.21-5.93-42.5-13.89-87.57-15.96-130.87-6.15,2.59-17.02,4.6-38.32,3.18-59Z"/>
  <path class="cls-5" d="M157.45,642.23l.79-.59,88.88-65.97c17.02-12.61,35.24-23.39,54.36-32.16-.02,5.72-.24,11.5-.64,17.26-1.3,18.32-4.65,36.47-10.02,54.11-3.25,2.17-6.45,4.43-9.6,6.77l-84.28,62.53c-14.28-12.86-27.49-26.9-39.5-41.96Z"/>
  <path class="cls-16" d="M411.65,718.55c0-11.2,9.07-20.25,20.25-20.25s20.25,9.06,20.25,20.25-9.06,20.25-20.25,20.25-20.25-9.08-20.25-20.25Z"/>
  <path class="cls-7" d="M301.49,543.52c.08-45.93-12.56-90.61-36.5-129.49,15.25-1.89,35.63-6.21,56.94-15.93,27.54,50.63,40.19,108.22,36.01,166.71-1.9,27.02-7.46,53.74-16.5,79.42l-32.28,108.16-52.38-24.68,30.22-101.22.24-.69c1.28-3.62,2.48-7.26,3.59-10.91,5.37-17.64,8.72-35.79,10.02-54.11.4-5.76.62-11.53.64-17.26Z"/>
  <path class="cls-12" d="M111.17,280.47c7.86-17.66,17.16-34.55,27.71-50.53l91.96,65.43c17.22,12.26,33.1,26.25,47.38,41.72-5.45,1.77-10.99,3.35-16.6,4.75-17.8,4.44-36.11,6.85-54.57,7.19-3.06-2.41-6.2-4.75-9.39-7.02l-86.49-61.54Z"/>
  <path class="cls-3" d="M145.82,495.97c10.64-3.47,22.06,2.36,25.52,13,3.45,10.64-2.37,22.07-13.01,25.52-10.64,3.47-22.07-2.36-25.52-13-3.45-10.64,2.37-22.07,13.01-25.52Z"/>
  <path class="cls-9" d="M437.81,176.03l31.94-101.79c19.38,2.05,38.3,5.71,56.6,10.81l-33.94,108.19c-5.12,16.3-11.58,32.09-19.29,47.21-20.47-22.8-30.66-48.81-35.31-64.42Z"/>
  <path class="cls-8" d="M81.16,408.98c.79-19.6,3.18-38.79,7.07-57.43l106.59-2.56.72.02c3.84.1,7.68.12,11.5.02,18.45-.34,36.77-2.74,54.57-7.19,5.61-1.4,11.15-2.98,16.6-4.75,42.9-13.84,80.81-38.94,110.18-72.72,8.72,17.71,24.01,36.4,33.99,47.66-39.53,41.62-90.24,71.29-146.97,85.36-26.28,6.52-53.39,9.51-80.65,8.86l-113.61,2.73Z"/>
  <path class="cls-11" d="M247.05,169.88c9.04-6.58,21.72-4.58,28.29,4.48,6.58,9.04,4.58,21.72-4.48,28.28-9.04,6.58-21.72,4.58-28.29-4.48-6.58-9.04-4.58-21.72,4.48-28.29Z"/>
  <g>
    <path class="cls-10" d="M609.59,401.72c2.73-3.65,5.59-7.26,8.55-10.78,11.85-14.09,25.22-26.8,39.9-37.9,1.77-1.35,3.57-2.68,5.39-3.96,1.84,0,3.7-.03,5.54-.08l.72-.02,106.09,2.54c3.89,18.64,6.28,37.83,7.07,57.43l-113.11-2.71c-20.22.49-40.37-1.04-60.16-4.53Z"/>
    <path class="cls-2" d="M338.12,84.91c18.32-5.07,37.24-8.7,56.64-10.72l31.97,101.89c1.18,3.74,2.42,7.44,3.79,11.11,6.33,17.32,14.58,33.84,24.6,49.25,3.13,4.85,6.43,9.56,9.87,14.16,30.61,40.74,72.78,70.83,121.32,86.49.89.29,1.78.57,2.68.84-1.26,1.3-2.53,2.61-3.77,3.94-.74.77-1.46,1.57-2.17,2.36-.13.13-.27.27-.39.4-.56.59-1.09,1.2-1.63,1.8-1.06,1.16-2.1,2.34-3.13,3.54-.4.45-.81.93-1.2,1.38-.79.91-1.58,1.84-2.36,2.76-1.04,1.25-2.09,2.51-3.11,3.77-.66.81-1.31,1.62-1.94,2.42-.32.35-.61.72-.89,1.09-.51.64-1.01,1.28-1.5,1.92-.93,1.18-1.85,2.39-2.74,3.59-.98,1.28-1.94,2.58-2.86,3.87-.81,1.09-1.6,2.19-2.37,3.3-.56.77-1.11,1.55-1.65,2.34-.12.15-.22.32-.34.47-1.94,2.79-3.82,5.62-5.66,8.47-46.38-18.13-87.4-47.26-119.76-85.06-8.81-10.27-16.97-21.18-24.43-32.7-3.49-5.37-6.79-10.84-9.92-16.42-10.3-18.33-18.71-37.75-25.05-57.95l-33.99-108.33Z"/>
  </g>
  <path class="cls-17" d="M589.19,174.36c6.58-9.06,19.24-11.06,28.3-4.48,9.04,6.57,11.04,19.24,4.48,28.29-6.58,9.06-19.24,11.06-28.3,4.48-9.04-6.57-11.06-19.24-4.48-28.28Z"/>
  <path class="cls-14" d="M637.22,490.86c-2.76,8.27-.55,16.63,5.89,22.36l.33.31,92.04,67.07c-5.92,11.41-12.52,22.54-19.7,33.21l-95.91-69.91-.42-.33c-19.23-15.81-26.56-41.28-18.7-64.86,7.88-23.65,29.06-39.62,54.1-40.71l.5-.03,117.32,1.82-3.9,38.38-112.43-1.74h-.47l-.47.03c-8.62.74-15.42,6.11-18.18,14.4Z"/>
  <path class="cls-16" d="M522.43,752.98c-12.35,3.38-25,6.08-37.74,8.06l-33-107.18-.33-.89c-3.35-7.93-10.56-12.74-19.15-12.83h-.55c-8.51,0-15.61,4.65-19.06,12.54l-.19.42-35.14,107.63c-12.71-2.05-25.34-4.83-37.72-8.29l36.67-112.36.19-.52c9.03-23.01,30.78-37.86,55.45-37.86h.49c24.85.19,46.56,15.34,55.34,38.61l.47,1.35,34.27,111.33Z"/>
  <path class="cls-13" d="M243.69,544.11l-1.13.86-95.46,67.14c-7.13-10.73-13.67-21.88-19.5-33.29l92.09-64.77.74-.58c6.52-5.64,8.87-13.98,6.24-22.35-2.65-8.31-9.34-13.78-17.91-14.64l-.47-.05-113.93-.16c-1.96-12.69-3.23-25.56-3.76-38.43l118.93.16.55.03c24.86,1.49,45.76,17.79,53.25,41.51,7.49,23.71-.22,49.04-19.64,64.55Z"/>
  <path class="cls-4" d="M327.26,281.07c-20.22,14.43-46.65,14.94-67.42,1.3l-1.14-.83-94.3-70.73c7.99-10.05,16.58-19.7,25.65-28.8l90.93,68.22.78.52c7.38,4.47,16.03,4.11,23.16-.97,7.08-5.08,10.22-13.12,8.4-21.55l-.11-.45-35.23-108.9,35.43-15.39,36.72,113.52.16.58c6.25,24.1-2.79,49.02-23.04,63.49Z"/>
  <path class="cls-17" d="M699.82,211.05l-93.98,70.49-1.14.83c-20.76,13.63-47.2,13.12-67.42-1.3-20.23-14.46-29.27-39.37-23.04-63.44l.14-.53,36.89-114.09c12.07,4.5,23.91,9.69,35.37,15.51l-35.18,108.81-.25.92c-1.8,8.43,1.35,16.49,8.42,21.52,7.08,5.08,15.75,5.45,23.16.99l.41-.25,90.99-68.27c9.07,9.11,17.66,18.74,25.64,28.8Z"/>
</svg>