<svg width="202" height="203" viewBox="0 0 202 203" fill="none" xmlns="http://www.w3.org/2000/svg">
<g clip-path="url(#clip0_7_244)">
<path d="M167.089 82.4863C162.712 45.4191 131.097 16.6676 92.7536 16.6676C54.4098 16.6676 22.8047 45.4191 18.4181 82.4863C18.0639 85.385 17.8914 88.3381 17.8914 91.3364C17.8914 94.7152 18.1184 98.0397 18.5544 101.301C19.7441 110.223 22.5232 118.648 26.5919 126.284C30.1701 133.033 34.7656 139.165 40.1784 144.473C42.9302 147.191 45.9 149.7 49.0605 151.965C61.3483 160.797 76.4425 166.005 92.7536 166.005H127.792V154.374H146.092V184.82H86.587C67.7874 183.597 50.5045 176.776 36.4185 166.005C31.0057 161.884 26.0651 157.164 21.6876 151.965C19.6623 149.573 17.7642 147.073 16.0023 144.473C12.1425 138.83 8.90936 132.734 6.37551 126.284C3.27857 118.421 1.23514 110.042 0.417768 101.301C0.136229 98.4111 0 95.4761 0 92.514C0 89.1262 0.181638 85.7745 0.544915 82.4863C5.54905 36.107 44.9282 0 92.7536 0C123.496 0 150.742 14.9102 167.616 37.8825C176.253 49.6222 182.165 63.4635 184.454 78.5006C184.862 81.1819 185.062 83.8994 185.035 86.6079C185.026 88.5555 184.971 90.5574 184.971 92.514V144.473H92.7536C76.7422 144.473 62.3837 137.435 52.6206 126.284C46.5176 119.318 42.2127 110.758 40.4236 101.301C39.797 98.0759 39.4791 94.7424 39.4791 91.3364C39.4791 88.32 39.7334 85.3669 40.2238 82.4863C44.4378 57.3491 66.3525 38.1995 92.7536 38.1995C101.336 38.1995 109.437 40.2195 116.621 43.8158C134.24 52.6296 145.129 70.8734 145.401 90.5302L145.202 101.301H59.1687C63.4735 115.74 76.8784 126.284 92.7536 126.284H167.616V91.3364M92.7536 56.3889C76.4697 56.3889 62.7833 67.4674 58.8599 82.4863H126.656C122.733 67.4674 109.047 56.3889 92.7536 56.3889Z" fill="white"/>
<path d="M172.596 160.817L159.701 173.679L189.101 203.003L201.996 190.141L172.596 160.817Z" fill="#EEC643"/>
</g>
<defs>
<clipPath id="clip0_7_244">
<rect width="202" height="203" fill="white"/>
</clipPath>
</defs>
</svg>
