<svg width="202" height="203" viewBox="0 0 202 203" fill="none" xmlns="http://www.w3.org/2000/svg">
<mask id="path-1-inside-1_394_2356" fill="white">
<path d="M167.089 82.4863C162.712 45.4191 131.097 16.6676 92.7536 16.6676C54.4098 16.6676 22.8047 45.4191 18.4181 82.4863C18.0639 85.385 17.8914 88.3381 17.8914 91.3364C17.8914 94.7152 18.1184 98.0397 18.5544 101.301C19.7441 110.223 22.5232 118.648 26.5919 126.284C30.1701 133.032 34.7656 139.165 40.1784 144.473C42.9302 147.191 45.9 149.7 49.0605 151.965C61.3483 160.797 76.4425 166.005 92.7536 166.005H127.792V154.374H146.092V184.82H86.587C67.7874 183.597 50.5045 176.776 36.4185 166.005C31.0057 161.884 26.0651 157.164 21.6876 151.965C19.6623 149.573 17.7642 147.073 16.0023 144.473C12.1425 138.83 8.90936 132.734 6.37551 126.284C3.27857 118.421 1.23514 110.042 0.417768 101.301C0.136229 98.4111 0 95.4761 0 92.514C0 89.1262 0.181638 85.7745 0.544915 82.4863C5.54905 36.107 44.9282 0 92.7536 0C123.496 0 150.742 14.9102 167.616 37.8825C176.253 49.6222 182.165 63.4635 184.454 78.5006C184.862 81.1819 185.062 83.8994 185.035 86.6079C185.026 88.5555 184.971 90.5574 184.971 92.514V144.473H92.7536C76.7422 144.473 62.3837 137.435 52.6206 126.284C46.5176 119.318 42.2127 110.758 40.4236 101.301C39.797 98.0759 39.4791 94.7424 39.4791 91.3364C39.4791 88.32 39.7334 85.3669 40.2238 82.4863C44.4378 57.3491 66.3525 38.1995 92.7536 38.1995C101.336 38.1995 109.437 40.2195 116.621 43.8158C134.24 52.6296 145.129 70.8734 145.401 90.5302L145.202 101.301H59.1687C63.4735 115.74 76.8784 126.284 92.7536 126.284H167.616V91.3364M92.7536 56.3889C76.4697 56.3889 62.7833 67.4674 58.8599 82.4863H126.656C122.733 67.4674 109.047 56.3889 92.7536 56.3889Z"/>
</mask>
<path d="M18.4181 82.4863L18.9144 82.547L18.9147 82.5451L18.4181 82.4863ZM18.5544 101.301L19.05 101.235L19.0499 101.234L18.5544 101.301ZM26.5919 126.284L27.0336 126.05L27.0331 126.049L26.5919 126.284ZM40.1784 144.473L40.5297 144.118L40.5285 144.116L40.1784 144.473ZM49.0605 151.965L49.3523 151.559L49.3517 151.558L49.0605 151.965ZM127.792 166.005V166.505H128.292V166.005H127.792ZM127.792 154.374V153.874H127.292V154.374H127.792ZM146.092 154.374H146.592V153.874H146.092V154.374ZM146.092 184.82V185.32H146.592V184.82H146.092ZM86.587 184.82L86.5545 185.319L86.5707 185.32H86.587V184.82ZM36.4185 166.005L36.7222 165.608L36.7214 165.607L36.4185 166.005ZM21.6876 151.965L22.0701 151.643L22.0692 151.642L21.6876 151.965ZM16.0023 144.473L16.4162 144.193L16.415 144.191L16.0023 144.473ZM6.37551 126.284L6.84088 126.101L6.84072 126.101L6.37551 126.284ZM0.417768 101.301L0.9156 101.254L0.915412 101.252L0.417768 101.301ZM0.544915 82.4863L1.04189 82.5412L1.04203 82.5399L0.544915 82.4863ZM167.616 37.8825L167.213 38.1785L167.213 38.1788L167.616 37.8825ZM184.454 78.5006L183.959 78.5758L183.959 78.5759L184.454 78.5006ZM185.035 86.6079L184.535 86.6029L184.535 86.6056L185.035 86.6079ZM184.971 144.473V144.973H185.471V144.473H184.971ZM52.6206 126.284L52.9968 125.955L52.9967 125.954L52.6206 126.284ZM40.4236 101.301L40.9149 101.208L40.9144 101.205L40.4236 101.301ZM40.2238 82.4863L40.7167 82.5702L40.7169 82.569L40.2238 82.4863ZM116.621 43.8158L116.397 44.2629L116.397 44.2629L116.621 43.8158ZM145.401 90.5302L145.901 90.5395L145.902 90.5314L145.901 90.5233L145.401 90.5302ZM145.202 101.301V101.801H145.693L145.702 101.31L145.202 101.301ZM59.1687 101.301V100.801H58.4979L58.6895 101.444L59.1687 101.301ZM167.616 126.284V126.784H168.116V126.284H167.616ZM58.8599 82.4863L58.3761 82.3599L58.2125 82.9863H58.8599V82.4863ZM126.656 82.4863V82.9863H127.304L127.14 82.3599L126.656 82.4863ZM167.089 82.4863L167.586 82.4277C163.179 45.1106 131.353 16.1676 92.7536 16.1676V16.6676V17.1676C130.842 17.1676 162.245 45.7276 166.593 82.5449L167.089 82.4863ZM92.7536 16.6676V16.1676C54.1543 16.1676 22.3377 45.1107 17.9216 82.4275L18.4181 82.4863L18.9147 82.5451C23.2717 45.7275 54.6652 17.1676 92.7536 17.1676V16.6676ZM18.4181 82.4863L17.9218 82.4257C17.565 85.3455 17.3914 88.3189 17.3914 91.3364H17.8914H18.3914C18.3914 88.3572 18.5628 85.4245 18.9144 82.547L18.4181 82.4863ZM17.8914 91.3364H17.3914C17.3914 94.7377 17.6199 98.0843 18.0588 101.367L18.5544 101.301L19.0499 101.234C18.6169 97.9951 18.3914 94.6928 18.3914 91.3364H17.8914ZM18.5544 101.301L18.0587 101.367C19.2565 110.35 22.0545 118.831 26.1506 126.519L26.5919 126.284L27.0331 126.049C22.9918 118.464 20.2316 110.097 19.05 101.235L18.5544 101.301ZM26.5919 126.284L26.1501 126.518C29.7526 133.312 34.3791 139.486 39.8283 144.83L40.1784 144.473L40.5285 144.116C35.1521 138.844 30.5876 132.753 27.0336 126.05L26.5919 126.284ZM40.1784 144.473L39.8271 144.829C42.5974 147.565 45.5872 150.091 48.7693 152.371L49.0605 151.965L49.3517 151.558C46.2128 149.309 43.2631 146.817 40.5297 144.118L40.1784 144.473ZM49.0605 151.965L48.7687 152.371C61.1388 161.262 76.3344 166.505 92.7536 166.505V166.005V165.505C76.5506 165.505 61.5579 160.332 49.3523 151.559L49.0605 151.965ZM92.7536 166.005V166.505H127.792V166.005V165.505H92.7536V166.005ZM127.792 166.005H128.292V154.374H127.792H127.292V166.005H127.792ZM127.792 154.374V154.874H146.092V154.374V153.874H127.792V154.374ZM146.092 154.374H145.592V184.82H146.092H146.592V154.374H146.092ZM146.092 184.82V184.32H86.587V184.82V185.32H146.092V184.82ZM86.587 184.82L86.6194 184.321C67.9213 183.104 50.7323 176.32 36.7222 165.608L36.4185 166.005L36.1148 166.402C50.2768 177.231 67.6535 184.089 86.5545 185.319L86.587 184.82ZM36.4185 166.005L36.7214 165.607C31.3382 161.508 26.4243 156.814 22.0701 151.643L21.6876 151.965L21.3051 152.287C25.7059 157.514 30.6731 162.259 36.1156 166.403L36.4185 166.005ZM21.6876 151.965L22.0692 151.642C20.0554 149.264 18.1681 146.778 16.4162 144.193L16.0023 144.473L15.5884 144.754C17.3604 147.368 19.2693 149.883 21.3061 152.288L21.6876 151.965ZM16.0023 144.473L16.415 144.191C12.5765 138.579 9.361 132.516 6.84088 126.101L6.37551 126.284L5.91013 126.467C8.45772 132.951 11.7085 139.081 15.5896 144.756L16.0023 144.473ZM6.37551 126.284L6.84072 126.101C3.76075 118.281 1.72851 109.948 0.915597 101.254L0.417768 101.301L-0.0800602 101.347C0.741767 110.136 2.79639 118.561 5.91029 126.467L6.37551 126.284ZM0.417768 101.301L0.915412 101.252C0.635528 98.3796 0.5 95.4608 0.5 92.514H0H-0.5C-0.5 95.4914 -0.36307 98.4426 -0.0798754 101.349L0.417768 101.301ZM0 92.514H0.5C0.5 89.144 0.680685 85.8107 1.04189 82.5412L0.544915 82.4863L0.0479387 82.4314C-0.317408 85.7384 -0.5 89.1083 -0.5 92.514H0ZM0.544915 82.4863L1.04203 82.5399C6.01895 36.4129 45.1853 0.5 92.7536 0.5V0V-0.5C44.6712 -0.5 5.07915 35.8011 0.0478002 82.4327L0.544915 82.4863ZM92.7536 0V0.5C123.33 0.5 150.429 15.3293 167.213 38.1785L167.616 37.8825L168.019 37.5865C151.054 14.4912 123.661 -0.5 92.7536 -0.5V0ZM167.616 37.8825L167.213 38.1788C175.803 49.855 181.683 63.6209 183.959 78.5758L184.454 78.5006L184.948 78.4254C182.647 63.3062 176.702 49.3894 168.019 37.5862L167.616 37.8825ZM184.454 78.5006L183.959 78.5759C184.364 81.2316 184.562 83.9222 184.535 86.6029L185.035 86.6079L185.535 86.6129C185.562 83.8766 185.361 81.1322 184.948 78.4252L184.454 78.5006ZM185.035 86.6079L184.535 86.6056C184.526 88.5228 184.471 90.5709 184.471 92.514H184.971H185.471C185.471 90.5439 185.526 88.5881 185.535 86.6102L185.035 86.6079ZM184.971 92.514H184.471V144.473H184.971H185.471V92.514H184.971ZM184.971 144.473V143.973H92.7536V144.473V144.973H184.971V144.473ZM92.7536 144.473V143.973C76.892 143.973 62.6687 137.001 52.9968 125.955L52.6206 126.284L52.2444 126.613C62.0987 137.868 76.5924 144.973 92.7536 144.973V144.473ZM52.6206 126.284L52.9967 125.954C46.9507 119.054 42.6869 110.574 40.9149 101.208L40.4236 101.301L39.9323 101.394C41.7386 110.941 46.0845 119.582 52.2445 126.613L52.6206 126.284ZM40.4236 101.301L40.9144 101.205C40.2941 98.0128 39.9791 94.7113 39.9791 91.3364H39.4791H38.9791C38.9791 94.7735 39.2999 98.139 39.9328 101.396L40.4236 101.301ZM39.4791 91.3364H39.9791C39.9791 88.3482 40.231 85.4232 40.7167 82.5702L40.2238 82.4863L39.7309 82.4024C39.2358 85.3106 38.9791 88.2917 38.9791 91.3364H39.4791ZM40.2238 82.4863L40.7169 82.569C44.891 57.6697 66.5997 38.6995 92.7536 38.6995V38.1995V37.6995C66.1053 37.6995 43.9846 57.0285 39.7307 82.4036L40.2238 82.4863ZM92.7536 38.1995V38.6995C101.257 38.6995 109.281 40.7007 116.397 44.2629L116.621 43.8158L116.845 43.3686C109.593 39.7384 101.415 37.6995 92.7536 37.6995V38.1995ZM116.621 43.8158L116.397 44.2629C133.841 52.989 144.632 71.0575 144.902 90.5371L145.401 90.5302L145.901 90.5233C145.627 70.6892 134.639 52.2703 116.845 43.3686L116.621 43.8158ZM145.401 90.5302L144.902 90.5209L144.702 101.291L145.202 101.301L145.702 101.31L145.901 90.5395L145.401 90.5302ZM145.202 101.301V100.801H59.1687V101.301V101.801H145.202V101.301ZM59.1687 101.301L58.6895 101.444C63.0559 116.089 76.6516 126.784 92.7536 126.784V126.284V125.784C77.1052 125.784 63.8911 115.391 59.6478 101.158L59.1687 101.301ZM92.7536 126.284V126.784H167.616V126.284V125.784H92.7536V126.284ZM167.616 126.284H168.116V91.3364H167.616H167.116V126.284H167.616ZM92.7536 56.3889V55.8889C76.2376 55.8889 62.3558 67.1255 58.3761 82.3599L58.8599 82.4863L59.3437 82.6127C63.2108 67.8092 76.7019 56.8889 92.7536 56.8889V56.3889ZM58.8599 82.4863V82.9863H126.656V82.4863V81.9863H58.8599V82.4863ZM126.656 82.4863L127.14 82.3599C123.16 67.1254 109.279 55.8889 92.7536 55.8889V56.3889V56.8889C108.814 56.8889 122.306 67.8093 126.173 82.6127L126.656 82.4863Z" fill="#0D21A1" mask="url(#path-1-inside-1_394_2356)"/>
</svg>
