<svg width="447" height="88" viewBox="0 0 447 88" fill="none" xmlns="http://www.w3.org/2000/svg">
<g clip-path="url(#clip0_7_224)">
<g clip-path="url(#clip1_7_224)">
<path d="M71.9641 35.5263C70.0788 19.5617 56.4628 7.1786 39.9483 7.1786C23.4339 7.1786 9.82182 19.5617 7.93256 35.5263C7.78001 36.7747 7.70569 38.0466 7.70569 39.338C7.70569 40.7932 7.80348 42.225 7.99123 43.6295C8.50364 47.4724 9.70057 51.1007 11.4529 54.3896C12.9941 57.2962 14.9733 59.9374 17.3046 62.2237C18.4897 63.3941 19.7688 64.4748 21.13 65.4501C26.4223 69.254 32.9232 71.4973 39.9483 71.4973H55.039V66.4879H62.9207V79.6006H37.2924C29.1956 79.0739 21.752 76.1361 15.6852 71.4973C13.3539 69.7222 11.2261 67.6895 9.34071 65.4501C8.46844 64.4202 7.65093 63.3434 6.8921 62.2237C5.2297 59.7931 3.8372 57.1674 2.74589 54.3896C1.41206 51.0032 0.531967 47.3944 0.17993 43.6295C0.0586728 42.385 0 41.1209 0 39.8451C0 38.386 0.0782304 36.9425 0.234691 35.5263C2.38994 15.551 19.3503 0 39.9483 0C53.1888 0 64.9234 6.42173 72.191 16.3157C75.9108 21.3719 78.4572 27.3333 79.4429 33.8097C79.619 34.9645 79.705 36.1349 79.6933 37.3014C79.6894 38.1402 79.6659 39.0024 79.6659 39.8451V62.2237H39.9483C33.0523 62.2237 26.8682 59.1923 22.6633 54.3896C20.0348 51.3894 18.1807 47.7026 17.4102 43.6295C17.1403 42.2406 17.0034 40.8049 17.0034 39.338C17.0034 38.0388 17.1129 36.7669 17.3241 35.5263C19.1391 24.6999 28.5776 16.4523 39.9483 16.4523C43.6447 16.4523 47.1338 17.3223 50.2278 18.8711C57.8162 22.6672 62.5061 30.5247 62.6234 38.9907L62.5374 43.6295H25.4835C27.3376 49.8484 33.111 54.3896 39.9483 54.3896H72.191V39.338M39.9483 24.2863C32.935 24.2863 27.0403 29.0577 25.3505 35.5263H54.55C52.8603 29.0577 46.9656 24.2863 39.9483 24.2863Z" fill="#011638"/>
<path d="M74.3361 69.2629L68.7822 74.8024L81.4443 87.4318L86.9982 81.8923L74.3361 69.2629Z" fill="#EEF0F2"/>
</g>
<path d="M101.8 64.7153V21.8753H134.5V26.6153H107.62V40.1753H132.34V44.7953H107.62V59.9753H134.5V64.7153H101.8ZM150.498 65.4953C146.978 65.4953 144.218 64.6753 142.218 63.0353C140.218 61.3953 139.218 59.1753 139.218 56.3753C139.218 54.6553 139.618 53.1753 140.418 51.9353C141.258 50.6953 142.478 49.6753 144.078 48.8753C145.678 48.0353 147.638 47.4753 149.958 47.1953L160.038 45.9353C161.278 45.7753 162.118 45.4353 162.558 44.9153C162.998 44.3953 163.218 43.7353 163.218 42.9353V42.8753C163.218 41.7553 162.898 40.7953 162.258 39.9953C161.658 39.1553 160.758 38.5153 159.558 38.0753C158.358 37.6353 156.858 37.4153 155.058 37.4153C152.378 37.4153 150.298 37.8153 148.818 38.6153C147.338 39.4153 146.438 40.5953 146.118 42.1553H140.538C140.738 40.2753 141.458 38.6753 142.698 37.3553C143.938 35.9953 145.598 34.9553 147.678 34.2353C149.798 33.4753 152.258 33.0953 155.058 33.0953C158.098 33.0953 160.638 33.5153 162.678 34.3553C164.718 35.1553 166.238 36.3353 167.238 37.8953C168.278 39.4553 168.798 41.3353 168.798 43.5353V64.7153H163.518V56.3753L164.058 56.8553C163.258 58.9353 162.178 60.6153 160.818 61.8953C159.458 63.1353 157.898 64.0553 156.138 64.6553C154.418 65.2153 152.538 65.4953 150.498 65.4953ZM151.998 61.1153C153.638 61.1153 155.138 60.8553 156.498 60.3353C157.858 59.8153 159.038 59.0953 160.038 58.1753C161.078 57.2553 161.858 56.1553 162.378 54.8753C162.938 53.5953 163.218 52.2153 163.218 50.7353V47.1353L164.478 48.3953C163.758 48.7953 163.018 49.0953 162.258 49.2953C161.498 49.4953 160.518 49.6753 159.318 49.8353L150.678 51.0953C148.878 51.3753 147.478 51.9153 146.478 52.7153C145.478 53.5153 144.978 54.6153 144.978 56.0153C144.978 57.6153 145.598 58.8753 146.838 59.7953C148.078 60.6753 149.798 61.1153 151.998 61.1153ZM188.522 65.4953C186.082 65.4953 183.962 65.2353 182.162 64.7153C180.362 64.2353 178.842 63.5553 177.602 62.6753C176.362 61.7953 175.402 60.7753 174.722 59.6153C174.082 58.4153 173.702 57.1153 173.582 55.7153H179.222C179.462 56.7953 179.922 57.7553 180.602 58.5953C181.322 59.3953 182.322 60.0353 183.602 60.5153C184.922 60.9553 186.582 61.1753 188.582 61.1753C190.462 61.1753 192.022 60.9753 193.262 60.5753C194.502 60.1753 195.422 59.6153 196.022 58.8953C196.662 58.1353 196.982 57.2753 196.982 56.3153C196.982 55.2353 196.542 54.2953 195.662 53.4953C194.822 52.6953 193.482 52.1553 191.642 51.8753L183.902 50.5553C180.702 49.9953 178.322 49.0353 176.762 47.6753C175.202 46.2753 174.422 44.4153 174.422 42.0953C174.422 40.8153 174.722 39.6353 175.322 38.5553C175.922 37.4353 176.782 36.4753 177.902 35.6753C179.062 34.8353 180.482 34.1953 182.162 33.7553C183.842 33.3153 185.742 33.0953 187.862 33.0953C190.662 33.0953 193.062 33.4553 195.062 34.1753C197.102 34.8553 198.702 35.8553 199.862 37.1753C201.022 38.4953 201.702 40.0953 201.902 41.9753H196.262C196.062 41.0953 195.622 40.3153 194.942 39.6353C194.302 38.9553 193.382 38.4153 192.182 38.0153C191.022 37.6153 189.562 37.4153 187.802 37.4153C186.162 37.4153 184.742 37.6153 183.542 38.0153C182.382 38.3753 181.482 38.8953 180.842 39.5753C180.242 40.2153 179.942 40.9953 179.942 41.9153C179.942 43.1153 180.402 44.0353 181.322 44.6753C182.282 45.2753 183.502 45.6953 184.982 45.9353L192.842 47.1953C194.642 47.5153 196.282 48.0153 197.762 48.6953C199.242 49.3353 200.422 50.2553 201.302 51.4553C202.182 52.6153 202.622 54.1153 202.622 55.9553C202.622 57.4753 202.282 58.8353 201.602 60.0353C200.962 61.1953 200.022 62.1953 198.782 63.0353C197.542 63.8353 196.042 64.4353 194.282 64.8353C192.562 65.2753 190.642 65.4953 188.522 65.4953ZM206.203 76.1153V71.7353H210.583C212.063 71.7353 213.283 71.4353 214.243 70.8353C215.203 70.2353 216.003 69.1953 216.643 67.7153L219.043 62.2553L219.223 66.8753L203.983 33.8753H210.103L222.163 60.8753H219.823L231.223 33.8753H236.803L221.143 69.6353C220.143 71.9153 218.843 73.5553 217.243 74.5553C215.643 75.5953 213.563 76.1153 211.003 76.1153H206.203ZM241.141 64.7153V21.8753H264.121C266.681 21.8753 268.941 22.3353 270.901 23.2553C272.861 24.1353 274.381 25.4553 275.461 27.2153C276.541 28.9753 277.081 31.1153 277.081 33.6353C277.081 35.5953 276.721 37.3553 276.001 38.9153C275.281 40.4753 274.281 41.7553 273.001 42.7553C271.761 43.7553 270.301 44.4153 268.621 44.7353L268.261 44.0753C269.901 44.3953 271.181 44.8353 272.101 45.3953C273.061 45.9153 273.801 46.6353 274.321 47.5553C274.841 48.4753 275.321 49.6553 275.761 51.0953L279.661 64.7153H273.541L269.941 51.8753C269.501 50.1953 268.801 48.9753 267.841 48.2153C266.881 47.4153 265.621 47.0153 264.061 47.0153H246.901V64.7153H241.141ZM246.901 42.2753H262.921C264.601 42.2753 266.041 41.9553 267.241 41.3153C268.441 40.6753 269.361 39.7553 270.001 38.5553C270.681 37.3553 271.021 35.9153 271.021 34.2353C271.021 31.8353 270.301 29.9753 268.861 28.6553C267.421 27.2953 265.441 26.6153 262.921 26.6153H246.901V42.2753ZM298.748 65.4953C295.388 65.4953 292.468 64.8153 289.988 63.4553C287.508 62.0953 285.588 60.1953 284.228 57.7553C282.868 55.3153 282.188 52.4953 282.188 49.2953C282.188 47.3353 282.428 45.5353 282.908 43.8953C283.428 42.2153 284.168 40.7153 285.128 39.3953C286.088 38.0753 287.228 36.9353 288.548 35.9753C289.908 35.0153 291.448 34.2953 293.168 33.8153C294.888 33.3353 296.768 33.0953 298.808 33.0953C301.048 33.0953 303.148 33.4153 305.108 34.0553C307.068 34.6553 308.768 35.6553 310.208 37.0553C311.648 38.4153 312.748 40.2153 313.508 42.4553C314.268 44.6953 314.568 47.4353 314.408 50.6753H285.908V46.6553H308.828C308.708 45.0953 308.388 43.7553 307.868 42.6353C307.388 41.4753 306.708 40.5153 305.828 39.7553C304.988 38.9953 303.968 38.4353 302.768 38.0753C301.608 37.6753 300.288 37.4753 298.808 37.4753C297.288 37.4753 295.928 37.6753 294.728 38.0753C293.528 38.4353 292.488 38.9753 291.608 39.6953C290.768 40.4153 290.068 41.2553 289.508 42.2153C288.948 43.1753 288.528 44.2553 288.248 45.4553C288.008 46.6553 287.888 47.9353 287.888 49.2953C287.888 51.4953 288.268 53.4953 289.028 55.2953C289.788 57.0953 290.968 58.5153 292.568 59.5553C294.208 60.5953 296.288 61.1153 298.808 61.1153C301.328 61.1153 303.388 60.6753 304.988 59.7953C306.588 58.9153 307.708 57.7753 308.348 56.3753H314.048C313.608 58.0153 312.748 59.5353 311.468 60.9353C310.188 62.2953 308.488 63.3953 306.368 64.2353C304.248 65.0753 301.708 65.4953 298.748 65.4953ZM334.64 65.4953C331.28 65.4953 328.34 64.8153 325.82 63.4553C323.34 62.0553 321.4 60.1353 320 57.6953C318.64 55.2553 317.96 52.4553 317.96 49.2953C317.96 47.3753 318.2 45.5953 318.68 43.9553C319.2 42.3153 319.94 40.8353 320.9 39.5153C321.86 38.1553 323.02 36.9953 324.38 36.0353C325.78 35.0753 327.34 34.3553 329.06 33.8753C330.78 33.3553 332.66 33.0953 334.7 33.0953C337.46 33.0953 339.9 33.5353 342.02 34.4153C344.18 35.2553 345.94 36.4553 347.3 38.0153C348.66 39.5353 349.5 41.3553 349.82 43.4753H344.12C343.76 42.3153 343.14 41.2953 342.26 40.4153C341.42 39.4953 340.36 38.7953 339.08 38.3153C337.8 37.7953 336.32 37.5353 334.64 37.5353C333.16 37.5353 331.82 37.7353 330.62 38.1353C329.46 38.5353 328.44 39.0953 327.56 39.8153C326.72 40.4953 326 41.3353 325.4 42.3353C324.84 43.2953 324.42 44.3553 324.14 45.5153C323.86 46.6753 323.72 47.9153 323.72 49.2353C323.72 51.4353 324.12 53.4353 324.92 55.2353C325.72 56.9953 326.92 58.4153 328.52 59.4953C330.16 60.5353 332.2 61.0553 334.64 61.0553C337.16 61.0553 339.18 60.5553 340.7 59.5553C342.22 58.5153 343.34 57.0953 344.06 55.2953H349.82C349.38 57.2953 348.5 59.0753 347.18 60.6353C345.86 62.1553 344.14 63.3553 342.02 64.2353C339.9 65.0753 337.44 65.4953 334.64 65.4953ZM355.001 64.7153V33.8753H360.581V43.0553L360.101 42.8753C360.661 40.5953 361.421 38.7953 362.381 37.4753C363.381 36.1553 364.541 35.2353 365.861 34.7153C367.221 34.1553 368.721 33.8753 370.361 33.8753H373.001V39.0953H370.181C368.221 39.0953 366.521 39.5553 365.081 40.4753C363.641 41.3953 362.521 42.6753 361.721 44.3153C360.961 45.9153 360.581 47.7753 360.581 49.8953V64.7153H355.001ZM389.773 65.4953C387.893 65.4953 386.173 65.2153 384.613 64.6553C383.053 64.0953 381.713 63.2753 380.593 62.1953C379.513 61.0753 378.673 59.6953 378.073 58.0553C377.513 56.4153 377.233 54.5153 377.233 52.3553V33.8753H382.753V51.6353C382.753 53.5953 383.093 55.2753 383.773 56.6753C384.453 58.0753 385.433 59.1553 386.713 59.9153C388.033 60.6353 389.633 60.9953 391.513 60.9953C393.473 60.9953 395.193 60.5553 396.673 59.6753C398.193 58.7953 399.373 57.5953 400.213 56.0753C401.053 54.5153 401.473 52.7553 401.473 50.7953V33.8753H406.993V64.7153H401.473V56.9753L402.013 57.6353C401.013 60.3153 399.433 62.2953 397.273 63.5753C395.153 64.8553 392.653 65.4953 389.773 65.4953ZM414.013 64.7153V33.8753H419.593V64.7153H414.013ZM413.713 28.1753V21.8753H419.833V28.1753H413.713ZM438.757 64.7153C436.117 64.7153 434.017 64.0353 432.457 62.6753C430.897 61.2753 430.117 59.2753 430.117 56.6753V25.5353H435.637V55.9553C435.637 57.4353 436.057 58.5553 436.897 59.3153C437.777 60.0353 438.857 60.3953 440.137 60.3953H444.517V64.7153H438.757ZM423.577 38.1953V33.8753H431.077V38.1953H423.577ZM434.677 38.1953V33.8753H444.517V38.1953H434.677Z" fill="#011638"/>
</g>
<defs>
<clipPath id="clip0_7_224">
<rect width="447" height="87.4307" fill="white"/>
</clipPath>
<clipPath id="clip1_7_224">
<rect width="87" height="87.4307" fill="white"/>
</clipPath>
</defs>
</svg>
