<svg width="354" height="226" viewBox="0 0 354 226" fill="none" xmlns="http://www.w3.org/2000/svg">
<g clip-path="url(#clip0_7_235)">
<path d="M215.607 72.3657C213.049 50.7126 194.582 33.9171 172.183 33.9171C149.784 33.9171 131.322 50.7126 128.759 72.3657C128.552 74.059 128.451 75.784 128.451 77.5355C128.451 79.5093 128.584 81.4513 128.839 83.3563C129.534 88.5685 131.157 93.4896 133.534 97.9504C135.624 101.893 138.309 105.475 141.471 108.576C143.078 110.163 144.813 111.629 146.659 112.952C153.837 118.111 162.655 121.154 172.183 121.154H192.651V114.36H203.341V132.145H168.581C157.599 131.43 147.503 127.446 139.274 121.154C136.112 118.746 133.226 115.989 130.669 112.952C129.486 111.555 128.377 110.095 127.348 108.576C125.093 105.279 123.204 101.718 121.724 97.9504C119.915 93.3573 118.722 88.4626 118.244 83.3563C118.08 81.6683 118 79.9538 118 78.2234C118 76.2444 118.106 74.2865 118.318 72.3657C121.242 45.2728 144.245 24.1806 172.183 24.1806C190.141 24.1806 206.057 32.8905 215.914 46.31C220.96 53.1678 224.413 61.2534 225.75 70.0374C225.989 71.6037 226.106 73.1912 226.09 74.7733C226.084 75.911 226.053 77.0805 226.053 78.2234V108.576H172.183C162.83 108.576 154.442 104.464 148.739 97.9504C145.174 93.8812 142.659 88.8807 141.614 83.3563C141.248 81.4725 141.062 79.5252 141.062 77.5355C141.062 75.7734 141.211 74.0484 141.497 72.3657C143.959 57.6816 156.76 46.4952 172.183 46.4952C177.196 46.4952 181.929 47.6752 186.125 49.7759C196.417 54.9246 202.778 65.5819 202.938 77.0646L202.821 83.3563H152.564C155.079 91.791 162.909 97.9504 172.183 97.9504H215.914V77.5355M172.183 57.1206C162.67 57.1206 154.675 63.5922 152.384 72.3657H191.987C189.696 63.5922 181.7 57.1206 172.183 57.1206Z" fill="white"/>
<path d="M218.824 118.123L211.291 125.637L228.465 142.766L235.997 135.253L218.824 118.123Z" fill="#49B70E"/>
</g>
<path d="M17.9001 197.819V160.188H47.5202V165.459H24.4882V175.947H45.5701V181.059H24.4882V192.549H47.5202V197.819H17.9001ZM62.0906 198.504C59.0688 198.504 56.6796 197.802 54.9227 196.396C53.2011 194.956 52.3402 193.006 52.3402 190.546C52.3402 189 52.7091 187.682 53.447 186.593C54.1849 185.469 55.2741 184.538 56.7147 183.8C58.1904 183.062 60.0175 182.553 62.196 182.271L70.2598 181.217C71.2788 181.112 71.9815 180.848 72.368 180.427C72.7545 179.97 72.9478 179.408 72.9478 178.74V178.688C72.9478 177.809 72.7018 177.071 72.2099 176.474C71.718 175.841 70.9977 175.367 70.049 175.051C69.1354 174.7 68.0111 174.524 66.6759 174.524C64.6028 174.524 62.9866 174.823 61.8271 175.42C60.6676 176.017 59.9648 176.913 59.7189 178.108H53.4997C53.7105 176.386 54.3781 174.928 55.5025 173.733C56.662 172.539 58.1904 171.625 60.0878 170.993C62.0203 170.36 64.2339 170.044 66.7286 170.044C69.5044 170.044 71.8058 170.413 73.6329 171.151C75.4951 171.853 76.883 172.925 77.7966 174.366C78.7453 175.771 79.2196 177.528 79.2196 179.636V197.819H73.264V190.651L73.8964 191.231C73.1937 192.953 72.245 194.358 71.0504 195.448C69.8909 196.502 68.5557 197.275 67.0448 197.767C65.5691 198.259 63.9177 198.504 62.0906 198.504ZM64.0934 193.866C65.3934 193.866 66.5705 193.656 67.6246 193.234C68.7138 192.812 69.6625 192.233 70.4706 191.495C71.2788 190.722 71.8937 189.843 72.3153 188.86C72.7369 187.841 72.9478 186.769 72.9478 185.645V182.377L74.1073 183.694C73.5802 184.081 72.9829 184.38 72.3153 184.59C71.6828 184.766 70.8044 184.942 69.6801 185.117L63.1447 186.119C61.7392 186.33 60.65 186.751 59.877 187.384C59.104 188.016 58.7175 188.877 58.7175 189.966C58.7175 191.196 59.1918 192.162 60.1405 192.865C61.0892 193.533 62.4068 193.866 64.0934 193.866ZM97.5868 198.504C95.3732 198.504 93.4407 198.276 91.7893 197.819C90.173 197.398 88.8027 196.8 87.6783 196.027C86.5891 195.254 85.7458 194.358 85.1485 193.339C84.5512 192.285 84.1998 191.143 84.0944 189.914H90.4189C90.6298 190.722 90.9987 191.442 91.5257 192.075C92.0879 192.672 92.8609 193.146 93.8448 193.498C94.8637 193.814 96.1462 193.972 97.6922 193.972C99.0977 193.972 100.275 193.831 101.223 193.55C102.172 193.234 102.892 192.795 103.384 192.233C103.876 191.67 104.122 191.02 104.122 190.283C104.122 189.474 103.806 188.789 103.173 188.227C102.541 187.63 101.557 187.226 100.222 187.015L93.4231 185.855C90.5419 185.328 88.381 184.45 86.9404 183.22C85.535 181.99 84.8322 180.339 84.8322 178.266C84.8322 177.071 85.1133 175.964 85.6755 174.945C86.2377 173.927 87.0283 173.048 88.0472 172.31C89.1013 171.572 90.3838 171.01 91.8947 170.624C93.4407 170.237 95.1624 170.044 97.0597 170.044C99.6247 170.044 101.821 170.36 103.648 170.993C105.475 171.59 106.898 172.486 107.917 173.681C108.971 174.84 109.586 176.263 109.762 177.95H103.437C103.296 177.282 102.963 176.702 102.436 176.21C101.944 175.683 101.241 175.279 100.327 174.998C99.449 174.717 98.3422 174.577 97.007 174.577C95.7421 174.577 94.6529 174.717 93.7393 174.998C92.8609 175.279 92.1933 175.666 91.7366 176.158C91.2798 176.65 91.0514 177.247 91.0514 177.95C91.0514 178.863 91.4028 179.566 92.1055 180.058C92.8082 180.515 93.7218 180.831 94.8461 181.007L101.961 182.166C103.472 182.447 104.878 182.886 106.178 183.484C107.478 184.046 108.514 184.854 109.287 185.908C110.06 186.927 110.447 188.262 110.447 189.914C110.447 191.319 110.148 192.566 109.551 193.656C108.953 194.71 108.075 195.606 106.916 196.344C105.791 197.081 104.438 197.626 102.857 197.977C101.276 198.329 99.5193 198.504 97.5868 198.504ZM114.638 207.833V203.143H118.854C120.084 203.143 121.086 202.897 121.859 202.405C122.667 201.913 123.334 201.052 123.861 199.822L125.811 195.553L126.338 200.455L112.372 170.729H119.329L129.501 193.656L126.865 193.708L136.405 170.729H142.624L129.132 201.509C128.148 203.722 126.883 205.321 125.337 206.305C123.826 207.324 121.859 207.833 119.434 207.833H114.638ZM147.14 197.819V160.188H168.011C170.4 160.188 172.473 160.592 174.23 161.4C176.022 162.173 177.41 163.333 178.394 164.879C179.378 166.425 179.87 168.305 179.87 170.518C179.87 172.31 179.536 173.909 178.868 175.314C178.201 176.685 177.252 177.809 176.022 178.688C174.792 179.566 173.317 180.146 171.595 180.427L171.384 179.794C172.965 180.04 174.23 180.409 175.179 180.901C176.128 181.393 176.865 182.061 177.392 182.904C177.919 183.747 178.394 184.836 178.815 186.172L182.189 197.819H175.284L172.28 187.278C171.894 185.803 171.261 184.713 170.383 184.011C169.504 183.273 168.327 182.904 166.851 182.904H153.675V197.819H147.14ZM153.675 177.686H166.746C168.011 177.686 169.1 177.44 170.014 176.948C170.962 176.456 171.7 175.754 172.227 174.84C172.754 173.891 173.018 172.749 173.018 171.414C173.018 169.482 172.438 168.006 171.279 166.987C170.119 165.933 168.608 165.406 166.746 165.406H153.675V177.686ZM199.94 198.504C196.918 198.504 194.283 197.907 192.034 196.713C189.821 195.518 188.099 193.849 186.869 191.706C185.64 189.527 185.025 187.05 185.025 184.274C185.025 182.553 185.253 180.971 185.71 179.531C186.167 178.09 186.817 176.79 187.66 175.631C188.538 174.436 189.575 173.417 190.77 172.574C191.964 171.731 193.335 171.098 194.881 170.676C196.427 170.255 198.131 170.044 199.993 170.044C202.066 170.044 203.981 170.325 205.738 170.887C207.495 171.449 209.005 172.363 210.27 173.628C211.57 174.858 212.554 176.474 213.222 178.477C213.924 180.444 214.223 182.869 214.118 185.75H189.188V181.797H207.951C207.811 180.567 207.53 179.513 207.108 178.635C206.722 177.721 206.177 176.966 205.474 176.369C204.807 175.771 203.998 175.332 203.05 175.051C202.136 174.77 201.1 174.629 199.94 174.629C198.746 174.629 197.674 174.787 196.725 175.104C195.776 175.385 194.951 175.824 194.248 176.421C193.58 176.983 193.018 177.669 192.562 178.477C192.14 179.25 191.824 180.128 191.613 181.112C191.402 182.096 191.297 183.15 191.297 184.274C191.297 186.101 191.595 187.753 192.193 189.228C192.825 190.704 193.791 191.864 195.091 192.707C196.391 193.515 198.043 193.919 200.046 193.919C201.943 193.919 203.524 193.603 204.789 192.971C206.054 192.303 206.95 191.424 207.477 190.335H213.854C213.503 191.776 212.747 193.129 211.588 194.394C210.464 195.623 208.935 196.625 207.003 197.398C205.07 198.136 202.716 198.504 199.94 198.504ZM232.883 198.504C229.826 198.504 227.173 197.907 224.925 196.713C222.676 195.483 220.937 193.796 219.707 191.653C218.477 189.51 217.862 187.05 217.862 184.274C217.862 182.588 218.091 181.024 218.547 179.584C219.004 178.143 219.654 176.843 220.497 175.683C221.341 174.489 222.377 173.47 223.607 172.626C224.872 171.783 226.277 171.151 227.823 170.729C229.369 170.272 231.074 170.044 232.936 170.044C235.501 170.044 237.749 170.43 239.682 171.203C241.65 171.976 243.231 173.066 244.425 174.471C245.655 175.841 246.411 177.51 246.692 179.478H240.262C239.981 178.529 239.489 177.704 238.786 177.001C238.118 176.298 237.293 175.754 236.309 175.367C235.325 174.981 234.183 174.787 232.883 174.787C231.724 174.787 230.687 174.945 229.774 175.262C228.86 175.578 228.052 176.017 227.349 176.579C226.681 177.142 226.119 177.809 225.663 178.582C225.206 179.355 224.872 180.216 224.661 181.165C224.45 182.113 224.345 183.132 224.345 184.222C224.345 186.049 224.661 187.682 225.294 189.123C225.926 190.529 226.875 191.653 228.14 192.496C229.405 193.339 230.986 193.761 232.883 193.761C234.816 193.761 236.379 193.357 237.574 192.549C238.804 191.741 239.7 190.634 240.262 189.228H246.692C246.34 191.056 245.585 192.672 244.425 194.077C243.266 195.448 241.702 196.537 239.735 197.345C237.802 198.118 235.518 198.504 232.883 198.504ZM251.864 197.819V170.729H258.189V179.109L257.714 178.898C258.171 176.86 258.821 175.244 259.664 174.05C260.508 172.855 261.527 172.012 262.721 171.52C263.951 170.993 265.357 170.729 266.938 170.729H269.151V176.527H266.411C264.724 176.527 263.266 176.913 262.036 177.686C260.806 178.459 259.858 179.548 259.19 180.954C258.523 182.359 258.189 183.976 258.189 185.803V197.819H251.864ZM284.435 198.504C282.749 198.504 281.22 198.259 279.85 197.767C278.515 197.24 277.373 196.484 276.424 195.5C275.511 194.517 274.808 193.322 274.316 191.916C273.859 190.476 273.631 188.824 273.631 186.962V170.729H279.903V186.013C279.903 187.595 280.166 188.947 280.693 190.072C281.22 191.196 281.993 192.057 283.012 192.654C284.031 193.252 285.279 193.55 286.754 193.55C288.335 193.55 289.706 193.199 290.865 192.496C292.06 191.793 292.973 190.827 293.606 189.597C294.238 188.332 294.555 186.909 294.555 185.328V170.729H300.826V197.819H294.555V190.968L295.187 191.706C294.273 194.025 292.868 195.746 290.971 196.871C289.108 197.96 286.93 198.504 284.435 198.504ZM307.506 197.819V170.729H313.831V197.819H307.506ZM307.296 166.197V160.188H313.989V166.197H307.296ZM331.7 197.819C329.241 197.819 327.291 197.169 325.85 195.869C324.409 194.569 323.689 192.725 323.689 190.335V163.403H329.961V189.228C329.961 190.493 330.312 191.46 331.015 192.127C331.753 192.795 332.702 193.129 333.861 193.129H337.656V197.819H331.7ZM318.05 175.42V170.729H324.532V175.42H318.05ZM329.118 175.42V170.729H337.656V175.42H329.118Z" fill="white"/>
<defs>
<clipPath id="clip0_7_235">
<rect width="118" height="118.584" fill="white" transform="translate(118 24.1806)"/>
</clipPath>
</defs>
</svg>
