<svg width="1920" height="165" viewBox="0 0 1920 165" fill="none" xmlns="http://www.w3.org/2000/svg">
<g clip-path="url(#clip0_16_1151)">
<path d="M58.1648 102.486C53.7873 65.4191 22.1732 36.6676 -16.1707 36.6676C-54.5146 36.6676 -86.1196 65.4191 -90.5062 102.486C-90.8604 105.385 -91.0329 108.338 -91.0329 111.336C-91.0329 114.715 -90.8059 118.04 -90.37 121.301C-89.1802 130.223 -86.4012 138.648 -82.3325 146.284C-78.7542 153.033 -74.1587 159.165 -68.7459 164.473C-65.9941 167.191 -63.0243 169.7 -59.8638 171.965C-47.576 180.797 -32.4818 186.005 -16.1707 186.005H18.8673V174.374H37.1674V204.82H-22.3373C-41.1369 203.597 -58.4198 196.776 -72.5058 186.005C-77.9187 181.884 -82.8592 177.164 -87.2367 171.965C-89.262 169.573 -91.1601 167.073 -92.922 164.473C-96.7818 158.83 -100.015 152.734 -102.549 146.284C-105.646 138.421 -107.689 130.042 -108.507 121.301C-108.788 118.411 -108.924 115.476 -108.924 112.514C-108.924 109.126 -108.743 105.775 -108.379 102.486C-103.375 56.107 -63.9961 20 -16.1707 20C14.5716 20 41.8173 34.9102 58.6915 57.8825C67.3284 69.6222 73.2408 83.4635 75.5294 98.5006C75.9381 101.182 76.1379 103.899 76.1107 106.608C76.1016 108.555 76.0471 110.557 76.0471 112.514V164.473H-16.1707C-32.1821 164.473 -46.5406 157.435 -56.3037 146.284C-62.4067 139.318 -66.7116 130.758 -68.5007 121.301C-69.1274 118.076 -69.4452 114.742 -69.4452 111.336C-69.4452 108.32 -69.1909 105.367 -68.7005 102.486C-64.4865 77.3491 -42.5718 58.1995 -16.1707 58.1995C-7.58829 58.1995 0.512787 60.2195 7.69658 63.8158C25.3155 72.6296 36.2047 90.8734 36.4772 110.53L36.2774 121.301H-49.7556C-45.4508 135.74 -32.0459 146.284 -16.1707 146.284H58.6915V111.336M-16.1707 76.3889C-32.4546 76.3889 -46.141 87.4674 -50.0644 102.486H17.7321C13.8087 87.4674 0.122253 76.3889 -16.1707 76.3889Z" fill="#E6E6E6"/>
</g>
<g clip-path="url(#clip1_16_1151)">
<path d="M270.165 102.486C265.787 65.4191 234.173 36.6676 195.829 36.6676C157.485 36.6676 125.88 65.4191 121.494 102.486C121.14 105.385 120.967 108.338 120.967 111.336C120.967 114.715 121.194 118.04 121.63 121.301C122.82 130.223 125.599 138.648 129.668 146.284C133.246 153.033 137.841 159.165 143.254 164.473C146.006 167.191 148.976 169.7 152.136 171.965C164.424 180.797 179.518 186.005 195.829 186.005H230.867V174.374H249.167V204.82H189.663C170.863 203.597 153.58 196.776 139.494 186.005C134.081 181.884 129.141 177.164 124.763 171.965C122.738 169.573 120.84 167.073 119.078 164.473C115.218 158.83 111.985 152.734 109.451 146.284C106.354 138.421 104.311 130.042 103.493 121.301C103.212 118.411 103.076 115.476 103.076 112.514C103.076 109.126 103.257 105.775 103.621 102.486C108.625 56.107 148.004 20 195.829 20C226.572 20 253.817 34.9102 270.692 57.8825C279.328 69.6222 285.241 83.4635 287.529 98.5006C287.938 101.182 288.138 103.899 288.111 106.608C288.102 108.555 288.047 110.557 288.047 112.514V164.473H195.829C179.818 164.473 165.459 157.435 155.696 146.284C149.593 139.318 145.288 130.758 143.499 121.301C142.873 118.076 142.555 114.742 142.555 111.336C142.555 108.32 142.809 105.367 143.299 102.486C147.514 77.3491 169.428 58.1995 195.829 58.1995C204.412 58.1995 212.513 60.2195 219.697 63.8158C237.316 72.6296 248.205 90.8734 248.477 110.53L248.277 121.301H162.244C166.549 135.74 179.954 146.284 195.829 146.284H270.692V111.336M195.829 76.3889C179.545 76.3889 165.859 87.4674 161.936 102.486H229.732C225.809 87.4674 212.122 76.3889 195.829 76.3889Z" fill="#CCCCCC"/>
</g>
<g clip-path="url(#clip2_16_1151)">
<path d="M349.987 140.514C354.364 177.581 385.978 206.332 424.322 206.332C462.666 206.332 494.271 177.581 498.658 140.514C499.012 137.615 499.184 134.662 499.184 131.664C499.184 128.285 498.957 124.96 498.521 121.699C497.332 112.777 494.553 104.352 490.484 96.7161C486.906 89.9675 482.31 83.8349 476.897 78.5267C474.145 75.8091 471.176 73.3 468.015 71.0353C455.727 62.2033 440.633 56.9947 424.322 56.9947L389.284 56.9947V68.6258H370.984V38.1803L430.489 38.1803C449.288 39.4032 466.571 46.2242 480.657 56.9947C486.07 61.1163 491.011 65.8358 495.388 71.0353C497.413 73.4268 499.311 75.9269 501.073 78.5267C504.933 84.1701 508.166 90.2664 510.7 96.7161C513.797 104.579 515.841 112.958 516.658 121.699C516.939 124.589 517.076 127.524 517.076 130.486C517.076 133.874 516.894 137.225 516.531 140.514C511.527 186.893 472.147 223 424.322 223C393.58 223 366.334 208.09 349.46 185.118C340.823 173.378 334.911 159.536 332.622 144.499C332.213 141.818 332.013 139.101 332.041 136.392C332.05 134.445 332.104 132.443 332.104 130.486V78.5267L424.322 78.5267C440.333 78.5267 454.692 85.5651 464.455 96.7161C470.558 103.682 474.863 112.242 476.652 121.699C477.279 124.924 477.597 128.258 477.597 131.664C477.597 134.68 477.342 137.633 476.852 140.514C472.638 165.651 450.723 184.8 424.322 184.8C415.74 184.8 407.639 182.78 400.455 179.184C382.836 170.37 371.947 152.127 371.674 132.47L371.874 121.699H457.907C453.602 107.26 440.197 96.7161 424.322 96.7161H349.46V131.664M424.322 166.611C440.606 166.611 454.292 155.533 458.216 140.514H390.419C394.343 155.533 408.029 166.611 424.322 166.611Z" fill="#E6E6E6"/>
<path d="M344.479 62.1826L357.375 49.3208L327.975 19.9974L315.08 32.8592L344.479 62.1826Z" fill="#EEC643"/>
</g>
<g clip-path="url(#clip3_16_1151)">
<path d="M694.165 102.486C689.787 65.4191 658.173 36.6676 619.829 36.6676C581.485 36.6676 549.88 65.4191 545.494 102.486C545.14 105.385 544.967 108.338 544.967 111.336C544.967 114.715 545.194 118.04 545.63 121.301C546.82 130.223 549.599 138.648 553.668 146.284C557.246 153.033 561.841 159.165 567.254 164.473C570.006 167.191 572.976 169.7 576.136 171.965C588.424 180.797 603.518 186.005 619.829 186.005H654.867V174.374H673.167V204.82H613.663C594.863 203.597 577.58 196.776 563.494 186.005C558.081 181.884 553.141 177.164 548.763 171.965C546.738 169.573 544.84 167.073 543.078 164.473C539.218 158.83 535.985 152.734 533.451 146.284C530.354 138.421 528.311 130.042 527.493 121.301C527.212 118.411 527.076 115.476 527.076 112.514C527.076 109.126 527.257 105.775 527.621 102.486C532.625 56.107 572.004 20 619.829 20C650.572 20 677.817 34.9102 694.692 57.8825C703.328 69.6222 709.241 83.4635 711.529 98.5006C711.938 101.182 712.138 103.899 712.111 106.608C712.102 108.555 712.047 110.557 712.047 112.514V164.473H619.829C603.818 164.473 589.459 157.435 579.696 146.284C573.593 139.318 569.288 130.758 567.499 121.301C566.873 118.076 566.555 114.742 566.555 111.336C566.555 108.32 566.809 105.367 567.299 102.486C571.514 77.3491 593.428 58.1995 619.829 58.1995C628.412 58.1995 636.513 60.2195 643.697 63.8158C661.316 72.6296 672.205 90.8734 672.477 110.53L672.277 121.301H586.244C590.549 135.74 603.954 146.284 619.829 146.284H694.692V111.336M619.829 76.3889C603.545 76.3889 589.859 87.4674 585.936 102.486H653.732C649.809 87.4674 636.122 76.3889 619.829 76.3889Z" fill="#CCCCCC"/>
</g>
<g clip-path="url(#clip4_16_1151)">
<path d="M773.987 140.514C778.364 177.581 809.978 206.332 848.322 206.332C886.666 206.332 918.271 177.581 922.658 140.514C923.012 137.615 923.184 134.662 923.184 131.664C923.184 128.285 922.957 124.96 922.521 121.699C921.332 112.777 918.553 104.352 914.484 96.7161C910.906 89.9675 906.31 83.8349 900.897 78.5267C898.145 75.8091 895.176 73.3 892.015 71.0353C879.727 62.2033 864.633 56.9947 848.322 56.9947L813.284 56.9947V68.6258H794.984V38.1803L854.489 38.1803C873.288 39.4032 890.571 46.2242 904.657 56.9947C910.07 61.1163 915.011 65.8358 919.388 71.0353C921.413 73.4268 923.311 75.9269 925.073 78.5267C928.933 84.1701 932.166 90.2664 934.7 96.7161C937.797 104.579 939.841 112.958 940.658 121.699C940.939 124.589 941.076 127.524 941.076 130.486C941.076 133.874 940.894 137.225 940.531 140.514C935.527 186.893 896.147 223 848.322 223C817.58 223 790.334 208.09 773.46 185.118C764.823 173.378 758.911 159.536 756.622 144.499C756.213 141.818 756.013 139.101 756.041 136.392C756.05 134.445 756.104 132.443 756.104 130.486V78.5267L848.322 78.5267C864.333 78.5267 878.692 85.5651 888.455 96.7161C894.558 103.682 898.863 112.242 900.652 121.699C901.279 124.924 901.597 128.258 901.597 131.664C901.597 134.68 901.342 137.633 900.852 140.514C896.638 165.651 874.723 184.8 848.322 184.8C839.74 184.8 831.639 182.78 824.455 179.184C806.836 170.37 795.947 152.127 795.674 132.47L795.874 121.699H881.907C877.602 107.26 864.197 96.7161 848.322 96.7161H773.46V131.664M848.322 166.611C864.606 166.611 878.292 155.533 882.216 140.514H814.419C818.343 155.533 832.029 166.611 848.322 166.611Z" fill="#E6E6E6"/>
<path d="M768.479 62.1826L781.375 49.3208L751.975 19.9974L739.08 32.8592L768.479 62.1826Z" fill="#0D21A1"/>
</g>
<g clip-path="url(#clip5_16_1151)">
<path d="M1118.16 102.486C1113.79 65.4191 1082.17 36.6676 1043.83 36.6676C1005.49 36.6676 973.88 65.4191 969.494 102.486C969.14 105.385 968.967 108.338 968.967 111.336C968.967 114.715 969.194 118.04 969.63 121.301C970.82 130.223 973.599 138.648 977.668 146.284C981.246 153.033 985.841 159.165 991.254 164.473C994.006 167.191 996.976 169.7 1000.14 171.965C1012.42 180.797 1027.52 186.005 1043.83 186.005H1078.87V174.374H1097.17V204.82H1037.66C1018.86 203.597 1001.58 196.776 987.494 186.005C982.081 181.884 977.141 177.164 972.763 171.965C970.738 169.573 968.84 167.073 967.078 164.473C963.218 158.83 959.985 152.734 957.451 146.284C954.354 138.421 952.311 130.042 951.493 121.301C951.212 118.411 951.076 115.476 951.076 112.514C951.076 109.126 951.257 105.775 951.621 102.486C956.625 56.107 996.004 20 1043.83 20C1074.57 20 1101.82 34.9102 1118.69 57.8825C1127.33 69.6222 1133.24 83.4635 1135.53 98.5006C1135.94 101.182 1136.14 103.899 1136.11 106.608C1136.1 108.555 1136.05 110.557 1136.05 112.514V164.473H1043.83C1027.82 164.473 1013.46 157.435 1003.7 146.284C997.593 139.318 993.288 130.758 991.499 121.301C990.873 118.076 990.555 114.742 990.555 111.336C990.555 108.32 990.809 105.367 991.299 102.486C995.514 77.3491 1017.43 58.1995 1043.83 58.1995C1052.41 58.1995 1060.51 60.2195 1067.7 63.8158C1085.32 72.6296 1096.2 90.8734 1096.48 110.53L1096.28 121.301H1010.24C1014.55 135.74 1027.95 146.284 1043.83 146.284H1118.69V111.336M1043.83 76.3889C1027.55 76.3889 1013.86 87.4674 1009.94 102.486H1077.73C1073.81 87.4674 1060.12 76.3889 1043.83 76.3889Z" fill="#CCCCCC"/>
</g>
<g clip-path="url(#clip6_16_1151)">
<path d="M1197.99 140.514C1202.36 177.581 1233.98 206.332 1272.32 206.332C1310.67 206.332 1342.27 177.581 1346.66 140.514C1347.01 137.615 1347.18 134.662 1347.18 131.664C1347.18 128.285 1346.96 124.96 1346.52 121.699C1345.33 112.777 1342.55 104.352 1338.48 96.7161C1334.91 89.9675 1330.31 83.8349 1324.9 78.5267C1322.15 75.8091 1319.18 73.3 1316.02 71.0353C1303.73 62.2033 1288.63 56.9947 1272.32 56.9947L1237.28 56.9947V68.6258H1218.98V38.1803L1278.49 38.1803C1297.29 39.4032 1314.57 46.2242 1328.66 56.9947C1334.07 61.1163 1339.01 65.8358 1343.39 71.0353C1345.41 73.4268 1347.31 75.9269 1349.07 78.5267C1352.93 84.1701 1356.17 90.2664 1358.7 96.7161C1361.8 104.579 1363.84 112.958 1364.66 121.699C1364.94 124.589 1365.08 127.524 1365.08 130.486C1365.08 133.874 1364.89 137.225 1364.53 140.514C1359.53 186.893 1320.15 223 1272.32 223C1241.58 223 1214.33 208.09 1197.46 185.118C1188.82 173.378 1182.91 159.536 1180.62 144.499C1180.21 141.818 1180.01 139.101 1180.04 136.392C1180.05 134.445 1180.1 132.443 1180.1 130.486V78.5267L1272.32 78.5267C1288.33 78.5267 1302.69 85.5651 1312.46 96.7161C1318.56 103.682 1322.86 112.242 1324.65 121.699C1325.28 124.924 1325.6 128.258 1325.6 131.664C1325.6 134.68 1325.34 137.633 1324.85 140.514C1320.64 165.651 1298.72 184.8 1272.32 184.8C1263.74 184.8 1255.64 182.78 1248.45 179.184C1230.84 170.37 1219.95 152.127 1219.67 132.47L1219.87 121.699H1305.91C1301.6 107.26 1288.2 96.7161 1272.32 96.7161H1197.46V131.664M1272.32 166.611C1288.61 166.611 1302.29 155.533 1306.22 140.514H1238.42C1242.34 155.533 1256.03 166.611 1272.32 166.611Z" fill="#E6E6E6"/>
<path d="M1192.48 62.1826L1205.37 49.3208L1175.98 19.9974L1163.08 32.8592L1192.48 62.1826Z" fill="#EEC643"/>
</g>
<g clip-path="url(#clip7_16_1151)">
<path d="M1542.16 102.486C1537.79 65.4191 1506.17 36.6676 1467.83 36.6676C1429.49 36.6676 1397.88 65.4191 1393.49 102.486C1393.14 105.385 1392.97 108.338 1392.97 111.336C1392.97 114.715 1393.19 118.04 1393.63 121.301C1394.82 130.223 1397.6 138.648 1401.67 146.284C1405.25 153.033 1409.84 159.165 1415.25 164.473C1418.01 167.191 1420.98 169.7 1424.14 171.965C1436.42 180.797 1451.52 186.005 1467.83 186.005H1502.87V174.374H1521.17V204.82H1461.66C1442.86 203.597 1425.58 196.776 1411.49 186.005C1406.08 181.884 1401.14 177.164 1396.76 171.965C1394.74 169.573 1392.84 167.073 1391.08 164.473C1387.22 158.83 1383.99 152.734 1381.45 146.284C1378.35 138.421 1376.31 130.042 1375.49 121.301C1375.21 118.411 1375.08 115.476 1375.08 112.514C1375.08 109.126 1375.26 105.775 1375.62 102.486C1380.62 56.107 1420 20 1467.83 20C1498.57 20 1525.82 34.9102 1542.69 57.8825C1551.33 69.6222 1557.24 83.4635 1559.53 98.5006C1559.94 101.182 1560.14 103.899 1560.11 106.608C1560.1 108.555 1560.05 110.557 1560.05 112.514V164.473H1467.83C1451.82 164.473 1437.46 157.435 1427.7 146.284C1421.59 139.318 1417.29 130.758 1415.5 121.301C1414.87 118.076 1414.55 114.742 1414.55 111.336C1414.55 108.32 1414.81 105.367 1415.3 102.486C1419.51 77.3491 1441.43 58.1995 1467.83 58.1995C1476.41 58.1995 1484.51 60.2195 1491.7 63.8158C1509.32 72.6296 1520.2 90.8734 1520.48 110.53L1520.28 121.301H1434.24C1438.55 135.74 1451.95 146.284 1467.83 146.284H1542.69V111.336M1467.83 76.3889C1451.55 76.3889 1437.86 87.4674 1433.94 102.486H1501.73C1497.81 87.4674 1484.12 76.3889 1467.83 76.3889Z" fill="#CCCCCC"/>
</g>
<g clip-path="url(#clip8_16_1151)">
<path d="M1621.99 140.514C1626.36 177.581 1657.98 206.332 1696.32 206.332C1734.67 206.332 1766.27 177.581 1770.66 140.514C1771.01 137.615 1771.18 134.662 1771.18 131.664C1771.18 128.285 1770.96 124.96 1770.52 121.699C1769.33 112.777 1766.55 104.352 1762.48 96.7161C1758.91 89.9675 1754.31 83.8349 1748.9 78.5267C1746.15 75.8091 1743.18 73.3 1740.02 71.0353C1727.73 62.2033 1712.63 56.9947 1696.32 56.9947L1661.28 56.9947V68.6258H1642.98V38.1803L1702.49 38.1803C1721.29 39.4032 1738.57 46.2242 1752.66 56.9947C1758.07 61.1163 1763.01 65.8358 1767.39 71.0353C1769.41 73.4268 1771.31 75.9269 1773.07 78.5267C1776.93 84.1701 1780.17 90.2664 1782.7 96.7161C1785.8 104.579 1787.84 112.958 1788.66 121.699C1788.94 124.589 1789.08 127.524 1789.08 130.486C1789.08 133.874 1788.89 137.225 1788.53 140.514C1783.53 186.893 1744.15 223 1696.32 223C1665.58 223 1638.33 208.09 1621.46 185.118C1612.82 173.378 1606.91 159.536 1604.62 144.499C1604.21 141.818 1604.01 139.101 1604.04 136.392C1604.05 134.445 1604.1 132.443 1604.1 130.486V78.5267L1696.32 78.5267C1712.33 78.5267 1726.69 85.5651 1736.46 96.7161C1742.56 103.682 1746.86 112.242 1748.65 121.699C1749.28 124.924 1749.6 128.258 1749.6 131.664C1749.6 134.68 1749.34 137.633 1748.85 140.514C1744.64 165.651 1722.72 184.8 1696.32 184.8C1687.74 184.8 1679.64 182.78 1672.45 179.184C1654.84 170.37 1643.95 152.127 1643.67 132.47L1643.87 121.699H1729.91C1725.6 107.26 1712.2 96.7161 1696.32 96.7161H1621.46V131.664M1696.32 166.611C1712.61 166.611 1726.29 155.533 1730.22 140.514H1662.42C1666.34 155.533 1680.03 166.611 1696.32 166.611Z" fill="#E6E6E6"/>
<path d="M1616.48 62.1826L1629.37 49.3208L1599.98 19.9974L1587.08 32.8592L1616.48 62.1826Z" fill="#0D21A1"/>
</g>
<g clip-path="url(#clip9_16_1151)">
<path d="M1966.16 102.486C1961.79 65.4191 1930.17 36.6676 1891.83 36.6676C1853.49 36.6676 1821.88 65.4191 1817.49 102.486C1817.14 105.385 1816.97 108.338 1816.97 111.336C1816.97 114.715 1817.19 118.04 1817.63 121.301C1818.82 130.223 1821.6 138.648 1825.67 146.284C1829.25 153.033 1833.84 159.165 1839.25 164.473C1842.01 167.191 1844.98 169.7 1848.14 171.965C1860.42 180.797 1875.52 186.005 1891.83 186.005H1926.87V174.374H1945.17V204.82H1885.66C1866.86 203.597 1849.58 196.776 1835.49 186.005C1830.08 181.884 1825.14 177.164 1820.76 171.965C1818.74 169.573 1816.84 167.073 1815.08 164.473C1811.22 158.83 1807.99 152.734 1805.45 146.284C1802.35 138.421 1800.31 130.042 1799.49 121.301C1799.21 118.411 1799.08 115.476 1799.08 112.514C1799.08 109.126 1799.26 105.775 1799.62 102.486C1804.62 56.107 1844 20 1891.83 20C1922.57 20 1949.82 34.9102 1966.69 57.8825C1975.33 69.6222 1981.24 83.4635 1983.53 98.5006C1983.94 101.182 1984.14 103.899 1984.11 106.608C1984.1 108.555 1984.05 110.557 1984.05 112.514V164.473H1891.83C1875.82 164.473 1861.46 157.435 1851.7 146.284C1845.59 139.318 1841.29 130.758 1839.5 121.301C1838.87 118.076 1838.55 114.742 1838.55 111.336C1838.55 108.32 1838.81 105.367 1839.3 102.486C1843.51 77.3491 1865.43 58.1995 1891.83 58.1995C1900.41 58.1995 1908.51 60.2195 1915.7 63.8158C1933.32 72.6296 1944.2 90.8734 1944.48 110.53L1944.28 121.301H1858.24C1862.55 135.74 1875.95 146.284 1891.83 146.284H1966.69V111.336M1891.83 76.3889C1875.55 76.3889 1861.86 87.4674 1857.94 102.486H1925.73C1921.81 87.4674 1908.12 76.3889 1891.83 76.3889Z" fill="#CCCCCC"/>
</g>
<defs>
<clipPath id="clip0_16_1151">
<rect width="202" height="203" fill="white" transform="translate(-108.924 20)"/>
</clipPath>
<clipPath id="clip1_16_1151">
<rect width="202" height="203" fill="white" transform="translate(103.076 20)"/>
</clipPath>
<clipPath id="clip2_16_1151">
<rect width="202" height="203" fill="white" transform="matrix(-1 0 0 -1 517.076 223)"/>
</clipPath>
<clipPath id="clip3_16_1151">
<rect width="202" height="203" fill="white" transform="translate(527.076 20)"/>
</clipPath>
<clipPath id="clip4_16_1151">
<rect width="202" height="203" fill="white" transform="matrix(-1 0 0 -1 941.076 223)"/>
</clipPath>
<clipPath id="clip5_16_1151">
<rect width="202" height="203" fill="white" transform="translate(951.076 20)"/>
</clipPath>
<clipPath id="clip6_16_1151">
<rect width="202" height="203" fill="white" transform="matrix(-1 0 0 -1 1365.08 223)"/>
</clipPath>
<clipPath id="clip7_16_1151">
<rect width="202" height="203" fill="white" transform="translate(1375.08 20)"/>
</clipPath>
<clipPath id="clip8_16_1151">
<rect width="202" height="203" fill="white" transform="matrix(-1 0 0 -1 1789.08 223)"/>
</clipPath>
<clipPath id="clip9_16_1151">
<rect width="202" height="203" fill="white" transform="translate(1799.08 20)"/>
</clipPath>
</defs>
</svg>
