<svg width="120" height="120" viewBox="0 0 120 120" fill="none" xmlns="http://www.w3.org/2000/svg">
<rect width="120" height="120" rx="12" fill="#EEC643"/>
<g clip-path="url(#clip0_210_1300)">
<path d="M61.7214 99C59.0753 98.2872 57.8711 96.5441 57.6841 93.903C57.4179 90.1287 58.1987 85.2786 57.6976 81.7042C57.6138 81.1105 56.8629 80.1654 56.6744 79.3585C56.3199 77.8418 56.3184 74.9391 56.7043 73.4311C58.0416 68.2165 64.5606 70.3653 68.4722 69.9141C68.6981 69.8876 68.8701 69.895 69.0063 69.6774V66.4793C69.0063 65.521 70.7818 64.0102 71.7556 63.85C73.4265 63.5751 78.7712 63.6413 80.5617 63.8073C81.6971 63.9132 82.7995 64.6774 83.2962 65.6901C83.3769 65.8561 83.733 66.8453 83.733 66.9364V69.9067H92.1815C93.3902 69.9067 95.2406 71.6248 95.6998 72.6963C96.4358 74.4144 96.3191 78.5546 95.6325 80.3051C95.4111 80.8694 94.9623 81.2692 94.8905 81.8615C94.3984 85.8915 95.4635 91.0649 94.8247 95.0494C94.4897 97.1379 92.8667 98.4841 90.8637 99.0015H61.717L61.7214 99ZM71.3323 66.9349C71.1588 67.7256 71.461 69.0469 71.3323 69.9052H81.4099V67.2392C81.4099 66.6983 80.816 66.1589 80.2536 66.0898C77.8004 65.7885 74.7144 66.325 72.1894 66.1001C71.8918 66.1207 71.3847 66.7012 71.3323 66.9335V66.9349ZM71.3323 83.2342C71.4415 83.8838 71.253 84.7613 71.3323 85.4432C72.6487 85.4535 73.9695 85.6725 75.2799 85.7548C76.2671 85.8165 78.9941 85.2801 78.7099 86.9747C78.5767 87.7727 77.8677 87.9726 77.1527 88.0388C75.2604 88.2122 73.1842 87.7125 71.2755 87.7492C71.0376 87.8301 70.8342 88.6311 70.6248 88.9368C69.2546 90.9371 66.1267 90.943 64.6937 88.997C63.8845 87.8991 64.0954 87.1702 63.9757 85.8944L60.0162 83.9206V94.2028C60.0162 94.2543 60.2091 95.1038 60.2435 95.1993C60.5532 96.0459 61.515 96.672 62.4125 96.7249L90.3267 96.7175C91.1629 96.7954 92.5735 95.5476 92.5735 94.8127V83.9221C91.8704 84.1249 91.29 84.679 90.6633 85.0155C90.1831 85.2727 88.7949 85.5917 88.6962 86.1296C88.5003 87.1981 88.7815 87.7522 88.0515 88.8471C86.2191 91.597 81.7794 90.5638 81.4099 87.3495C81.3201 86.5632 81.2768 83.6384 81.4144 82.9344C81.4593 82.6992 81.8362 82.2539 82.0352 82.1731C82.4106 82.0202 87.0792 82.0114 87.6805 82.1025C88.6663 82.2524 88.6304 83.3209 88.78 83.3165C90.8398 82.4479 93.5084 80.721 93.7971 78.3459C93.9048 77.4626 93.9332 74.9714 93.7776 74.1337C93.637 73.3738 92.8562 72.4846 92.0798 72.298L61.171 72.1863C58.5293 72.4405 58.6355 75.4711 58.7686 77.4567C58.8703 78.9852 59.2473 79.9847 60.3423 81.0899C60.8748 81.6278 63.129 83.2401 63.8171 83.3151C64.215 83.3577 63.9592 82.6743 64.3631 82.3289C64.6204 82.1084 64.8912 82.1172 65.2038 82.0893C66.1462 82.0055 69.6555 81.9482 70.4483 82.129C70.906 82.2333 71.2635 82.8183 71.3338 83.2386L71.3323 83.2342ZM69.0078 84.3762H66.3721V87.3465C66.3721 87.711 67.295 88.2034 67.6779 88.1828C68.2494 88.1519 69.0078 87.4215 69.0078 86.8894V84.3762ZM86.3716 84.3762H83.736V87.3465C83.736 87.5538 84.6649 88.1916 85.0373 88.1784C85.5714 88.1593 86.3716 87.5611 86.3716 87.0423V84.3762Z" fill="#011638"/>
<path d="M48.0779 70.5148L47.1385 91.7538C46.962 92.9913 45.508 93.3294 44.8544 92.1888L45.7504 68.6864C44.0705 69.6491 42.3937 69.1802 41.191 67.759C40.4476 66.8816 36.7663 60.8895 36.3414 60.7822C33.5562 61.9565 30.1935 62.4254 27.9946 64.5726C27.8465 64.6887 28.0798 64.7813 28.1531 64.8769C30.9923 68.56 34.2293 68.9127 34.5943 74.5433C34.9518 80.0459 34.3131 85.916 34.5883 91.4584C34.5808 92.9193 32.9369 93.5028 32.2652 92.0639C31.9601 86.3878 32.6586 80.3281 32.2682 74.6961C32.1875 73.5218 31.9347 72.3842 31.3049 71.379C30.735 70.4692 28.0454 67.7634 27.1479 67.0859C26.9923 66.9683 26.952 66.7905 26.6827 66.8595C26.3147 68.1294 26.6528 69.3684 26.6887 70.5838C26.8293 75.3178 26.9654 80.0298 27.1404 84.7623C27.2182 86.842 27.652 89.5962 27.4635 91.6186C27.299 93.3911 25.32 93.3279 25.127 91.6157L24.2056 67.6987C24.602 64.3728 26.4419 62.1887 29.477 60.8439C31.3034 60.0356 34.4178 59.3463 35.972 58.391C37.3362 57.5532 38.5837 55.3471 40.1469 54.5726C40.2486 54.2713 40.2112 52.2592 40.102 51.9227C39.9868 51.5685 39.224 50.8748 38.9607 50.4544C38.0602 49.0214 37.3571 47.5444 37.0355 45.8733C34.2517 45.5764 33.0311 43.7392 33.3677 41.0555C33.5367 39.7019 34.2682 38.9038 35.3392 38.1307C35.1627 37.1666 34.892 36.2025 34.7678 35.228C34.2128 30.8512 33.9211 26.6007 38.7408 24.7048C40.2486 24.1125 40.5493 23.8729 41.9285 23.1145C46.9007 20.3779 54.5295 20.1707 59.3836 23.2292C63.391 25.7542 64.83 30.2501 64.7642 34.768C64.7477 35.8909 64.2691 37.6869 64.3439 38.6025C64.3842 39.1066 64.9048 39.5108 65.1008 40.0046C65.9354 42.1019 65.2414 44.9826 62.848 45.6484C62.5758 45.7234 62.2272 45.6293 61.9804 45.7101C61.6663 45.8145 60.9483 48.4027 60.6641 48.9862C60.2886 49.7563 58.5923 51.7257 58.4981 52.0373C58.4158 52.3048 58.4038 54.1449 58.4636 54.4462C58.534 54.796 59.3238 55.0414 59.7082 55.356C60.691 56.1599 61.8428 57.7707 62.8136 58.3968C64.3274 59.3727 67.2832 59.7534 68.812 60.7293C69.7933 61.3569 69.3505 62.9163 68.1792 62.8516C67.2219 62.7987 64.4934 61.4377 63.3521 61.0659C63.0993 60.9836 62.3948 60.6764 62.2123 60.7822L57.074 68.3057C55.8309 69.3948 54.3859 69.2714 52.8856 68.8363L53.9372 92.0316C53.5528 93.2191 51.8475 93.1589 51.6545 91.9037L50.7151 70.5103H48.0794L48.0779 70.5148ZM58.148 37.0108C52.736 37.8677 46.0017 38.0852 41.6487 34.258C40.9726 33.6642 39.2344 31.9917 40.7931 31.295C41.9853 30.763 42.4356 31.9505 43.1147 32.512C46.2829 35.1251 50.6972 35.5058 54.6642 35.1751C55.7831 35.0825 58.2497 34.4035 59.1293 34.6005C60.145 34.8283 60.4756 37.5428 60.9393 37.8486C61.1472 37.9852 61.9729 37.9896 62.1195 37.7765C63.1487 31.5493 61.6513 25.3206 54.6881 23.7318C50.7091 22.8235 46.425 23.2527 42.8574 25.25C42.2351 25.5984 41.4887 26.3141 40.9307 26.5552C40.2142 26.8653 39.4244 26.7844 38.666 27.2239C36.2293 28.6348 36.7812 32.7295 37.0894 35.0825C37.1417 35.4838 37.598 37.8882 37.7251 38.0367L39.1402 38.6584C39.8029 38.5334 40.7467 35.6234 42.1932 37.0755C43.3331 38.2189 40.4894 40.9173 39.399 41.2025C38.1694 41.5243 37.8807 40.4059 37.1133 40.2354C35.3437 39.843 35.2001 42.7883 36.3923 43.3836C36.9218 43.6481 37.3362 43.4717 37.8388 43.6378C39.3002 44.1184 39.405 46.2113 39.8971 47.4033C43.0877 55.1326 54.193 55.7322 58.3365 48.3792C59.0171 47.1696 59.3073 45.0194 60.0163 44.2419C61.1532 42.9955 63.2639 44.2154 63.1232 41.6566C62.9856 39.1419 60.6416 40.9776 59.3537 39.7533C58.881 39.3036 58.3455 37.6795 58.1465 37.0123L58.148 37.0108ZM56.1406 53.9112C52.0045 56.5611 46.6643 56.4436 42.4984 53.9112V56.2716L49.3703 62.1138L56.1421 56.423V53.9097L56.1406 53.9112ZM40.2486 57.4209L38.3309 59.4433L43.1162 66.4789C43.4378 66.8375 43.9329 66.9433 44.3951 66.8243C44.8185 66.7155 47.6396 63.9833 47.6007 63.7569L40.2486 57.4209ZM55.6215 66.5024L60.3036 59.5858C60.4247 59.1067 58.7135 57.8721 58.3874 57.4165L51.1893 63.7555C51.1534 63.9392 51.3165 64.0053 51.4062 64.12C51.674 64.4609 53.7846 66.5406 54.0658 66.6846C54.6223 66.9698 55.1638 66.933 55.6215 66.5009V66.5024ZM50.5581 68.2293C50.7226 66.8081 50.5296 66.1996 49.3958 65.3384C48.3666 66.1673 48.1393 66.5876 48.1422 67.9192C48.1422 68.097 48.1527 68.1161 48.3113 68.2308H50.5595L50.5581 68.2293Z" fill="#011638"/>
</g>
<defs>
<clipPath id="clip0_210_1300">
<rect width="71.589" height="78" fill="white" transform="translate(24.2056 21)"/>
</clipPath>
</defs>
</svg>
