<svg width="120" height="120" viewBox="0 0 120 120" fill="none" xmlns="http://www.w3.org/2000/svg">
<rect width="120" height="120" rx="12" fill="#49B70E"/>
<g clip-path="url(#clip0_210_1298)">
<path d="M21.6467 76.4908C22.0407 72.8139 24.8451 69.8027 28.1729 68.5152C31.5655 67.201 35.2508 66.4467 38.6405 65.1648C40.004 64.6498 41.141 62.2015 43.2643 62.8037L43.239 59.1424C40.1715 56.8671 38.1691 53.504 37.7146 49.671C36.3019 49.2348 35.4477 48.3863 35.1973 46.8948C35.3591 38.9122 32.7053 25.9822 44.2324 25.1914C47.7094 24.9536 53.3984 24.9198 56.8529 25.1914C59.5405 25.4024 61.5681 27.2528 61.5752 30.0108C64.5188 30.0586 66.32 32.0145 66.5352 34.8935C66.766 37.9919 66.7759 43.2461 66.5352 46.3362C66.4635 47.248 66.1342 48.3568 65.4067 48.9661C65.0789 49.2405 64.0362 49.5599 63.9644 49.6612C63.8716 49.7935 63.4368 52.2081 63.2299 52.8019C62.3617 55.2995 60.6127 57.4974 58.4978 59.0411L58.4232 62.8037C59.1507 62.7545 59.8739 62.8459 60.5353 63.1696C61.4021 63.5959 62.29 64.8989 63.0709 65.1409C63.7576 65.3548 64.6722 65.3365 65.4729 65.5912C66.3186 65.8614 66.9222 66.3637 67.6919 66.6761C71.895 68.3815 76.1332 68.2704 78.7139 72.7788C81.3846 77.4434 79.447 85.82 80.0239 91.1389C79.7678 93.3354 77.8175 94.9888 75.6182 94.9972L25.7766 94.9874C23.6195 94.7904 22.1856 93.4353 21.6467 91.3795C22.0182 86.6431 21.1486 81.1328 21.6467 76.4879V76.4908ZM64.2796 41.4422V34.598C64.2796 34.0028 63.5859 32.9756 63.0723 32.6491C61.9171 31.9146 60.8378 32.7152 59.7783 31.287C59.169 30.4653 59.4518 29.9249 59.1451 29.0638C58.7525 27.9634 57.8041 27.5427 56.7051 27.447C53.4575 27.1642 47.6616 27.205 44.3844 27.447C41.0073 27.6961 37.4093 30.5173 37.4093 34.1463V41.4422C38.2521 41.5112 39.9013 41.5548 40.1081 40.4614C40.3881 38.9812 39.807 38.2396 40.799 36.6411C42.6114 33.7227 45.3722 35.4507 47.8839 35.8348C50.1381 36.1796 52.4458 36.0937 54.6774 35.6561C56.753 35.2495 58.5977 34.1364 60.4495 36.029C61.7736 37.3813 61.3627 38.7504 61.5695 40.3221C61.7342 41.5815 63.3214 41.5055 64.2796 41.4422ZM64.2796 43.6978C62.252 43.9736 59.7403 43.142 59.3603 40.8794C59.1296 39.506 59.8528 37.0224 57.4678 37.2434C55.9762 37.3813 54.2229 38.1608 52.4936 38.2818C49.0841 38.5182 47.3914 37.7021 44.352 37.2659C41.8304 36.9042 42.5636 39.4582 42.3258 40.8794C41.9529 43.1096 39.4102 43.9947 37.4065 43.6964C37.4979 44.6124 37.2798 45.7353 37.4177 46.6204C37.6147 47.8854 39.496 46.9426 39.9252 48.7705C40.5162 51.285 40.4487 52.8441 42.2146 55.0505C48.0007 62.2831 59.3153 59.6996 61.4767 50.7433C61.6554 50.0045 61.6286 48.8268 61.9635 48.2231C62.5039 47.2466 63.8125 47.5322 64.1037 47.0594L64.2782 43.6978H64.2796ZM56.1732 60.3961C52.8144 61.8666 48.8759 61.8455 45.5157 60.3961V64.1559C45.5157 64.1813 45.7943 64.201 45.9688 64.3712C47.5673 65.9331 49.1672 67.4894 50.8445 68.9669L56.1732 64.08V60.3947V60.3961ZM42.4707 65.0875C42.1907 65.1508 40.8483 66.1442 40.92 66.42C42.42 68.1676 43.6892 70.5288 45.2202 72.199C45.5171 72.5227 45.8168 72.9955 46.3079 72.8576C46.9242 72.6845 48.3834 70.8904 49.1165 70.5485L43.5584 65.2901C43.2446 65.0424 42.8548 65.0002 42.4721 65.086L42.4707 65.0875ZM52.571 70.3262C52.5147 70.5555 52.6062 70.5668 52.73 70.6906C53.0255 70.9861 55.1713 72.7999 55.3866 72.8548C55.5161 72.8871 55.6357 72.9124 55.7652 72.8604L60.7576 66.2596C60.0836 65.6644 59.3069 64.7118 58.3134 65.1733L52.5724 70.3262H52.571ZM53.321 92.7346C53.6882 92.7768 53.9457 92.7275 54.2764 92.5643C55.5611 91.9297 59.0226 88.8115 60.2285 87.6985C61.9283 86.1295 65.9724 82.1009 66.1989 79.8299C66.3903 77.9105 64.3233 77.525 64.7946 75.5761C65.0986 74.3168 68.1225 73.0883 68.138 71.7825C68.1647 69.6085 65.5869 67.5752 63.5282 67.4641C62.6854 76.6554 57.7787 84.8927 53.3196 92.7331L53.321 92.7346ZM25.6246 92.736C27.1598 92.9921 29.3437 92.546 30.9534 92.736V86.1928C30.9534 86.1253 31.3657 85.5681 31.4684 85.5062C31.9961 85.1868 33.2048 85.4372 33.2048 86.0423V92.736H44.7629L40.4881 88.8228C40.1813 88.1642 40.6597 87.2243 41.3942 87.175C42.216 87.1201 44.2422 89.266 44.9922 89.8739C45.7127 90.4578 47.8754 92.3701 48.5227 92.6543C48.7211 92.7416 49.4134 92.8879 49.2657 92.5122C44.4899 84.8139 39.3441 76.7919 38.0819 67.6132C36.444 67.9045 34.5373 70.101 34.5528 71.7572C34.5669 73.1742 37.7653 74.2886 37.9792 75.8547C38.217 77.5982 35.9473 78.0034 36.6494 80.4856C37.0097 81.7562 38.7123 83.3842 38.8783 84.1202C39.0697 84.963 38.7095 85.7271 37.7836 85.6849C36.9843 85.6483 35.4041 83.1577 35.0326 82.4063C34.2433 80.8106 33.9126 79.274 34.6766 77.5911C34.8511 77.2084 35.5167 76.4331 35.4421 76.1432C33.1809 74.4012 31.3052 72.4312 32.9037 69.4228C28.5768 70.4683 24.2977 72.033 23.8911 77.162C23.5435 81.562 24.1641 86.411 23.8925 90.8589C23.9572 91.6891 24.8395 92.6051 25.6218 92.736H25.6246ZM70.7341 92.736H76.0629C76.6989 92.736 77.8204 91.5835 77.7922 90.8589C77.5361 86.4475 78.1215 81.6788 77.795 77.3111C77.4475 72.6549 74.0605 70.7863 69.9855 69.7211C71.1647 72.51 69.455 74.6798 67.1347 76.0447C68.1211 77.7262 68.7613 78.8435 68.259 80.8542C67.1544 85.2726 61.0222 89.7149 57.8252 92.736H68.4827V86.0423C68.4827 85.4358 69.6914 85.1868 70.2191 85.5062C70.3204 85.5681 70.7341 86.1253 70.7341 86.1928V92.736ZM56.0212 83.4096C57.9771 79.0742 60.0878 74.7445 60.9757 70.0222C59.6094 71.2605 58.3585 74.2985 56.6207 74.9077C56.0986 75.0907 55.0419 75.0808 54.8224 75.2117C54.6718 75.3017 54.1962 76.1136 53.9457 76.2938C54.6169 78.4635 54.9378 81.1005 55.7089 83.1999C55.7849 83.4067 55.6554 83.4574 56.0227 83.4082L56.0212 83.4096ZM46.4148 82.9593L47.7446 76.2994C47.7136 76.184 46.8243 75.2623 46.7132 75.2159C45.8126 74.8318 44.9697 75.2004 43.9397 74.2351L40.8623 70.1756C41.8319 74.2802 43.6484 78.5466 45.7366 82.2107C45.7873 82.2993 46.2094 83.2154 46.4148 82.9593ZM53.0213 73.7863L50.8445 72.1231L48.6662 73.8608C49.208 75.1287 50.5433 75.1568 51.7535 74.995C52.3402 74.9162 52.7708 74.2985 53.0213 73.7877V73.7863ZM51.7999 77.2619L49.8834 77.2576L47.9585 85.9199C47.9528 86.2463 51.0035 91.3879 51.2961 91.5315C51.5297 91.6469 51.5016 91.4287 51.5522 91.3401C52.4739 89.7472 53.4209 88.1473 54.2159 86.4841L51.7999 77.2604V77.2619Z" fill="#011638"/>
<path d="M96.253 45.5046H88.5223C88.2535 45.5046 87.194 44.908 86.9435 44.68C86.7324 44.4858 86.0458 43.5037 86.0458 43.3236V35.3508L85.8206 35.1257H70.2086C69.4488 35.1257 68.9141 33.1304 70.673 32.8827C75.7372 33.1585 81.2672 32.469 86.2765 32.863C86.9702 32.9179 87.6752 33.0825 88.2873 33.4048C89.7268 34.1618 95.8773 40.4404 97.1578 41.9657C97.8754 42.8212 98.4045 43.6627 98.5114 44.8207V82.5892C98.0274 89.0747 88.4083 86.017 84.1785 86.7093C82.8024 86.4982 82.6279 85.0081 83.8718 84.4663L94.3365 84.4227C94.988 84.4692 96.2516 83.4898 96.2516 82.8833V45.5046H96.253ZM95.0513 43.2476L88.2958 36.4793V42.8719C88.2958 42.9056 88.7643 43.2476 88.8206 43.2476H95.0499H95.0513Z" fill="#011638"/>
<path d="M72.0349 50.8264C73.3196 50.8053 76.9064 51.5778 76.0593 53.4746C75.5049 54.7157 74.1175 53.4802 73.4083 53.2776C70.0101 52.3109 66.906 55.4277 68.1541 58.8442C68.8675 60.7986 71.1695 62.0566 73.1691 61.4065C74.2793 61.0449 74.9688 59.6167 76.0705 60.2386C77.5142 61.0533 75.8327 62.5927 74.9828 63.074C70.9627 65.3507 65.8886 62.2649 65.6255 57.7691C65.406 54.0276 68.2976 50.8869 72.0363 50.8264H72.0349Z" fill="#011638"/>
<path d="M83.9422 59.193L86.582 51.3821C87.2757 50.2536 88.9558 50.8024 88.6856 52.1265C87.2489 55.5078 86.4469 59.6658 84.9159 62.95C84.4094 64.0349 83.5665 64.2573 82.7757 63.2962L79.0581 52.4318C78.5107 51.1865 80.2049 50.0833 80.9746 51.2611C81.9596 53.4956 82.4957 55.9102 83.3808 58.1771C83.5088 58.5035 83.6186 59.0228 83.9408 59.193H83.9422Z" fill="#011638"/>
</g>
<defs>
<clipPath id="clip0_210_1298">
<rect width="77.0229" height="70" fill="white" transform="translate(21.4888 25)"/>
</clipPath>
</defs>
</svg>
