<svg width="120" height="120" viewBox="0 0 120 120" fill="none" xmlns="http://www.w3.org/2000/svg">
<rect width="120" height="120" rx="12" fill="#011638"/>
<g clip-path="url(#clip0_210_1299)">
<path d="M90.6087 86.4873C90.4475 88.8134 90.8266 91.4193 90.6165 93.7119C90.4269 95.7827 88.8719 97.2256 86.8655 97.5737L33.4268 97.5969C27.627 96.8774 29.7893 90.5412 29.3883 86.4886C27.1163 86.8083 25.021 85.782 24.3286 83.5384C24.3247 77.5658 23.7355 70.9394 24.1455 64.9913C24.2706 63.1797 25.1319 61.3784 27.0377 60.9039C27.6347 60.7556 29.2284 60.9529 29.3651 60.5351L29.3819 26.4506C29.5469 24.2392 31.383 22.5294 33.5841 22.4044H86.4117C88.5869 22.5075 90.4733 24.2701 90.6152 26.4493L90.6087 60.3971L90.8692 60.7711C93.6724 60.4719 95.6271 62.0231 95.8489 64.8315C96.3067 70.6467 95.5536 77.1261 95.7716 83.0058C95.337 85.5447 93.0909 86.8496 90.6074 86.486L90.6087 86.4873ZM88.0711 60.793V26.2958C88.0711 25.655 86.7675 24.8169 86.0945 24.9406L33.3417 25.018C32.8401 25.0025 31.9233 25.8845 31.9233 26.2958V60.793H88.0699H88.0711ZM27.7546 63.3641C27.0802 63.5756 26.7308 64.1506 26.6908 64.8379C27.0983 70.4314 26.1493 76.7908 26.6831 82.2928C26.7514 82.9929 27.0196 83.6931 27.7559 83.9162L92.3623 83.8788C92.8497 83.7266 93.105 83.1748 93.2688 82.7235L93.3049 64.8366C93.2636 64.1494 92.9155 63.5743 92.2411 63.3628H27.7546V63.3641ZM88.0711 86.4873H31.9246V93.8628C31.9246 94.3038 33.1998 95.2399 33.7427 95.0581H86.0958C86.6811 95.285 88.0711 94.3631 88.0711 93.8628V86.4873Z" fill="white"/>
<path d="M36.9586 29.1093L83.165 29.1403C83.7517 29.2795 84.0741 29.6432 84.1102 30.2569L84.0728 42.1222C83.9438 42.6857 83.468 42.8945 82.9252 42.8778L36.6388 42.8365C36.1463 42.7231 35.9051 42.3362 35.8884 41.8424C36.1437 38.1559 35.5596 34.0465 35.8832 30.4117C35.9516 29.638 36.1592 29.2628 36.9599 29.1093H36.9586ZM81.5687 31.6095H38.4273V40.3325H81.5687V31.6095Z" fill="white"/>
<path d="M36.7957 47.0284L83.4315 47.1135C84.494 47.6873 84.3225 49.3765 83.0833 49.5402H36.9117C35.5669 49.3623 35.505 47.4101 36.7957 47.0284Z" fill="white"/>
<path d="M36.6373 54.1654L83.4807 54.2015C84.8243 55.1041 84.0133 56.7623 82.4466 56.6759H37.5477C35.914 56.7906 35.1326 54.8991 36.6361 54.1654H36.6373Z" fill="white"/>
<path d="M67.2483 67.8049C68.0064 67.6347 71.0791 67.7004 71.9018 67.8423C74.1467 68.2291 75.3523 70.394 74.665 72.5254C74.5528 72.8749 74.1235 73.3855 74.1492 73.6937C74.1995 74.2842 74.977 74.9521 74.8971 76.0765C74.6405 79.6611 70.6111 79.7849 67.8517 79.5064C66.8008 79.4006 66.2773 79.1079 66.1768 78.0093C65.9137 75.1481 66.3805 71.8769 66.1935 68.9705C66.267 68.4728 66.7621 67.9145 67.2495 67.8049H67.2483ZM68.7208 72.372H71.4969C71.7767 72.372 72.3582 71.6847 72.3582 71.3405C72.3582 70.9962 71.778 70.3089 71.4969 70.3089H68.7208V72.3707V72.372ZM71.6555 74.9096C70.8032 74.7652 69.6169 75.0153 68.7208 74.9096L68.8691 76.9017C69.7742 76.9778 71.9766 77.2937 72.3054 76.1797C72.424 75.7786 72.0952 74.9831 71.6542 74.9083L71.6555 74.9096Z" fill="white"/>
<path d="M59.0113 67.8178C61.4341 67.547 64.0091 69.3032 64.2812 71.8162C64.6126 74.8748 64.2593 78.5612 60.6708 79.3091C53.4204 80.8203 52.5668 68.5385 59.01 67.8178H59.0113ZM59.1648 70.3424C57.2255 70.6635 57.1275 73.1353 57.3003 74.671C57.6213 77.5206 61.4329 77.589 61.7449 74.9908C61.8236 74.3319 61.8248 72.029 61.5631 71.5184C61.1647 70.7435 60.0248 70.1993 59.1648 70.3424Z" fill="white"/>
<path d="M47.0713 70.3102C45.9856 70.0807 45.925 68.2162 47.1423 67.8436C47.6864 67.6772 50.8481 67.6837 51.5186 67.7662C52.278 67.859 52.6262 68.4019 52.7061 69.1175C52.875 70.639 52.8544 75.8831 52.3515 77.1777C51.2491 80.0183 46.9669 80.2027 45.5924 77.4987C45.0534 76.4375 44.6949 74.35 46.4331 74.4235C47.6658 74.4763 47.4337 75.4202 47.747 76.1371C48.2834 77.3608 50.1634 76.8411 50.1634 75.7825V70.3102C49.2634 70.1813 47.9017 70.4856 47.07 70.3102H47.0713Z" fill="white"/>
<path d="M31.2439 66.5361L41.1944 66.5116C42.6772 66.7475 42.5831 68.8674 41.2111 69.0492L31.2142 69.0376C29.988 68.5875 29.9674 66.9306 31.2439 66.5361Z" fill="white"/>
<path d="M78.6672 66.5361L88.6177 66.5116C90.1005 66.7475 90.0064 68.8674 88.6345 69.0492L78.6376 69.0376C77.4113 68.5875 77.3907 66.9306 78.6672 66.5361Z" fill="white"/>
<path d="M31.0854 72.4042L41.3583 72.3746C42.707 72.911 42.5742 74.7329 41.0475 74.9122C38.0728 75.2616 34.4263 74.6517 31.3781 74.8993C30.0436 74.6891 29.943 72.9613 31.0842 72.4029L31.0854 72.4042Z" fill="white"/>
<path d="M78.5088 72.4042L88.7816 72.3746C90.1303 72.911 89.9975 74.7329 88.4709 74.9122C85.4962 75.2616 81.8497 74.6517 78.8015 74.8993C77.4669 74.6891 77.3664 72.9613 78.5075 72.4029L78.5088 72.4042Z" fill="white"/>
<path d="M31.0867 78.2737L41.3518 78.2492C42.6683 78.4555 42.7315 80.5559 40.7277 80.7777C38.8593 80.984 33.5276 81.0085 31.7005 80.7635C29.9404 80.5276 29.9262 78.5393 31.0867 78.2737Z" fill="white"/>
<path d="M78.5101 78.2737L88.7751 78.2492C90.0916 78.4555 90.1548 80.5559 88.1511 80.7777C86.2827 80.984 80.9509 81.0085 79.1238 80.7635C77.3638 80.5276 77.3496 78.5393 78.5101 78.2737Z" fill="white"/>
</g>
<defs>
<clipPath id="clip0_210_1299">
<rect width="72" height="75.1913" fill="white" transform="translate(24 22.4044)"/>
</clipPath>
</defs>
</svg>
