<svg width="120" height="120" viewBox="0 0 120 120" fill="none" xmlns="http://www.w3.org/2000/svg">
<rect width="120" height="120" rx="12" fill="#061158"/>
<g clip-path="url(#clip0_210_1276)">
<path d="M87.0624 45.4954L88.2053 43.8151C91.6093 39.7619 99.1001 43.9159 97.732 48.918C94.4735 55.3293 90.5261 61.396 87.0972 67.7289L86.9206 91.8105L86.1545 92.5704L37.5459 92.6463C37.0969 92.8155 36.1032 91.9847 36.1032 91.6476V80.2815H23.0594C22.7099 80.2815 22.0756 79.4072 22.2124 78.9918C22.4997 74.7956 21.8555 70.1516 22.2136 66.0113C22.6962 60.4495 29.6422 59.2058 34.1183 58.7681L32.1396 57.012C28.4035 52.2859 28.9358 43.35 36.102 42.5963L36.0995 28.6346C36.153 27.8971 36.7997 27.3014 37.5459 27.3312L77.9735 27.3486L78.9784 27.8697C81.1113 30.4554 84.524 32.8383 86.5313 35.4214C86.637 35.5582 87.0611 36.1863 87.0611 36.2647V45.4954H87.0624ZM76.6875 29.78H38.5458V42.5963C45.7369 43.2306 46.3351 52.4911 42.4386 57.0916L40.5308 58.7668C43.3788 59.135 46.5577 59.4981 49.0613 60.993C50.004 61.5552 50.5736 62.2765 51.4417 62.8847L71.5485 62.9232C72.4029 63.0675 72.4975 64.6445 71.852 65.0313C71.7836 65.0724 71.0137 65.3286 70.9665 65.3286H52.4292V68.9141L52.658 69.143H57.8455C58.1291 69.143 58.6079 69.7996 58.5345 70.1317C58.2074 75.1687 58.9598 80.7292 58.5382 85.7028C58.4798 86.3943 58.3106 86.7512 57.547 86.847C54.1965 87.2661 49.9928 86.5136 46.5478 86.8482C46.3028 86.9713 45.564 86.2164 45.564 86.1542V80.2803H38.5458V90.1975H84.3922L84.621 89.9686V72.195L78.8117 81.8722L70.9292 86.352C69.9355 86.5149 69.4442 86.0572 69.3559 85.0946C69.1009 82.2963 69.4442 78.8948 69.5076 76.0778L84.6198 49.9963V37.7148H77.8304C77.5369 37.7148 76.6862 37.0009 76.6862 36.7236V29.78H76.6875ZM82.7903 35.2734L79.1288 31.612V35.2734H82.7903ZM91.4476 44.6148C90.5634 44.7541 89.9651 45.4904 89.5323 46.2105L72.2711 76.0865L77.5295 79.192L95.2683 48.5897C96.3677 46.5015 93.1739 44.3425 91.4476 44.6148ZM36.6828 44.9307C29.447 45.6259 32.1284 57.3739 37.3942 57.2483C42.0369 57.1376 44.0604 48.6917 40.7534 45.958C39.6789 45.07 38.0446 44.8001 36.6828 44.9307ZM49.9878 77.8401V65.7104C49.9878 65.3509 49.1521 64.1023 48.8424 63.805C45.0417 60.1647 30.4855 60.3028 26.3539 63.4356C25.7532 63.8908 24.6625 65.086 24.6625 65.8633V77.8401H28.4769V69.2201C28.4769 67.8358 30.9183 67.9241 30.9183 68.9154V77.8401H43.7345V68.9154C43.7345 68.5273 44.635 68.1007 45.0081 68.1206C45.3812 68.1405 46.1759 68.7363 46.1759 69.0683V77.8414H49.9903L49.9878 77.8401ZM56.0906 71.5843H52.4292V79.442C52.4292 79.6211 51.7688 80.2815 51.5897 80.2815H48.0041V84.4006H56.0906V71.5843ZM71.8047 78.7555V83.0276L75.4674 80.9668L71.8047 78.7567V78.7555Z" fill="white"/>
<path d="M46.5908 36.8356L68.2995 36.8716C68.7883 37.0681 69.1129 37.241 69.2012 37.8007C69.4897 39.6227 69.0619 42.2295 69.1427 44.1311C68.9661 44.5763 68.557 44.8773 68.0707 44.8897L46.3185 44.8176C45.9093 44.6509 45.6406 44.3239 45.5722 43.8848C45.4019 42.7966 45.428 39.0804 45.5598 37.94C45.6357 37.2758 45.9329 36.9537 46.5908 36.8356ZM66.7698 39.2396H48.0037V42.4434H66.7698V39.2396Z" fill="white"/>
<path d="M46.5899 50.26L76.767 50.2215C78.579 50.4379 78.3477 52.5098 77.0766 52.674L46.177 52.587C45.1609 51.9328 45.3761 50.505 46.5899 50.2612V50.26Z" fill="white"/>
<path d="M77.7109 56.8304C78.4298 57.4386 78.0629 58.849 77.0767 58.9286H46.5464C44.8314 58.4087 45.4122 56.3927 47.1583 56.4735H76.4635C76.8117 56.5021 77.451 56.6116 77.7097 56.8304H77.7109Z" fill="white"/>
</g>
<defs>
<clipPath id="clip0_210_1276">
<rect width="75.7945" height="65.3375" fill="white" transform="translate(22.1025 27.3313)"/>
</clipPath>
</defs>
</svg>
