<svg width="321" height="321" viewBox="0 0 321 321" fill="none" xmlns="http://www.w3.org/2000/svg">
<path d="M251.824 172.339L205.132 154.684C204.365 154.393 203.662 153.955 203.065 153.393C202.467 152.832 201.986 152.158 201.649 151.41C201.313 150.662 201.126 149.856 201.102 149.036C201.077 148.216 201.214 147.4 201.504 146.633L225.939 82.0091C226.525 80.4598 227.702 79.2067 229.212 78.5253C230.722 77.8438 232.44 77.7899 233.99 78.3754L263.605 89.5719L277.588 121.864L259.875 168.73C259.284 170.275 258.105 171.522 256.596 172.199C255.086 172.875 253.371 172.925 251.824 172.339Z" fill="#F5F5F5"/>
<path d="M263.605 89.5718L256.722 107.76C256.452 108.473 256.325 109.233 256.348 109.996C256.372 110.759 256.545 111.51 256.859 112.205C257.172 112.901 257.62 113.528 258.176 114.051C258.732 114.574 259.386 114.982 260.099 115.252L277.587 121.864L263.605 89.5718Z" fill="#EBEBEB"/>
<path d="M256.356 109.448C256.356 109.448 254.462 113.775 258.924 117.152C259.093 117.278 259.269 117.394 259.451 117.499C261.582 118.783 275.603 127.129 275.732 126.789L277.581 121.897L260.093 115.284C260.093 115.284 255.791 113.454 256.356 109.448Z" fill="#E0E0E0"/>
<path d="M253.089 105.538C252.999 105.776 248.095 104.132 242.13 101.879C236.166 99.6255 231.403 97.6032 231.492 97.3849C231.582 97.1666 236.487 98.7909 242.451 101.044C248.416 103.298 253.179 105.288 253.089 105.538Z" fill="#E0E0E0"/>
<path d="M263.149 121.1C263.059 121.332 255.034 118.532 245.218 114.802C235.402 111.072 227.511 107.888 227.601 107.651C227.691 107.413 235.716 110.219 245.539 113.955C255.361 117.691 263.22 120.863 263.149 121.1Z" fill="#E0E0E0"/>
<path d="M263.104 130.897C263.014 131.128 254.27 128.04 243.568 123.989C232.866 119.938 224.263 116.472 224.353 116.24C224.443 116.009 233.187 119.097 243.889 123.148C254.591 127.199 263.22 130.66 263.104 130.897Z" fill="#E0E0E0"/>
<path d="M260.042 138.999C259.952 139.231 251.208 136.142 240.506 132.091C229.804 128.04 221.201 124.548 221.291 124.343C221.381 124.137 230.125 127.199 240.827 131.244C251.529 135.289 260.132 138.762 260.042 138.999Z" fill="#E0E0E0"/>
<path d="M256.98 147.101C256.89 147.333 248.139 144.245 237.444 140.193C226.748 136.142 218.139 132.676 218.222 132.445C218.306 132.213 227.056 135.301 237.765 139.346C248.473 143.391 257.063 146.864 256.98 147.101Z" fill="#E0E0E0"/>
<path d="M253.911 155.203C253.828 155.435 245.077 152.34 234.381 148.296C223.686 144.251 215.07 140.778 215.16 140.547C215.25 140.315 223.994 143.403 234.696 147.448C245.398 151.493 254.001 154.966 253.911 155.203Z" fill="#E0E0E0"/>
<path d="M96.1503 105.248L34.5949 126.804C32.4666 127.549 31.3454 129.879 32.0907 132.007L62.975 220.199C63.7204 222.327 66.0499 223.448 68.1782 222.703L129.734 201.147C131.862 200.401 132.983 198.072 132.238 195.943L101.353 107.752C100.608 105.623 98.2786 104.502 96.1503 105.248Z" fill="#EBEBEB"/>
<path d="M96.9393 110.729L37.3955 131.581L68.0061 218.991L127.55 198.139L96.9393 110.729Z" fill="#E0E0E0"/>
<path d="M95.8729 110.318L36.3291 131.17L66.3561 216.914L125.9 196.062L95.8729 110.318Z" fill="#FAFAFA"/>
<path d="M125.889 196.06L95.786 110.347L95.8951 110.398L36.3625 131.257L36.4203 131.141C47.6424 163.344 58.0878 193.088 66.4273 216.887L66.331 216.842L125.896 196.06L66.376 216.996H66.3054V216.925C57.9594 193.126 47.5461 163.383 36.2598 131.186V131.096H36.3432L95.8823 110.257H95.9658V110.334L125.889 196.06Z" fill="#E0E0E0"/>
<path d="M104.774 203.456C104.774 203.456 118.032 192.273 120.33 180.627C119 182.473 117.309 184.03 115.361 185.205C113.412 186.38 111.246 187.149 108.992 187.464C108.992 187.464 108.729 199.662 104.774 203.456Z" fill="#E0E0E0"/>
<path d="M56.6785 150.276L53.5459 151.373C52.4014 151.774 51.7985 153.026 52.1993 154.171L53.2963 157.303C53.6971 158.448 54.9498 159.051 56.0943 158.65L59.2269 157.553C60.3714 157.152 60.9742 155.9 60.5734 154.755L59.4764 151.622C59.0756 150.478 57.823 149.875 56.6785 150.276Z" fill="#EBEBEB"/>
<path d="M56.2975 155.672C56.2756 155.683 56.2514 155.689 56.2268 155.689C56.2023 155.689 56.178 155.683 56.1562 155.672L54.7181 154.837C54.6833 154.811 54.6594 154.772 54.6509 154.73C54.6424 154.687 54.6499 154.642 54.672 154.604C54.694 154.566 54.7292 154.538 54.7708 154.524C54.8124 154.51 54.8576 154.512 54.8979 154.529L56.1819 155.261L57.697 152.051C57.7191 152.008 57.7564 151.976 57.8015 151.959C57.8467 151.942 57.8964 151.943 57.941 151.961C57.9627 151.972 57.9822 151.986 57.9982 152.004C58.0142 152.022 58.0265 152.043 58.0343 152.066C58.042 152.088 58.0452 152.112 58.0435 152.136C58.0418 152.16 58.0353 152.184 58.0244 152.205L56.4259 155.621C56.4094 155.638 56.3894 155.651 56.3672 155.66C56.3451 155.669 56.3213 155.673 56.2975 155.672Z" fill="white"/>
<path d="M97.4109 137.003C97.4109 137.054 89.7069 139.808 80.1475 143.153C70.5881 146.498 62.8135 149.169 62.8135 149.124C62.8135 149.079 70.5175 146.318 80.0833 142.973C89.6491 139.629 97.398 136.958 97.4109 137.003Z" fill="#E0E0E0"/>
<path d="M79.2552 149.342C79.2552 149.342 79.0561 149.432 78.6966 149.573L77.143 150.151C75.859 150.626 74.01 151.274 72.007 151.981C70.0039 152.687 68.155 153.316 66.871 153.759L65.2981 154.279C65.1077 154.349 64.9124 154.405 64.7139 154.446C64.8934 154.352 65.0802 154.273 65.2724 154.208L66.826 153.637C68.11 153.156 69.959 152.507 71.962 151.801C73.9651 151.095 75.814 150.472 77.098 150.023L78.6709 149.503C78.8607 149.432 79.0562 149.379 79.2552 149.342Z" fill="#E0E0E0"/>
<path d="M98.2259 139.365C98.2259 139.41 90.5219 142.165 80.9561 145.509C71.3903 148.854 63.6221 151.531 63.6221 151.48C63.6221 151.429 71.3261 148.681 80.8983 145.336C90.4705 141.991 98.2259 139.314 98.2259 139.365Z" fill="#E0E0E0"/>
<path d="M61.1502 163.05L58.0176 164.147C56.8731 164.548 56.2702 165.801 56.671 166.945L57.768 170.078C58.1688 171.222 59.4215 171.825 60.566 171.424L63.6986 170.327C64.843 169.927 65.4459 168.674 65.0451 167.529L63.9481 164.397C63.5473 163.252 62.2946 162.65 61.1502 163.05Z" fill="#EBEBEB"/>
<path d="M60.7713 168.448C60.7484 168.459 60.7231 168.465 60.6975 168.465C60.6719 168.465 60.6466 168.459 60.6237 168.448L59.192 167.613C59.1713 167.602 59.153 167.587 59.1385 167.568C59.1239 167.549 59.1133 167.528 59.1073 167.505C59.1013 167.482 59.1 167.459 59.1035 167.435C59.107 167.412 59.1153 167.389 59.1278 167.369C59.1391 167.349 59.1545 167.33 59.1731 167.316C59.1917 167.301 59.2131 167.291 59.2359 167.285C59.2588 167.279 59.2826 167.277 59.306 167.281C59.3293 167.284 59.3517 167.293 59.3718 167.305L60.6558 168.037L62.1709 164.795C62.1918 164.753 62.2279 164.72 62.272 164.703C62.316 164.687 62.3648 164.687 62.4084 164.705C62.4518 164.725 62.4857 164.761 62.5025 164.805C62.5194 164.85 62.5179 164.899 62.4983 164.943L60.8997 168.364C60.8855 168.387 60.8667 168.406 60.8445 168.42C60.8224 168.434 60.7974 168.444 60.7713 168.448Z" fill="white"/>
<path d="M101.885 149.779C101.885 149.83 94.1811 152.578 84.6152 155.929C75.0495 159.28 67.2812 161.945 67.2812 161.9C67.2812 161.855 74.9852 159.094 84.551 155.749C94.1168 152.404 101.872 149.734 101.885 149.779Z" fill="#E0E0E0"/>
<path d="M83.7298 162.118C83.7298 162.118 83.5308 162.208 83.1648 162.349L81.6176 162.927C80.3336 163.402 78.4846 164.05 76.4816 164.757C74.4786 165.463 72.6296 166.092 71.3456 166.535L69.7727 167.055C69.5823 167.125 69.387 167.181 69.1885 167.222C69.3672 167.126 69.5542 167.047 69.747 166.984L71.3007 166.413C72.5847 165.931 74.4336 165.283 76.4367 164.577C78.4397 163.871 80.2887 163.248 81.5727 162.798L83.1456 162.278C83.3353 162.208 83.5308 162.155 83.7298 162.118Z" fill="#E0E0E0"/>
<path d="M102.72 152.154C102.72 152.199 95.016 154.953 85.4502 158.298C75.8844 161.643 68.1162 164.32 68.1162 164.268C68.1162 164.217 75.8202 161.469 85.386 158.125C94.9518 154.78 102.72 152.09 102.72 152.154Z" fill="#E0E0E0"/>
<path d="M65.6287 175.825L62.4961 176.922C61.3516 177.323 60.7487 178.575 61.1495 179.72L62.2465 182.852C62.6473 183.997 63.9 184.6 65.0445 184.199L68.1771 183.102C69.3216 182.701 69.9244 181.448 69.5236 180.304L68.4266 177.171C68.0258 176.027 66.7732 175.424 65.6287 175.825Z" fill="#EBEBEB"/>
<path d="M65.2466 181.224C65.2236 181.235 65.1984 181.241 65.1728 181.241C65.1472 181.241 65.1219 181.235 65.0989 181.224L63.6609 180.402C63.6374 180.392 63.6164 180.377 63.5991 180.358C63.5819 180.339 63.5688 180.317 63.5608 180.293C63.5528 180.269 63.5501 180.243 63.5527 180.218C63.5554 180.193 63.5634 180.168 63.5762 180.146C63.5891 180.124 63.6065 180.105 63.6272 180.09C63.648 180.075 63.6716 180.065 63.6966 180.06C63.7216 180.055 63.7474 180.056 63.7722 180.062C63.797 180.067 63.8204 180.078 63.8406 180.094L65.1246 180.826L66.6397 177.584C66.6487 177.561 66.6622 177.541 66.6793 177.523C66.6965 177.506 66.7169 177.493 66.7394 177.484C66.7619 177.474 66.786 177.47 66.8103 177.47C66.8345 177.471 66.8585 177.476 66.8806 177.486C66.9027 177.496 66.9226 177.511 66.939 177.529C66.9554 177.546 66.9681 177.567 66.9761 177.59C66.9842 177.613 66.9876 177.637 66.9861 177.662C66.9845 177.686 66.9781 177.71 66.9671 177.731L65.3686 181.153C65.3372 181.19 65.2941 181.215 65.2466 181.224Z" fill="white"/>
<path d="M106.36 162.555C106.36 162.606 98.6557 165.354 89.0899 168.705C79.5241 172.056 71.7559 174.72 71.7559 174.669C71.7559 174.618 79.4599 171.87 89.0321 168.525C98.6043 165.18 106.34 162.51 106.36 162.555Z" fill="#E0E0E0"/>
<path d="M88.204 174.887C88.0218 174.98 87.8329 175.06 87.639 175.125L86.0854 175.703C84.8014 176.178 82.9588 176.826 80.9494 177.532C78.9399 178.238 77.0974 178.861 75.8134 179.311L74.2405 179.831C74.0498 179.899 73.8546 179.955 73.6562 179.998C73.835 179.902 74.0219 179.822 74.2148 179.76L75.7684 179.182C77.0524 178.707 78.9014 178.059 80.9044 177.352C82.9075 176.646 84.7564 176.024 86.0404 175.574L87.6069 175.054C87.8026 174.987 88.002 174.932 88.204 174.887Z" fill="#E0E0E0"/>
<path d="M107.214 164.917C107.214 164.962 99.5102 167.716 89.9444 171.061C80.3786 174.406 72.6104 177.083 72.6104 177.032C72.6104 176.98 80.3144 174.232 89.8802 170.881C99.446 167.53 107.169 164.866 107.214 164.917Z" fill="#E0E0E0"/>
<path d="M70.1004 188.599L66.9678 189.696C65.8233 190.097 65.2204 191.35 65.6212 192.494L66.7182 195.627C67.119 196.771 68.3717 197.374 69.5162 196.973L72.6488 195.876C73.7932 195.475 74.3961 194.223 73.9953 193.078L72.8983 189.946C72.4975 188.801 71.2448 188.198 70.1004 188.599Z" fill="#EBEBEB"/>
<path d="M69.7141 194C69.6918 194.009 69.6678 194.014 69.6435 194.014C69.6192 194.014 69.5952 194.009 69.5729 194L68.1348 193.165C68.0939 193.14 68.0645 193.1 68.0531 193.054C68.0417 193.008 68.0491 192.959 68.0738 192.918C68.0985 192.877 68.1384 192.848 68.1847 192.836C68.2311 192.825 68.2801 192.832 68.321 192.857L69.605 193.589L71.1201 190.379C71.1397 190.335 71.1757 190.301 71.2203 190.285C71.2648 190.268 71.3142 190.269 71.3576 190.289C71.3999 190.31 71.4327 190.346 71.4494 190.39C71.466 190.434 71.4654 190.483 71.4475 190.526L69.8425 193.948C69.8079 193.981 69.7619 194 69.7141 194Z" fill="white"/>
<path d="M110.835 175.33C110.835 175.382 103.131 178.129 93.5655 181.474C83.9997 184.819 76.2314 187.496 76.2314 187.445C76.2314 187.393 83.9354 184.646 93.5012 181.301C103.067 177.956 110.816 175.266 110.835 175.33Z" fill="#E0E0E0"/>
<path d="M92.6731 187.663C92.4944 187.759 92.3075 187.838 92.1146 187.901L90.561 188.478C89.277 188.953 87.428 189.602 85.425 190.308C83.4219 191.014 81.573 191.637 80.289 192.086L78.7161 192.606C78.3437 192.722 78.1318 192.78 78.1318 192.773C78.3106 192.678 78.4975 192.598 78.6904 192.536L80.244 191.958C81.528 191.483 83.377 190.835 85.38 190.128C87.3831 189.422 89.232 188.799 90.516 188.35L92.0889 187.83C92.2796 187.761 92.4748 187.705 92.6731 187.663Z" fill="#E0E0E0"/>
<path d="M111.662 177.693C111.662 177.738 103.958 180.492 94.3926 183.837C84.8268 187.181 77.0586 189.852 77.0586 189.807C77.0586 189.762 84.7626 187.008 94.3284 183.657C103.894 180.306 111.643 177.641 111.662 177.693Z" fill="#E0E0E0"/>
<path d="M43.0713 122.815L44.6378 127.309C45.0759 128.56 45.9928 129.586 47.187 130.161C48.3811 130.736 49.7549 130.814 51.0064 130.377L83.941 118.821C84.5602 118.605 85.1307 118.269 85.6198 117.832C86.1089 117.395 86.5071 116.866 86.7915 116.275C87.0759 115.684 87.2411 115.043 87.2774 114.388C87.3138 113.733 87.2206 113.078 87.0034 112.459L85.4369 107.965L43.0713 122.815Z" fill="#E0E0E0"/>
<path d="M64.6942 116.728C63.8193 117.036 62.8728 117.078 61.9744 116.847C61.076 116.617 60.2662 116.125 59.6474 115.434C59.0287 114.743 58.6289 113.884 58.4986 112.966C58.3683 112.047 58.5135 111.111 58.9156 110.275C59.3177 109.44 59.9588 108.742 60.7577 108.271C61.5565 107.8 62.4772 107.576 63.4032 107.628C64.3292 107.681 65.2189 108.007 65.9595 108.565C66.7002 109.123 67.2586 109.888 67.564 110.764C67.9725 111.936 67.8999 113.221 67.3619 114.339C66.824 115.458 65.8646 116.317 64.6942 116.728ZM62.1904 109.583C61.6508 109.771 61.1792 110.116 60.8353 110.572C60.4914 111.029 60.2906 111.577 60.2583 112.147C60.2261 112.718 60.3638 113.285 60.654 113.778C60.9443 114.27 61.3741 114.665 61.889 114.913C62.4039 115.161 62.9809 115.251 63.5468 115.171C64.1127 115.091 64.6422 114.845 65.0683 114.464C65.4944 114.083 65.7979 113.584 65.9404 113.031C66.083 112.478 66.0582 111.894 65.8691 111.355C65.6159 110.632 65.0862 110.04 64.3964 109.708C63.7067 109.375 62.9133 109.331 62.1904 109.583Z" fill="#E0E0E0"/>
<path d="M91.0161 128.4C91.0161 128.484 82.3619 131.61 71.6212 135.366C60.8806 139.121 52.1494 142.107 52.1173 142.023C52.0852 141.94 60.7714 138.813 71.5121 135.058C82.2528 131.302 90.984 128.291 91.0161 128.4Z" fill="#E0E0E0"/>
<path d="M79.8901 129.973C79.8901 130.056 76.1023 131.475 71.3579 133.138C66.6135 134.801 62.7423 136.104 62.7102 135.988C62.6781 135.873 66.5044 134.486 71.2488 132.823C75.9931 131.161 79.8644 129.889 79.8901 129.973Z" fill="#E0E0E0"/>
<path d="M251.023 260.061C253.386 258.951 256.044 258.63 258.605 259.143C259.978 259.368 261.417 259.785 262.347 260.812C263.278 261.84 263.465 263.663 262.386 264.549C261.69 265.022 260.848 265.234 260.011 265.146C258.001 265.146 255.78 264.767 254.181 265.974C253.263 266.661 252.66 267.804 251.568 268.144C251.019 268.272 250.443 268.216 249.929 267.984C249.415 267.751 248.992 267.357 248.724 266.86C248.205 265.856 248.09 264.691 248.403 263.605C248.538 262.853 248.844 262.142 249.299 261.527C249.753 260.912 250.343 260.411 251.023 260.061Z" fill="#0D21A1"/>
<path d="M245.707 249.866C247.119 251.876 249.861 251.215 251.132 249.982C252.403 248.749 252.936 246.971 253.424 245.276C254.541 241.392 255.671 237.322 254.843 233.367C254.636 232.179 254.11 231.069 253.321 230.157C252.918 229.704 252.404 229.365 251.83 229.174C251.255 228.982 250.64 228.945 250.047 229.066C248.66 229.431 247.806 230.786 247.183 232.07C245.353 235.877 244.394 240.044 244.378 244.268C244.378 246.233 244.603 248.287 245.707 249.911" fill="#0D21A1"/>
<path d="M241.835 252.756C242.561 251.809 243.044 250.699 243.243 249.524C243.442 248.348 243.351 247.141 242.978 246.008C242.202 243.752 240.82 241.754 238.985 240.23C236.897 238.373 234.468 236.94 231.833 236.012C230.815 235.601 229.72 235.415 228.623 235.467C228.074 235.498 227.542 235.662 227.072 235.947C226.602 236.231 226.209 236.626 225.926 237.097C225.169 238.535 225.926 240.275 226.671 241.694C228.045 244.199 229.617 246.59 231.371 248.846C232.777 250.663 234.388 252.454 236.539 253.276C238.689 254.097 240.911 253.995 242.047 252.512" fill="#0D21A1"/>
<path d="M245.616 280.239C245.687 279.94 245.728 279.635 245.738 279.328C245.809 278.686 245.886 277.826 245.982 276.83C246.106 275.599 246.294 274.376 246.547 273.165C246.873 271.691 247.318 270.246 247.876 268.844C248.424 267.443 249.168 266.127 250.085 264.934C250.831 263.962 251.785 263.168 252.877 262.61C253.617 262.243 254.41 261.996 255.227 261.878C255.535 261.867 255.84 261.824 256.139 261.75C255.829 261.717 255.517 261.717 255.208 261.75C254.361 261.818 253.533 262.036 252.762 262.392C251.612 262.932 250.603 263.732 249.815 264.729C248.861 265.94 248.091 267.286 247.529 268.722C246.96 270.144 246.517 271.613 246.207 273.113C245.971 274.339 245.808 275.578 245.719 276.824C245.636 277.883 245.61 278.75 245.597 279.334C245.568 279.636 245.574 279.94 245.616 280.239Z" fill="#263238"/>
<path d="M245.783 278.32C245.802 278.179 245.802 278.037 245.783 277.896V276.702C245.783 275.649 245.783 274.134 245.834 272.208C245.931 268.439 246.252 264.388 246.881 258.675C247.471 253.301 248.267 247.048 249.108 242.984C249.288 242.06 249.468 241.225 249.641 240.5C249.815 239.774 249.943 239.139 250.078 238.631C250.213 238.124 250.283 237.758 250.36 237.45C250.395 237.311 250.421 237.169 250.437 237.026C250.373 237.153 250.323 237.286 250.29 237.424C250.193 237.733 250.078 238.118 249.937 238.593C249.795 239.068 249.616 239.723 249.436 240.448C249.256 241.174 249.044 242.002 248.845 242.926C247.816 247.74 247.043 252.604 246.528 257.5C245.886 263.226 245.616 268.414 245.597 272.214C245.597 274.102 245.597 275.63 245.661 276.708C245.661 277.203 245.712 277.607 245.732 277.922C245.737 278.056 245.754 278.189 245.783 278.32Z" fill="#263238"/>
<path d="M245.809 268.266C245.845 267.839 245.845 267.409 245.809 266.982C245.736 265.831 245.605 264.685 245.417 263.547C245.142 261.858 244.769 260.186 244.3 258.54C243.757 256.513 243.057 254.532 242.207 252.614C240.755 249.078 238.673 245.835 236.063 243.042C235.609 242.564 235.124 242.116 234.613 241.7C234.394 241.507 234.195 241.321 233.971 241.174L233.412 240.788C233.075 240.53 232.717 240.303 232.34 240.108C233.573 241.071 234.741 242.113 235.839 243.228C238.37 246.041 240.398 249.268 241.835 252.768C242.667 254.675 243.371 256.635 243.941 258.636C244.424 260.266 244.82 261.92 245.128 263.592C245.392 265.024 245.546 266.16 245.636 266.995C245.662 267.422 245.72 267.847 245.809 268.266Z" fill="#263238"/>
<path d="M236.089 286.005L237.097 299.808H254.835L255.837 286.005H236.089Z" fill="#263238"/>
<path d="M257.963 280.56H234.382V286.004H257.963V280.56Z" fill="#263238"/>
<path d="M234.382 299.281V300.783H235.486H257.564V299.281H234.382Z" fill="#455A64"/>
<path d="M236.57 303.441L235.485 300.783H256.723L255.452 303.441H236.57Z" fill="#455A64"/>
<path d="M255.517 290.511C255.517 290.511 255.517 290.563 255.433 290.64L255.17 290.993L254.136 292.315L254.091 292.373L254.046 292.309L251.511 288.804H251.665L249.161 292.341L249.084 292.45L248.994 292.348L246.034 288.817H246.201L246.041 289.022L243.389 292.341L243.306 292.457L243.222 292.341C242.324 291.057 241.483 289.876 240.719 288.804H240.866L237.791 292.309L237.733 292.373L237.688 292.303C237.284 291.622 236.963 291.076 236.725 290.685L236.481 290.255C236.449 290.207 236.423 290.155 236.404 290.101C236.404 290.101 236.443 290.139 236.507 290.235L236.783 290.653L237.791 292.238H237.695L240.725 288.688L240.802 288.598L240.873 288.695L243.396 292.219H243.222L245.887 288.9L246.054 288.695L246.137 288.585L246.22 288.688L249.18 292.226H249.013L251.536 288.701L251.607 288.598L251.684 288.701C252.679 290.133 253.533 291.346 254.168 292.251H254.072L255.151 290.967L255.44 290.633L255.517 290.511Z" fill="#E0E0E0"/>
<path d="M256.087 285.908C256.087 285.972 251.644 286.024 246.162 286.024C240.679 286.024 236.236 285.972 236.236 285.908C236.236 285.844 240.679 285.799 246.162 285.799C251.644 285.799 256.087 285.85 256.087 285.908Z" fill="#455A64"/>
<path d="M256.986 300.938C256.986 300.995 252.152 301.047 246.201 301.047C240.249 301.047 235.415 300.995 235.415 300.938C235.415 300.88 240.243 300.822 246.201 300.822C252.158 300.822 256.986 300.873 256.986 300.938Z" fill="#263238"/>
<path d="M82.0481 256.896C81.9967 256.954 81.5923 256.71 81.1429 256.35C80.6935 255.991 80.3661 255.651 80.4174 255.586C80.4688 255.522 80.8668 255.773 81.3162 256.132C81.7656 256.492 82.093 256.832 82.0481 256.896Z" fill="#263238"/>
<path d="M94.3743 238.509C94.5491 236.797 94.4077 235.067 93.957 233.405C93.4177 231.768 92.1594 230.272 90.4774 229.919C88.5514 229.521 86.5868 230.735 85.5083 232.378C84.4297 234.022 84.0638 236.012 83.7428 237.944C81.5524 251.297 80.7457 264.84 81.3353 278.358L89.1934 279.463C92.6152 265.358 93.7323 253.025 94.3743 238.509Z" fill="#455A64"/>
<path d="M89.3536 229.836L89.3151 229.964L89.1867 230.317L88.6602 231.678C88.5511 231.974 88.4034 232.32 88.2879 232.661L87.9091 233.848L87.4661 235.216L87.0617 236.776C86.402 239.353 85.8939 241.966 85.5401 244.602C85.1164 247.555 84.8403 250.829 84.6156 254.27C84.2176 261.159 84.1534 267.412 83.9736 271.932C83.8902 274.198 83.8131 276.028 83.7297 277.286C83.6847 277.928 83.6526 278.384 83.627 278.743C83.627 278.891 83.627 279.02 83.627 279.116C83.627 279.212 83.627 279.244 83.627 279.244C83.627 279.244 83.627 279.206 83.627 279.116C83.627 279.026 83.627 278.891 83.627 278.737C83.627 278.384 83.627 277.896 83.6719 277.28C83.7233 275.996 83.7682 274.192 83.826 271.925C83.9544 267.431 83.9865 261.153 84.3909 254.258C84.6092 250.81 84.8981 247.529 85.3347 244.563C85.7029 241.935 86.2325 239.333 86.9204 236.77L87.3441 235.209C87.5111 234.73 87.6651 234.274 87.8064 233.842L88.2173 232.654C88.3392 232.295 88.4933 231.974 88.6089 231.678L89.1867 230.343C89.2466 230.202 89.298 230.086 89.3408 229.996C89.3361 229.943 89.3405 229.888 89.3536 229.836Z" fill="#263238"/>
<path d="M90.079 229.868C90.4885 230.352 90.8141 230.901 91.042 231.492C91.6428 233.116 91.8859 234.851 91.7546 236.577C91.5492 240.923 91.1576 246.907 90.644 253.519C90.1304 260.132 89.5461 266.103 89.0839 270.423C88.8463 272.58 88.6473 274.327 88.4997 275.559C88.4226 276.144 88.3649 276.606 88.3199 276.946L88.2686 277.306C88.2715 277.346 88.2715 277.387 88.2686 277.428C88.2686 277.428 88.2686 277.389 88.2686 277.306C88.2686 277.222 88.2686 277.087 88.2686 276.94C88.2686 276.599 88.3392 276.137 88.3905 275.546C88.5125 274.314 88.6794 272.574 88.8849 270.41C89.2957 266.083 89.8415 260.138 90.3615 253.5C90.8815 246.862 91.2988 240.911 91.5556 236.577C91.6954 234.871 91.4767 233.154 90.9136 231.537C90.6853 230.957 90.406 230.399 90.079 229.868Z" fill="#263238"/>
<path d="M95.53 250.213C95.0144 250.176 94.5098 250.045 94.0406 249.828C93.5419 249.698 93.0702 249.481 92.6475 249.186C93.1637 249.22 93.6691 249.35 94.1369 249.571C94.6361 249.7 95.1081 249.917 95.53 250.213Z" fill="#263238"/>
<path d="M96.4796 242.201C96.0538 242.541 95.5743 242.808 95.0608 242.991C94.5836 243.255 94.0646 243.435 93.5264 243.523C94.4266 242.915 95.4259 242.467 96.4796 242.201Z" fill="#263238"/>
<path d="M95.9852 235.659C95.2092 235.799 94.4105 235.744 93.6611 235.498C94.041 235.389 94.4408 235.37 94.8296 235.441C95.2265 235.423 95.622 235.498 95.9852 235.659Z" fill="#263238"/>
<path d="M87.8711 231.473C87.8069 231.512 87.4602 231.081 87.1071 230.516C86.8501 230.19 86.6682 229.811 86.5742 229.406C86.6384 229.367 86.9851 229.791 87.3446 230.362C87.7041 230.934 87.9545 231.428 87.8711 231.473Z" fill="#263238"/>
<path d="M85.1936 235.428C84.8361 235.556 84.4527 235.596 84.0765 235.543C83.6982 235.58 83.3168 235.522 82.9658 235.376C83.3233 235.248 83.7067 235.208 84.0829 235.261C84.4612 235.225 84.8426 235.282 85.1936 235.428Z" fill="#263238"/>
<path d="M83.2675 243.318C82.8566 243.302 82.4548 243.192 82.0927 242.997C81.6963 242.884 81.3301 242.685 81.0205 242.413C81.4314 242.429 81.8332 242.539 82.1954 242.734C82.5917 242.847 82.958 243.046 83.2675 243.318Z" fill="#263238"/>
<path d="M83.0614 249.988C83.0614 250.065 82.6313 250.226 82.0599 250.341C81.4885 250.457 81.0198 250.502 81.0006 250.425C80.9813 250.348 81.4372 250.187 82.0021 250.072C82.3428 249.957 82.7069 249.928 83.0614 249.988Z" fill="#263238"/>
<path d="M82.1764 260.877C82.1764 260.954 81.7141 261.101 81.1107 261.21C80.7501 261.318 80.3689 261.335 80 261.262C80.3238 261.069 80.6894 260.956 81.0657 260.934C81.4254 260.823 81.8071 260.803 82.1764 260.877Z" fill="#263238"/>
<path d="M81.534 266.886C81.5725 266.95 81.1745 267.233 80.648 267.528C80.1216 267.823 79.6658 267.977 79.6337 267.907C79.6016 267.836 79.9932 267.56 80.5196 267.265C81.0461 266.969 81.534 266.815 81.534 266.886Z" fill="#263238"/>
<path d="M86.458 273.704C86.3938 273.742 86.0471 273.267 85.6876 272.638C85.4275 272.278 85.248 271.867 85.1611 271.431C85.2253 271.393 85.572 271.868 85.9315 272.497C86.1916 272.857 86.3711 273.268 86.458 273.704Z" fill="#263238"/>
<path d="M87.8764 262.373C87.9278 262.424 87.5426 262.893 87.0161 263.413C86.4897 263.933 86.0146 264.305 85.9568 264.247C85.8991 264.189 86.2907 263.727 86.8171 263.207C87.3435 262.687 87.8186 262.315 87.8764 262.373Z" fill="#263238"/>
<path d="M87.5622 256.421C87.5044 256.479 87.1513 256.184 86.7661 255.779C86.3809 255.375 86.1241 254.983 86.1755 254.932C86.2268 254.88 86.5864 255.169 86.9716 255.574C87.3568 255.978 87.62 256.37 87.5622 256.421Z" fill="#263238"/>
<path d="M88.5379 248.826C88.5957 248.878 88.2747 249.334 87.8189 249.834C87.3631 250.335 86.9522 250.714 86.8944 250.662C86.8366 250.611 87.1576 250.155 87.607 249.648C88.0564 249.141 88.4802 248.775 88.5379 248.826Z" fill="#263238"/>
<path d="M89.0844 243.318C89.0266 243.376 88.5836 243.023 88.0828 242.535C87.5821 242.047 87.229 241.604 87.2803 241.546C87.3317 241.488 87.7811 241.842 88.2819 242.336C88.7826 242.83 89.1357 243.26 89.0844 243.318Z" fill="#263238"/>
<path d="M90.1619 235.858C90.077 236.263 89.9038 236.645 89.6548 236.975C89.3145 237.553 88.9807 237.99 88.9165 237.951C88.8523 237.912 89.0705 237.412 89.4172 236.834C89.7639 236.256 90.0913 235.82 90.1619 235.858Z" fill="#263238"/>
<path d="M92.1852 228.95C92.2558 228.989 92.0568 229.489 91.7422 230.067C91.4276 230.645 91.1002 231.088 91.0488 231.056C91.1099 230.655 91.2614 230.273 91.4918 229.939C91.8064 229.355 92.1145 228.918 92.1852 228.95Z" fill="#263238"/>
<path d="M94.4833 232.089C94.5154 232.16 94.2009 232.378 93.7771 232.584C93.3534 232.789 92.9875 232.892 92.9554 232.821C92.9233 232.751 93.2379 232.532 93.6616 232.327C94.0853 232.121 94.4512 232.019 94.4833 232.089Z" fill="#263238"/>
<path d="M94.5348 256.896C93.4684 256.819 92.4584 256.387 91.665 255.67C92.1649 255.821 92.6487 256.021 93.1095 256.267C93.6049 256.428 94.0824 256.639 94.5348 256.896Z" fill="#263238"/>
<path d="M93.5977 262.148C93.5977 262.225 93.1419 262.379 92.5384 262.495C92.1797 262.61 91.7981 262.634 91.4277 262.565C91.7489 262.368 92.1117 262.25 92.487 262.219C93.0905 262.103 93.5848 262.071 93.5977 262.148Z" fill="#263238"/>
<path d="M92.4482 271.155C92.4032 271.219 91.8062 270.802 91.2541 270.109C90.8864 269.713 90.6276 269.228 90.5029 268.703C90.8617 269.084 91.1861 269.497 91.4723 269.935C91.8344 270.311 92.1611 270.719 92.4482 271.155Z" fill="#263238"/>
<path d="M79.8072 275.277C79.7558 275.219 80.0768 274.86 80.5198 274.481C80.9628 274.102 81.3672 273.839 81.4186 273.903C81.4699 273.967 81.1489 274.314 80.706 274.699C80.263 275.084 79.8585 275.335 79.8072 275.277Z" fill="#263238"/>
<path d="M76.1736 255.619C75.66 254.02 74.7034 252.158 73.0278 252.133C72.5285 252.16 72.0457 252.32 71.63 252.598C71.2144 252.876 70.8811 253.261 70.6653 253.712C70.2041 254.603 69.9828 255.598 70.0233 256.601C70.2302 263.716 71.4427 270.767 73.6249 277.543H79.7688C79.6944 270.094 78.482 262.701 76.1736 255.619Z" fill="#455A64"/>
<path d="M65.0732 245.559C64.7694 244.061 63.9713 242.709 62.8071 241.72C61.6429 240.73 60.18 240.16 58.6532 240.102C55.9376 240.577 54.8847 243.247 54.5637 245.982C54.2427 248.717 55.0901 251.439 55.9312 254.065C58.619 262.488 61.3111 270.913 64.0075 279.341L71.6473 278.506C69.2591 267.22 67.8724 256.755 65.0732 245.559Z" fill="#455A64"/>
<path d="M73.0275 252.133C72.829 252.406 72.6549 252.696 72.5075 252.999C72.1908 253.867 72.0916 254.8 72.2186 255.715C72.3341 256.883 72.469 258.283 72.668 259.824C72.867 261.365 73.1431 263.034 73.4898 264.818C74.1831 268.349 74.9664 271.508 75.4607 273.806C75.7111 274.956 75.9037 275.893 76.0192 276.541C76.0706 276.843 76.1155 277.087 76.1476 277.293C76.1797 277.498 76.1862 277.556 76.1476 277.556C76.1143 277.475 76.0885 277.391 76.0706 277.305L75.8908 276.567C75.7239 275.88 75.5056 274.962 75.2488 273.851C74.7031 271.553 73.8878 268.401 73.1944 264.863C72.8478 263.091 72.5524 261.397 72.3919 259.843C72.2892 259.073 72.225 258.328 72.1608 257.641C72.0966 256.954 72.0324 256.306 72.0003 255.715C71.8906 254.773 72.0232 253.818 72.3855 252.941C72.5383 252.628 72.7574 252.352 73.0275 252.133Z" fill="#263238"/>
<path d="M58.7938 239.883C58.4534 240.271 58.1443 240.686 57.8693 241.122C57.1662 242.343 56.7676 243.715 56.7073 245.122C56.6754 247.208 56.9944 249.285 57.6511 251.266C58.2931 253.539 59.057 256.036 59.8339 258.649C61.3554 263.888 62.7293 268.626 63.7372 272.086L64.8928 276.169C65.0212 276.631 65.1175 276.997 65.1946 277.28C65.2365 277.407 65.2645 277.538 65.278 277.671C65.2191 277.552 65.1718 277.427 65.1368 277.299C65.0533 277.017 64.9313 276.657 64.7901 276.195C64.4884 275.213 64.0646 273.832 63.551 272.144L59.5642 258.726C58.7938 256.1 58.0684 253.59 57.4007 251.33C56.7467 249.321 56.4448 247.214 56.5083 245.103C56.591 243.668 57.0325 242.278 57.7923 241.058C58.059 240.614 58.3974 240.217 58.7938 239.883Z" fill="#263238"/>
<path d="M70.0097 277.691C69.9451 277.572 69.8872 277.45 69.8364 277.325C69.7401 277.074 69.5796 276.721 69.4063 276.246C69.0403 275.309 68.5717 273.929 68.1223 272.195C67.6729 270.462 67.1593 268.343 66.697 266.032C66.2348 263.721 65.7725 261.133 65.2589 258.437C64.7453 255.741 64.1419 253.205 63.4549 250.939C62.8589 248.924 62.1143 246.956 61.2272 245.051C60.6241 243.77 59.9356 242.53 59.1664 241.341C58.9031 240.917 58.6656 240.602 58.5244 240.384C58.4439 240.275 58.3731 240.159 58.3125 240.037C58.4067 240.133 58.4926 240.236 58.5693 240.346C58.7298 240.564 58.9802 240.859 59.2562 241.283C60.0682 242.453 60.7873 243.685 61.4069 244.968C62.3278 246.868 63.0943 248.839 63.6989 250.861C64.4239 253.337 65.0197 255.848 65.4836 258.386C65.9908 261.076 66.4659 263.644 66.9025 265.987C67.339 268.33 67.8013 270.404 68.2635 272.144C68.7257 273.884 69.1559 275.264 69.4897 276.208C69.6438 276.689 69.7915 277.049 69.8749 277.299C69.9344 277.424 69.9797 277.555 70.0097 277.691Z" fill="#263238"/>
<path d="M56.0976 252.807C56.0976 252.877 55.6996 253.044 55.1667 253.173C54.6339 253.301 54.1909 253.346 54.178 253.269C54.1652 253.192 54.5697 253.032 55.1025 252.903C55.6354 252.775 56.0784 252.73 56.0976 252.807Z" fill="#263238"/>
<path d="M55.2887 247.594C54.8714 247.711 54.4376 247.759 54.0047 247.735C53.5776 247.795 53.1434 247.782 52.7207 247.696C53.1205 247.506 53.5628 247.422 54.0047 247.452C54.4377 247.389 54.8797 247.438 55.2887 247.594Z" fill="#263238"/>
<path d="M56.1499 242.83C56.0986 242.894 55.6813 242.625 55.2254 242.233C54.7696 241.841 54.4294 241.475 54.4807 241.418C54.5321 241.36 54.943 241.623 55.4052 242.015C55.8674 242.406 56.2013 242.772 56.1499 242.83Z" fill="#263238"/>
<path d="M58.4798 238.426C58.5569 238.426 58.5312 238.818 58.5248 239.261C58.5184 239.704 58.5248 240.082 58.4285 240.095C58.3322 240.108 58.2295 239.736 58.2423 239.254C58.2551 238.773 58.4221 238.407 58.4798 238.426Z" fill="#263238"/>
<path d="M63.2371 240.5C63.3013 240.544 63.1151 240.923 62.8198 241.341C62.5245 241.758 62.2356 242.066 62.1778 242.021C62.12 241.976 62.2998 241.604 62.5887 241.18C62.8776 240.756 63.1729 240.455 63.2371 240.5Z" fill="#263238"/>
<path d="M66.3255 245.886C66.3255 245.963 65.9595 246.188 65.4459 246.4C64.9323 246.611 64.4829 246.721 64.4572 246.65C64.4316 246.579 64.8232 246.348 65.3368 246.143C65.8504 245.937 66.2998 245.796 66.3255 245.886Z" fill="#263238"/>
<path d="M68.1994 251.388C67.8597 251.683 67.4391 251.868 66.9924 251.921C66.5645 252.059 66.1063 252.075 65.6699 251.966C66.0818 251.802 66.5136 251.694 66.9539 251.645C67.3571 251.509 67.7754 251.423 68.1994 251.388Z" fill="#263238"/>
<path d="M59.5964 249.822C59.5258 249.822 59.5964 249.417 59.7184 248.968C59.8404 248.518 60.033 248.178 60.1036 248.204C60.1742 248.229 60.1036 248.608 59.9816 249.058C59.8597 249.507 59.7056 249.847 59.5964 249.822Z" fill="#263238"/>
<path d="M60.7979 256.755C60.8238 256.351 60.9424 255.957 61.1445 255.606C61.4078 255.003 61.6774 254.54 61.748 254.572C61.722 254.977 61.6034 255.37 61.4013 255.722C61.1381 256.325 60.8685 256.8 60.7979 256.755Z" fill="#263238"/>
<path d="M57.8318 258.655C57.4535 258.646 57.0805 258.563 56.734 258.411C56.1497 258.225 55.6747 258.058 55.6939 257.981C56.076 257.932 56.4643 257.988 56.8174 258.142C57.4145 258.328 57.8639 258.585 57.8318 258.655Z" fill="#263238"/>
<path d="M59.5395 264.305C59.5845 264.369 59.257 264.678 58.8141 264.999C58.3711 265.32 57.9602 265.525 57.9153 265.467C57.8703 265.409 58.1977 265.088 58.6471 264.767C59.0965 264.446 59.4946 264.241 59.5395 264.305Z" fill="#263238"/>
<path d="M60.9134 269.942C60.9134 270.012 60.5282 270.179 60.0082 270.301C59.4881 270.423 59.058 270.468 59.0387 270.397C59.0195 270.327 59.4239 270.16 59.944 270.032C60.464 269.903 60.8941 269.865 60.9134 269.942Z" fill="#263238"/>
<path d="M68.3543 256.1C68.3928 256.164 68.0461 256.441 67.5453 256.627C67.0446 256.813 66.5952 256.839 66.5823 256.768C66.5695 256.697 66.9675 256.55 67.4426 256.363C67.9177 256.177 68.3157 256.03 68.3543 256.1Z" fill="#263238"/>
<path d="M69.413 264.864C69.3809 264.934 68.97 264.812 68.4949 264.587C68.0198 264.363 67.6603 264.125 67.6924 264.055C67.7245 263.984 68.1418 264.112 68.6169 264.331C69.092 264.549 69.4515 264.793 69.413 264.864Z" fill="#263238"/>
<path d="M71.2943 271.142C70.8691 271.121 70.4533 271.009 70.0745 270.815C69.4325 270.565 68.9382 270.301 68.9638 270.224C69.387 270.246 69.8006 270.358 70.1772 270.552C70.8192 270.802 71.32 271.065 71.2943 271.142Z" fill="#263238"/>
<path d="M61.215 276.06C61.1765 275.99 61.6772 275.656 62.255 275.2C62.8328 274.744 63.2822 274.333 63.34 274.391C63.3978 274.449 63.0318 274.943 62.4284 275.418C62.0926 275.742 61.6719 275.965 61.215 276.06Z" fill="#263238"/>
<path d="M66.1714 272.85C66.0943 272.85 65.9852 272.439 65.7926 271.951C65.6 271.463 65.4074 271.072 65.4716 271.027C65.5358 270.982 65.8568 271.316 66.0558 271.849C66.2548 272.381 66.2484 272.85 66.1714 272.85Z" fill="#263238"/>
<path d="M64.8419 265.319C64.797 265.383 64.476 265.229 64.1229 264.979C63.7698 264.729 63.5258 264.472 63.5708 264.408C63.6157 264.343 63.9367 264.498 64.2898 264.748C64.6429 264.998 64.9061 265.255 64.8419 265.319Z" fill="#263238"/>
<path d="M76.3984 253.494C76.4433 253.558 76.1288 253.866 75.6986 254.181C75.2685 254.495 74.8833 254.707 74.8383 254.643C74.7934 254.579 75.1016 254.277 75.5317 253.956C75.9618 253.635 76.3984 253.429 76.3984 253.494Z" fill="#263238"/>
<path d="M78.1637 258.257C78.1637 258.334 77.6822 258.437 77.0787 258.373C76.4752 258.309 76.0194 258.103 76.0387 258.033C76.0579 257.962 76.533 258.033 77.1108 258.091C77.6886 258.148 78.1573 258.18 78.1637 258.257Z" fill="#263238"/>
<path d="M70.6718 259.33C70.6718 259.4 70.2417 259.561 69.651 259.599C69.0604 259.638 68.5981 259.541 68.6046 259.464C68.611 259.387 69.0732 259.362 69.6382 259.323C70.2031 259.285 70.659 259.252 70.6718 259.33Z" fill="#263238"/>
<path d="M71.3195 254.823C71.3195 254.9 70.8572 254.913 70.3565 254.675C69.8557 254.438 69.5668 254.097 69.6182 254.033C69.6695 253.969 70.0162 254.213 70.472 254.418C70.9279 254.624 71.3259 254.746 71.3195 254.823Z" fill="#263238"/>
<path d="M78.8056 263.374C78.7671 263.438 78.2984 263.22 77.7591 262.88C77.2198 262.539 76.8218 262.238 76.8667 262.148C76.9117 262.058 77.3739 262.308 77.9132 262.642C78.4525 262.976 78.8505 263.31 78.8056 263.374Z" fill="#263238"/>
<path d="M97.0827 276.74H57.1182V283.822H97.0827V276.74Z" fill="#0D21A1"/>
<path d="M60.1045 282.422L64.9644 303.589H88.7826L94.0984 282.422H60.1045Z" fill="#0D21A1"/>
<path d="M97.0641 283.835C97.0641 283.912 88.0761 283.976 76.931 283.976C65.7859 283.976 56.7979 283.912 56.7979 283.835C56.7979 283.758 65.7859 283.693 76.931 283.693C88.0761 283.693 97.0641 283.764 97.0641 283.835Z" fill="#263238"/>
<path d="M74.8378 259.484C74.7736 259.522 74.4975 259.207 74.2279 258.771C73.9583 258.334 73.7913 257.949 73.8555 257.911C73.9197 257.872 74.1958 258.187 74.4654 258.623C74.7351 259.06 74.902 259.439 74.8378 259.484Z" fill="#263238"/>
<path d="M74.8507 265.178C74.8315 264.809 74.9042 264.44 75.0625 264.106C75.2487 263.535 75.467 263.092 75.5376 263.117C75.5574 263.489 75.4846 263.859 75.3258 264.196C75.1139 264.761 74.9277 265.204 74.8507 265.178Z" fill="#263238"/>
<path d="M76.8029 271.162C76.7323 271.2 76.4369 270.719 76.1609 270.096C75.9394 269.734 75.7992 269.329 75.75 268.908C75.8206 268.87 76.1159 269.351 76.392 269.974C76.6135 270.335 76.7537 270.741 76.8029 271.162Z" fill="#263238"/>
<path d="M72.5848 275.976C72.527 275.925 72.7646 275.559 73.1177 275.148C73.4708 274.737 73.7982 274.455 73.8624 274.506C73.9266 274.558 73.6826 274.93 73.3295 275.334C72.9764 275.739 72.6426 276.06 72.5848 275.976Z" fill="#263238"/>
<path d="M71.6988 267.239C71.6988 267.316 71.3008 267.309 70.8385 267.239C70.3763 267.168 70.0168 267.033 70.0296 266.956C70.0425 266.879 70.4277 266.886 70.8835 266.956C71.3393 267.027 71.7117 267.162 71.6988 267.239Z" fill="#263238"/>
<path d="M210.737 228.064H115.965V303.64H210.737V228.064Z" fill="#E0E0E0"/>
<g opacity="0.3">
<path d="M122.866 228.218C134.024 232.199 146.331 233.053 158.305 233.277C160.789 233.322 163.299 233.316 165.7 233.919C168.102 234.523 170.419 235.89 171.652 238.041C172.994 240.384 172.852 243.318 172.088 245.905C171.324 248.493 170.008 250.887 169.058 253.41C167.376 257.874 166.861 262.694 167.562 267.412C167.778 269.423 168.455 271.356 169.54 273.062C170.089 273.91 170.829 274.617 171.701 275.128C172.573 275.638 173.552 275.938 174.56 276.002C178.162 276.054 180.627 272.516 182.412 269.383C189.737 256.543 197.659 241.97 202.346 227.955L122.866 228.218Z" fill="black"/>
</g>
<path d="M148.257 303.236C148.16 303.236 148.09 286.486 148.09 265.827C148.09 245.167 148.16 228.411 148.257 228.411C148.353 228.411 148.424 245.161 148.424 265.827C148.424 286.493 148.347 303.236 148.257 303.236Z" fill="#455A64"/>
<path d="M187.091 172.21C186.809 170.323 181.172 164.095 181.172 164.095C181.172 164.095 178.36 152.79 177.513 149.458C177.231 148.494 176.818 147.574 176.286 146.723C174.293 143.402 171.459 140.667 168.069 138.794L160.269 134.409L158.407 130.262L139.673 120.632L134.595 129.62C134.595 129.62 122.262 133.536 120.632 136.316C119.001 139.096 121.44 176.634 121.44 176.634C121.44 176.634 116.304 198.282 115.194 202.763C114.083 207.244 115.54 212.586 115.54 212.586L124.727 201.062C127.584 197.479 133.85 195.829 138.351 195.894L176.813 196.067L175.266 185.294L206.383 191.316C206.383 191.316 211.731 180.877 212.161 180.672C212.592 180.466 187.091 172.21 187.091 172.21Z" fill="#0D21A1"/>
<path d="M138.878 133.119C138.608 132.843 141.048 141.092 144.117 149.496C145.767 154.037 146.608 158.833 146.601 163.665V194.096L165.039 192.844L162.285 172.801C162.285 172.801 160.038 159.871 159.409 154.953C158.831 150.459 156.841 138.261 156.841 138.261C156.841 138.261 146.601 140.983 138.878 133.119Z" fill="white"/>
<path d="M179.799 179.76C179.77 179.605 179.77 179.446 179.799 179.291C179.841 178.872 179.923 178.457 180.043 178.052C180.433 176.702 181.157 175.472 182.149 174.476C183.146 173.484 184.375 172.756 185.725 172.358C186.129 172.238 186.544 172.156 186.964 172.114C187.116 172.085 187.273 172.085 187.426 172.114C187.426 172.172 186.784 172.242 185.795 172.583C184.512 173.023 183.347 173.751 182.389 174.711C181.43 175.672 180.705 176.839 180.268 178.123C179.927 179.118 179.857 179.76 179.799 179.76Z" fill="#263238"/>
<path d="M180.749 172.467C181.606 171.964 182.575 171.684 183.567 171.652C184.55 171.516 185.552 171.635 186.476 171.998C186.476 172.101 185.192 171.851 183.593 171.998C181.994 172.146 180.788 172.563 180.749 172.467Z" fill="#263238"/>
<g opacity="0.3">
<path d="M119.585 189.075L117.98 190.886C119.654 192.952 121.922 194.453 124.478 195.187C127.053 195.734 129.685 195.971 132.316 195.893C133.382 195.945 134.451 195.843 135.488 195.592C136.534 195.29 137.504 194.699 138.589 194.635C139.316 194.639 140.04 194.742 140.739 194.943C141.443 195.143 142.187 195.154 142.896 194.975C143.248 194.88 143.559 194.675 143.785 194.389C144.01 194.104 144.138 193.753 144.148 193.39C136.145 191.051 127.907 189.604 119.585 189.075Z" fill="black"/>
</g>
<path d="M172.23 191.399L167.736 186.597L158.395 184.254C158.395 184.254 149.869 186.822 149.663 186.822C149.458 186.822 142.242 184.845 142.242 184.845L139.719 194.102L152.719 194.995L167.562 194.397C167.562 194.397 168.339 193.678 167.877 193.184C167.415 192.69 170.361 194.019 170.708 194.032C171.055 194.044 171.722 194.314 172.185 193.762C172.499 193.351 172.923 192.138 172.23 191.399Z" fill="#FFBE9D"/>
<path d="M167.876 193.152C167.372 193.057 166.878 192.915 166.4 192.729C165.501 192.446 164.249 192.087 162.856 191.701C161.463 191.316 160.179 191.059 159.248 190.899C158.738 190.832 158.237 190.714 157.752 190.546C158.266 190.523 158.781 190.562 159.286 190.661C160.514 190.833 161.732 191.073 162.933 191.38C164.136 191.686 165.319 192.063 166.477 192.51C166.969 192.664 167.439 192.88 167.876 193.152Z" fill="#EB996E"/>
<path d="M172.229 191.399C171.529 191.222 170.839 191.008 170.162 190.757C168.878 190.334 167.125 189.807 165.154 189.262C163.183 188.716 161.437 188.093 160.108 188.016C159.392 187.979 158.675 188.007 157.964 188.1C158.138 188.004 158.327 187.939 158.522 187.907C159.047 187.794 159.585 187.75 160.121 187.779C161.495 187.779 163.331 188.363 165.257 188.941C167.183 189.518 168.993 190.051 170.252 190.539C170.894 190.777 171.375 190.995 171.722 191.149C171.902 191.207 172.073 191.292 172.229 191.399Z" fill="#EB996E"/>
<path d="M120.632 136.316C120.632 136.316 113.923 140.983 112.286 147.699C110.648 154.414 103.58 181.859 105.031 185.962C106.482 190.064 134.691 194.096 134.691 194.096L138.036 179.972L123.707 176.049C123.707 176.049 123.893 162.985 124.073 157.573C124.252 152.16 120.632 136.316 120.632 136.316Z" fill="#0D21A1"/>
<path d="M137.857 182.097L142.473 183.233L139.693 193.878L135.16 193.152L137.857 182.097Z" fill="white"/>
<path d="M104.929 184.511C104.929 184.511 104.929 184.748 104.999 185.153C105.155 185.774 105.498 186.332 105.982 186.751C107.208 187.894 109.551 188.844 112.517 189.377C113.872 189.827 115.419 190.18 117.069 190.552C118.719 190.924 120.504 191.303 122.378 191.682C126.134 192.452 130.288 193.261 134.692 194.083L134.499 194.205C134.814 192.921 135.141 191.515 135.494 190.109C136.284 186.899 137.054 183.74 137.78 180.768L137.895 180.961L125.19 177.359C123.436 176.62 121.538 176.287 119.637 176.383C118.192 176.464 116.773 176.798 115.445 177.372C114.6 177.737 113.794 178.184 113.037 178.707L112.453 179.131C112.389 179.182 112.32 179.228 112.248 179.266C112.248 179.266 112.305 179.201 112.427 179.099C112.549 178.996 112.735 178.835 112.992 178.643C113.738 178.09 114.541 177.619 115.387 177.237C116.724 176.631 118.159 176.272 119.624 176.178C121.558 176.054 123.495 176.375 125.287 177.115L138.03 180.684L138.184 180.723L138.146 180.877C137.42 183.85 136.656 186.982 135.873 190.225C135.526 191.624 135.193 193.011 134.872 194.314L134.833 194.468H134.679C130.275 193.64 126.128 192.818 122.372 192.035C120.497 191.643 118.719 191.252 117.063 190.867C115.406 190.481 113.853 190.115 112.492 189.647C109.487 189.075 107.144 188.087 105.905 186.886C105.413 186.444 105.076 185.857 104.942 185.211C104.895 184.98 104.891 184.743 104.929 184.511Z" fill="#263238"/>
<path d="M124.491 177.006C124.452 177.051 123.971 176.608 123.11 176.037C120.857 174.528 118.194 173.75 115.483 173.809C114.443 173.809 113.808 173.95 113.795 173.892C114.333 173.698 114.899 173.591 115.471 173.578C118.256 173.376 121.022 174.18 123.264 175.844C123.734 176.161 124.149 176.554 124.491 177.006Z" fill="#263238"/>
<path d="M126.371 154.022C126.395 154.308 126.395 154.596 126.371 154.882C126.371 155.441 126.313 156.237 126.236 157.226C126.076 159.197 125.787 161.912 125.267 164.891C124.86 167.44 124.266 169.955 123.488 172.416C123.334 172.884 123.167 173.308 123.033 173.7L122.622 174.624C122.501 174.887 122.353 175.137 122.179 175.369C122.259 175.093 122.367 174.827 122.5 174.573C122.609 174.297 122.724 173.982 122.859 173.635C122.994 173.289 123.122 172.839 123.264 172.351C123.965 169.882 124.525 167.374 124.939 164.84C125.453 161.874 125.78 159.171 125.999 157.207C126.095 156.276 126.178 155.499 126.243 154.882C126.251 154.592 126.294 154.303 126.371 154.022Z" fill="#263238"/>
<path d="M142.729 146.748C142.729 146.748 142.665 146.575 142.511 146.273C142.282 145.846 141.949 145.483 141.541 145.221C141.24 145.014 140.895 144.878 140.534 144.825C140.172 144.772 139.803 144.802 139.455 144.912C139.013 145.063 138.619 145.327 138.31 145.677C138.002 146.027 137.79 146.452 137.696 146.909L137.606 147.365L137.407 146.941C136.656 145.33 136.002 143.674 135.449 141.985C134.468 139.17 133.977 136.208 133.998 133.228C133.998 132.657 134.075 132.143 134.107 131.687C134.139 131.231 134.242 130.853 134.312 130.544C134.38 130.22 134.475 129.903 134.595 129.594C134.376 130.794 134.253 132.009 134.229 133.228C134.282 136.175 134.8 139.096 135.763 141.882C136.317 143.559 136.96 145.205 137.689 146.813L137.4 146.851C137.511 146.346 137.753 145.879 138.101 145.497C138.449 145.115 138.892 144.832 139.384 144.675C139.766 144.559 140.17 144.535 140.563 144.603C140.957 144.671 141.329 144.829 141.65 145.066C142.067 145.36 142.396 145.761 142.6 146.228C142.657 146.351 142.698 146.481 142.722 146.614C142.735 146.697 142.742 146.748 142.729 146.748Z" fill="#263238"/>
<path d="M158.382 148.193C158.313 147.943 158.264 147.687 158.234 147.429C158.094 146.721 158.048 145.998 158.099 145.278C158.244 144.171 158.795 143.157 159.647 142.434C160.173 142.001 160.833 141.763 161.515 141.76C161.886 141.756 162.254 141.832 162.594 141.984C162.933 142.136 163.235 142.36 163.479 142.64L163.197 142.807L162.587 141.272C161.386 138.248 160.321 135.494 159.563 133.51L158.684 131.142C158.561 130.859 158.469 130.564 158.408 130.262C158.566 130.527 158.699 130.807 158.806 131.097C159.062 131.739 159.39 132.49 159.788 133.427C160.603 135.398 161.714 138.126 162.902 141.131L163.505 142.672L163.897 143.661L163.255 142.832C163.043 142.586 162.779 142.39 162.483 142.257C162.187 142.124 161.865 142.057 161.54 142.062C160.929 142.058 160.336 142.264 159.858 142.646C159.056 143.317 158.521 144.253 158.35 145.285C158.281 145.988 158.294 146.697 158.388 147.397C158.419 147.662 158.417 147.929 158.382 148.193Z" fill="#263238"/>
<path d="M170.291 149.785C170.38 149.785 171.831 159.531 173.533 171.581C175.234 183.631 176.531 193.409 176.441 193.409C176.351 193.409 174.9 183.664 173.199 171.581C171.497 159.499 170.201 149.798 170.291 149.785Z" fill="#263238"/>
<g opacity="0.3">
<path d="M135.642 142.087C135.72 144.584 136.262 147.044 137.24 149.342C137.94 148.475 138.717 147.564 139.808 147.307C141.131 146.992 142.472 147.808 143.429 148.809C143.263 147.808 142.868 146.858 142.273 146.036C141.977 145.631 141.591 145.301 141.145 145.07C140.7 144.84 140.207 144.715 139.705 144.707C139.206 144.718 138.724 144.897 138.337 145.213C137.95 145.529 137.679 145.966 137.568 146.453L135.725 142.132" fill="black"/>
</g>
<path d="M124.798 149.143C124.74 149.143 124.76 148.469 124.567 147.423C124.303 146.059 123.773 144.761 123.007 143.603C122.576 142.976 122.083 142.393 121.537 141.863C121.084 141.434 120.592 141.049 120.067 140.714C119.161 140.142 118.526 139.924 118.552 139.866C118.709 139.878 118.863 139.917 119.007 139.982C119.187 140.03 119.361 140.097 119.527 140.181C119.749 140.276 119.964 140.388 120.169 140.515C120.728 140.83 121.251 141.205 121.729 141.632C122.305 142.168 122.82 142.767 123.264 143.416C124.06 144.609 124.577 145.965 124.779 147.384C124.843 147.809 124.864 148.239 124.843 148.668C124.843 148.976 124.824 149.143 124.798 149.143Z" fill="#263238"/>
<path d="M162.066 103.362C161.7 99.9244 160.052 96.7507 157.452 94.4726C154.851 92.1945 151.488 90.9789 148.032 91.0678H147.32C139.648 91.7098 135.911 98.5856 136.772 106.232L138.877 133.132L139.77 134.223C141.773 136.684 144.535 138.414 147.623 139.142C150.712 139.87 153.955 139.556 156.847 138.248L156.256 129.594C156.256 129.594 163.614 128.259 163.511 120.876C163.466 117.293 162.773 109.962 162.066 103.362Z" fill="#FFBE9D"/>
<path d="M156.314 129.575C152.889 129.67 149.508 128.779 146.575 127.007C146.575 127.007 148.983 132.265 156.334 131.411L156.314 129.575Z" fill="#EB996E"/>
<path d="M159.729 109.435C159.736 109.71 159.637 109.976 159.453 110.179C159.269 110.383 159.014 110.507 158.74 110.527C158.606 110.54 158.471 110.527 158.343 110.487C158.214 110.448 158.095 110.383 157.991 110.297C157.888 110.211 157.803 110.105 157.741 109.986C157.679 109.867 157.641 109.736 157.629 109.602C157.621 109.328 157.719 109.06 157.903 108.857C158.088 108.653 158.344 108.529 158.618 108.511C158.752 108.497 158.888 108.51 159.016 108.549C159.145 108.588 159.265 108.652 159.369 108.739C159.472 108.825 159.557 108.931 159.619 109.051C159.681 109.17 159.718 109.301 159.729 109.435Z" fill="#263238"/>
<path d="M160.198 105.423C160.115 105.551 159.28 105.641 158.272 106.18C157.264 106.72 156.673 107.394 156.539 107.381C156.404 107.368 156.539 107.195 156.789 106.893C157.173 106.467 157.629 106.113 158.137 105.847C158.622 105.576 159.153 105.399 159.704 105.327C160.082 105.288 160.243 105.359 160.198 105.423Z" fill="#263238"/>
<path d="M149.073 109.994C149.085 110.269 148.988 110.538 148.803 110.743C148.618 110.947 148.359 111.07 148.084 111.085C147.95 111.099 147.814 111.086 147.686 111.047C147.557 111.008 147.437 110.944 147.333 110.857C147.23 110.771 147.145 110.665 147.083 110.546C147.021 110.426 146.984 110.295 146.973 110.161C146.964 109.886 147.062 109.619 147.247 109.415C147.431 109.211 147.688 109.087 147.962 109.069C148.096 109.055 148.231 109.068 148.36 109.107C148.489 109.146 148.609 109.211 148.712 109.297C148.816 109.383 148.901 109.489 148.963 109.609C149.025 109.729 149.062 109.859 149.073 109.994Z" fill="#263238"/>
<path d="M148.944 106.97C148.797 106.97 148.11 106.54 147.018 106.27C145.927 106.001 145.022 106.058 144.925 105.969C144.829 105.879 145.041 105.84 145.433 105.808C146.005 105.772 146.579 105.826 147.134 105.969C147.671 106.096 148.184 106.313 148.649 106.611C148.906 106.816 148.983 106.957 148.944 106.97Z" fill="#263238"/>
<path d="M153.36 115.785C153.955 115.586 154.572 115.459 155.197 115.406C155.485 115.406 155.755 115.303 155.8 115.104C155.818 114.807 155.744 114.511 155.588 114.257L154.67 112.068C153.386 108.96 152.474 106.399 152.603 106.354C152.731 106.309 153.887 108.781 155.126 111.888C155.434 112.658 155.729 113.39 156.005 114.09C156.195 114.434 156.259 114.834 156.185 115.22C156.145 115.323 156.082 115.417 156.001 115.492C155.92 115.568 155.823 115.624 155.717 115.656C155.558 115.706 155.394 115.734 155.229 115.74C154.61 115.835 153.983 115.85 153.36 115.785Z" fill="#263238"/>
<path d="M148.944 102.592C148.815 102.893 147.692 102.694 146.376 102.784C145.06 102.874 143.943 103.195 143.808 102.906C143.731 102.771 143.936 102.489 144.379 102.213C144.975 101.874 145.641 101.675 146.325 101.633C147.009 101.591 147.694 101.706 148.328 101.969C148.751 102.194 148.982 102.444 148.944 102.592Z" fill="#263238"/>
<path d="M160.173 102.842C159.922 103.105 158.946 102.842 157.778 102.842C156.609 102.842 155.614 103.041 155.383 102.771C155.28 102.643 155.435 102.38 155.865 102.129C156.458 101.818 157.121 101.666 157.791 101.686C158.465 101.682 159.13 101.854 159.717 102.187C160.14 102.45 160.282 102.72 160.173 102.842Z" fill="#263238"/>
<path d="M164.217 96.8007C164.152 96.4637 163.966 96.1622 163.694 95.9529C163.422 95.7435 163.083 95.6409 162.74 95.6644C163.109 95.5592 163.454 95.3825 163.755 95.1444C163.904 95.0237 164.017 94.8634 164.079 94.6816C164.142 94.4999 164.152 94.3043 164.108 94.1172C163.915 93.5458 163.183 93.4238 162.606 93.2633C161.847 93.0429 161.175 92.5946 160.68 91.9793C159.98 91.0934 159.71 89.9378 159.1 88.9812C158.706 88.3636 158.179 87.8423 157.557 87.4555C156.935 87.0687 156.234 86.8264 155.506 86.7463C154.778 86.6663 154.041 86.7505 153.35 86.9928C152.659 87.2351 152.031 87.6294 151.512 88.1466C150.945 87.5643 150.248 87.1256 149.478 86.867C148.708 86.6084 147.887 86.5374 147.084 86.6599C146.281 86.7823 145.519 87.0947 144.861 87.571C144.203 88.0473 143.668 88.6738 143.301 89.3985C142.316 88.9877 141.239 88.8494 140.182 88.9978C139.125 89.1463 138.128 89.5761 137.294 90.2423C136.461 90.9085 135.822 91.7865 135.444 92.7845C135.066 93.7824 134.964 94.8636 135.147 95.9148L139.744 98.7331C139.781 98.3835 139.892 98.0459 140.07 97.7424C140.247 97.4389 140.487 97.1765 140.774 96.9726C141.06 96.7687 141.386 96.628 141.731 96.5596C142.076 96.4912 142.432 96.4968 142.774 96.576C144.161 96.9805 145.047 98.5855 146.485 98.6946C147.608 98.7781 148.565 97.9114 149.65 97.6225C150.966 97.2694 152.359 97.7958 153.547 98.4635C154.735 99.1312 155.871 99.9658 157.194 100.3C158.773 100.616 160.413 100.421 161.874 99.7411C162.522 99.5135 163.114 99.1477 163.607 98.669C163.85 98.4287 164.033 98.1338 164.139 97.8088C164.245 97.4838 164.272 97.1382 164.217 96.8007Z" fill="#263238"/>
<path d="M140.521 96.5634L161.578 96.4478C160.818 95.0326 159.715 93.8315 158.368 92.9553C155.572 90.912 152.202 89.8043 148.738 89.7903C145.304 89.7903 138.434 94.2008 136.014 96.634C134.088 98.56 134.139 100.223 134.139 100.223C133.895 102.958 135.507 106.001 136.194 108.678C136.54 110.052 137.266 114.212 137.266 114.212C138.421 114.18 138.826 113.243 138.62 112.1L138.28 107.606C139.416 106.658 140.212 105.365 140.547 103.924C140.882 102.482 140.737 100.971 140.135 99.6193C139.847 99.2213 139.153 97.3659 140.521 96.5634Z" fill="#263238"/>
<path d="M137.979 107.31C136.907 103.587 135.918 99.6064 137.061 95.8828H136.419L136.162 96.069C135.568 95.8695 134.927 95.8643 134.33 96.0542C133.733 96.2441 133.212 96.6192 132.843 97.1251C132.474 97.6309 132.275 98.2412 132.277 98.8675C132.278 99.4938 132.478 100.103 132.849 100.608C132.223 100.602 131.617 100.826 131.144 101.236C130.671 101.646 130.364 102.215 130.281 102.836C130.283 103.7 130.521 104.548 130.968 105.288C131.417 106.03 131.691 106.864 131.771 107.728C131.798 108.158 131.672 108.583 131.416 108.93C131.16 109.276 130.79 109.521 130.371 109.622C130.574 110.06 130.922 110.414 131.356 110.626C131.789 110.838 132.283 110.893 132.753 110.784C132.453 111.515 131.952 112.148 131.308 112.607C132.682 113.544 134.563 113.249 136.053 112.498C136.977 112.126 137.731 111.427 138.171 110.533C138.582 109.5 138.274 108.363 137.979 107.31Z" fill="#263238"/>
<path d="M137.632 111.657C137.503 111.605 132.496 110.289 132.81 115.329C133.125 120.369 138.107 119.04 138.107 118.892C138.107 118.745 137.632 111.657 137.632 111.657Z" fill="#FFBE9D"/>
<path d="M136.9 117.062C136.9 117.062 136.816 117.127 136.669 117.204C136.469 117.303 136.239 117.321 136.027 117.255C135.481 117.088 134.987 116.273 134.909 115.361C134.871 114.926 134.93 114.487 135.083 114.077C135.124 113.915 135.204 113.766 135.316 113.641C135.427 113.517 135.568 113.422 135.725 113.365C135.824 113.334 135.932 113.338 136.029 113.376C136.126 113.415 136.207 113.485 136.258 113.576C136.335 113.711 136.303 113.814 136.335 113.827C136.367 113.84 136.437 113.731 136.386 113.525C136.345 113.405 136.269 113.3 136.168 113.223C136.097 113.174 136.016 113.139 135.931 113.121C135.846 113.104 135.759 113.103 135.673 113.121C135.469 113.174 135.282 113.279 135.129 113.425C134.976 113.571 134.863 113.753 134.8 113.955C134.615 114.406 134.538 114.894 134.576 115.38C134.672 116.395 135.218 117.306 135.988 117.486C136.125 117.516 136.266 117.516 136.403 117.485C136.539 117.454 136.667 117.393 136.778 117.306C136.9 117.184 136.919 117.069 136.9 117.062Z" fill="#EB996E"/>
<path d="M132.399 107.477C132.399 107.477 132.258 107.285 132.303 106.887C132.357 106.616 132.469 106.361 132.632 106.14C132.795 105.918 133.005 105.734 133.247 105.603C133.97 105.258 134.757 105.068 135.558 105.044C136.006 105.044 136.447 104.938 136.847 104.735C137.246 104.532 137.592 104.238 137.856 103.876C138.275 103.059 138.415 102.128 138.254 101.224C138.132 100.377 137.907 99.6126 137.798 98.9514C137.595 98.2429 137.606 97.49 137.83 96.7878C137.835 97.4962 137.914 98.2021 138.068 98.8936C138.209 99.5356 138.46 100.287 138.614 101.179C138.808 102.166 138.658 103.19 138.19 104.081C137.911 104.541 137.49 104.898 136.989 105.095C136.541 105.262 136.073 105.365 135.596 105.403C134.837 105.408 134.085 105.556 133.381 105.84C133.161 105.953 132.965 106.109 132.805 106.299C132.645 106.488 132.525 106.708 132.45 106.944C132.422 107.121 132.404 107.299 132.399 107.477Z" fill="#455A64"/>
<path d="M131.18 105.288C131.18 105.288 131.071 105.147 131.026 104.832C130.974 104.389 131.062 103.94 131.277 103.548C131.424 103.27 131.627 103.025 131.874 102.829C132.162 102.613 132.492 102.46 132.843 102.38C133.184 102.307 133.508 102.172 133.8 101.982C133.929 101.866 134.03 101.723 134.095 101.563C134.161 101.403 134.189 101.23 134.179 101.057C134.179 100.679 134.134 100.274 134.146 99.8696C134.152 99.4833 134.195 99.0984 134.275 98.7204C134.404 98.0818 134.65 97.4725 135 96.9228C135.112 96.7211 135.271 96.5504 135.465 96.4259C135.659 96.3015 135.881 96.2274 136.111 96.2102C136.445 96.2102 136.586 96.3643 136.573 96.3771C136.56 96.39 136.406 96.3193 136.124 96.3771C135.931 96.4183 135.75 96.5035 135.595 96.626C135.44 96.7484 135.316 96.9049 135.231 97.0833C134.942 97.6218 134.738 98.2024 134.628 98.8039C134.566 99.1601 134.534 99.5209 134.532 99.8824C134.532 100.255 134.589 100.653 134.57 101.089C134.579 101.318 134.536 101.546 134.444 101.755C134.352 101.964 134.212 102.149 134.037 102.296C133.706 102.518 133.332 102.669 132.939 102.739C132.647 102.789 132.369 102.901 132.123 103.067C131.877 103.233 131.67 103.45 131.514 103.702C131.25 104.187 131.134 104.738 131.18 105.288Z" fill="#455A64"/>
<path d="M160.686 91.9794C160.718 91.9794 160.307 92.2555 159.646 91.9473C159.273 91.7454 158.948 91.4676 158.689 91.132C158.371 90.7144 157.974 90.3633 157.521 90.0984C156.931 89.7669 156.258 89.6141 155.583 89.6586C154.908 89.7031 154.261 89.9428 153.72 90.3487C153.078 90.7981 152.545 91.4337 151.794 91.9602C151.412 92.2435 150.975 92.4426 150.51 92.5444C150.029 92.6286 149.535 92.582 149.078 92.4096C148.167 92.0821 147.448 91.5236 146.665 91.2411C145.909 90.951 145.105 90.8051 144.296 90.811C142.901 90.8092 141.546 91.2723 140.444 92.1271C139.708 92.7021 139.096 93.4207 138.646 94.2393C138.331 94.8235 138.216 95.183 138.184 95.1702C138.152 95.1573 138.184 95.0739 138.235 94.9005C138.308 94.6506 138.398 94.406 138.505 94.1686C138.919 93.2944 139.522 92.5227 140.27 91.9088C141.397 90.9877 142.802 90.4742 144.257 90.4515C145.114 90.4292 145.967 90.5753 146.767 90.8816C147.615 91.1898 148.347 91.7483 149.175 92.0372C149.567 92.1883 149.993 92.2305 150.407 92.1592C150.809 92.067 151.188 91.8921 151.518 91.6456C152.192 91.1641 152.757 90.5285 153.444 90.0534C154.079 89.5776 154.853 89.3228 155.646 89.328C156.323 89.3329 156.987 89.5144 157.572 89.8544C158.041 90.1534 158.448 90.5391 158.773 90.9907C158.998 91.3206 159.288 91.6004 159.627 91.8125C159.945 92.002 160.324 92.0618 160.686 91.9794Z" fill="#455A64"/>
<path d="M150.562 117.107C150.723 117.107 150.903 118.147 151.955 118.757C153.008 119.367 154.132 119.059 154.17 119.207C154.209 119.354 153.946 119.464 153.464 119.553C152.835 119.67 152.185 119.561 151.628 119.245C151.095 118.937 150.7 118.436 150.524 117.846C150.408 117.403 150.485 117.114 150.562 117.107Z" fill="#263238"/>
<path d="M216.996 217.42C215.041 215.741 212.505 214.897 209.934 215.07L205.594 228.854C208.772 228.995 211.943 230.632 215.012 229.791C216.237 229.413 217.329 228.693 218.159 227.714C218.988 226.736 219.52 225.541 219.692 224.27C219.826 222.996 219.65 221.708 219.181 220.515C218.712 219.323 217.962 218.261 216.996 217.42Z" fill="#0D21A1"/>
<path d="M209.986 214.755C209.986 214.646 210.454 214.556 211.27 214.563C212.483 214.585 213.683 214.813 214.82 215.237C216.557 215.914 218.06 217.08 219.147 218.595C219.811 219.493 220.301 220.508 220.591 221.586C220.906 222.767 220.941 224.004 220.694 225.201C220.455 226.413 219.914 227.546 219.121 228.494C218.362 229.358 217.4 230.02 216.322 230.42C214.571 231.04 212.682 231.162 210.865 230.773C209.696 230.544 208.555 230.189 207.463 229.714C206.699 229.387 206.294 229.143 206.333 229.034C206.371 228.924 206.833 228.956 207.617 229.091C208.4 229.226 209.588 229.476 211 229.605C212.602 229.783 214.223 229.562 215.719 228.963C216.539 228.616 217.265 228.079 217.837 227.396C218.437 226.65 218.847 225.768 219.031 224.828C219.208 223.897 219.194 222.939 218.993 222.012C218.791 221.086 218.404 220.21 217.856 219.436C216.972 218.096 215.755 217.007 214.325 216.277C213.312 215.799 212.251 215.429 211.16 215.173C210.422 215.006 209.973 214.871 209.986 214.755Z" fill="#F5F5F5"/>
<path d="M169.777 266.469L160.34 292.912L193.178 304.822C194.128 301.612 179.42 289.157 179.42 289.157L186.161 272.465L169.777 266.469Z" fill="#0D21A1"/>
<g opacity="0.6">
<path d="M169.783 284.053C169.432 284.034 169.086 284.145 168.812 284.366C168.539 284.586 168.356 284.9 168.299 285.247C168.268 285.596 168.372 285.944 168.589 286.218C168.806 286.493 169.121 286.674 169.468 286.723C169.842 286.743 170.21 286.623 170.5 286.385C170.79 286.148 170.98 285.81 171.034 285.439C171.034 284.74 170.341 283.937 169.648 284.034" fill="white"/>
</g>
<path d="M160.34 292.913L161.296 290.248L192.485 302.69C192.485 302.69 193.717 303.852 193.178 304.822L160.34 292.913Z" fill="white"/>
<path d="M180.017 289.183C179.953 289.343 179.125 289.125 178.149 289.356C177.173 289.587 176.505 290.107 176.383 289.998C176.261 289.889 176.833 289.041 178.02 288.785C179.208 288.528 180.101 289.048 180.017 289.183Z" fill="#263238"/>
<path d="M182.969 291.86C182.969 292.027 182.154 292.046 181.364 292.502C180.575 292.957 180.157 293.644 179.997 293.58C179.836 293.516 180.067 292.572 181.062 291.988C182.058 291.404 182.969 291.706 182.969 291.86Z" fill="#263238"/>
<path d="M183.4 296.687C183.246 296.687 183.31 295.789 184.042 295.057C184.774 294.325 185.647 294.254 185.667 294.415C185.686 294.575 185.057 294.871 184.466 295.481C183.875 296.09 183.567 296.732 183.4 296.687Z" fill="#263238"/>
<path d="M181.127 285.208C181.005 285.33 180.351 284.843 179.426 284.566C178.502 284.29 177.686 284.329 177.654 284.162C177.622 283.995 178.502 283.668 179.58 284.002C180.659 284.335 181.256 285.112 181.127 285.208Z" fill="#263238"/>
<path d="M181.756 281.029C181.167 280.977 180.602 280.769 180.119 280.426C179.563 280.107 179.049 279.719 178.591 279.27C178.317 279.008 178.062 278.727 177.827 278.429C177.679 278.26 177.558 278.07 177.468 277.864C177.403 277.712 177.392 277.543 177.435 277.383C177.478 277.224 177.573 277.083 177.705 276.985C177.826 276.902 177.964 276.849 178.109 276.828C178.254 276.808 178.401 276.822 178.54 276.869C178.748 276.944 178.945 277.048 179.124 277.177C179.445 277.392 179.746 277.634 180.023 277.903C180.487 278.352 180.877 278.872 181.179 279.443C181.508 279.944 181.676 280.533 181.66 281.132C181.57 281.132 181.378 280.522 180.819 279.655C180.488 279.157 180.095 278.702 179.651 278.301C179.388 278.065 179.106 277.85 178.81 277.659C178.495 277.44 178.2 277.331 178.058 277.453C177.917 277.575 177.988 277.524 178.026 277.652C178.093 277.804 178.182 277.944 178.29 278.07C178.5 278.354 178.73 278.625 178.976 278.878C179.393 279.317 179.851 279.715 180.344 280.066C181.191 280.676 181.795 280.946 181.756 281.029Z" fill="#263238"/>
<path d="M181.467 281.196C181.328 280.614 181.377 280.002 181.608 279.45C181.803 278.831 182.1 278.249 182.488 277.729C182.72 277.424 182.98 277.14 183.265 276.882C183.434 276.698 183.647 276.56 183.884 276.482C184.121 276.403 184.374 276.386 184.619 276.432C184.764 276.49 184.89 276.588 184.982 276.714C185.074 276.84 185.129 276.989 185.139 277.145C185.151 277.36 185.134 277.576 185.088 277.787C184.987 278.308 184.783 278.804 184.487 279.245C184.192 279.686 183.811 280.063 183.367 280.355C182.417 280.997 181.679 280.92 181.685 280.862C181.692 280.805 182.327 280.657 183.123 280.015C183.576 279.646 183.944 279.184 184.202 278.66C184.352 278.356 184.457 278.031 184.517 277.697C184.594 277.331 184.561 276.997 184.42 276.991C184.276 276.985 184.132 277.012 183.998 277.069C183.865 277.125 183.746 277.21 183.65 277.318C183.384 277.544 183.139 277.793 182.918 278.063C182.542 278.523 182.234 279.036 182.006 279.585C181.608 280.554 181.563 281.196 181.467 281.196Z" fill="#263238"/>
<path d="M137.965 195.849C132.983 195.964 128.258 196.664 124.823 200.278C120.271 205.074 114.647 211.899 114.326 216.63C113.851 223.692 118.121 225.811 121.234 227.544C122.612 228.289 124.164 228.65 125.728 228.591L183.303 228.154L185.107 218.402L147.871 209.221L149.418 195.207L137.965 195.849Z" fill="#263238"/>
<path d="M149.451 195.2L167.562 194.365C167.562 194.365 198.853 196.105 205.524 202.224C212.194 208.342 211.366 215.295 209.138 221.965C206.91 228.635 187.31 271.322 187.31 271.322C187.31 271.322 188.902 274.038 188.01 276.747C187.649 277.934 186.985 279.006 186.085 279.859C185.185 280.712 184.078 281.317 182.874 281.613L165.463 275.193C165.463 275.193 163.1 274.359 164.769 272.131C166.439 269.903 167.549 269.492 167.549 269.492V265.043C167.549 265.043 173.667 253.917 174.22 252.389C174.772 250.861 180.64 228.225 180.64 228.225L184.537 221.528C184.537 221.528 175.118 217.099 166.952 213.889L147.885 209.189L149.451 195.2Z" fill="#263238"/>
<path d="M178.828 274.41C178.302 274.104 177.792 273.77 177.3 273.409C174.841 271.815 172.07 270.762 169.173 270.321C168.565 270.262 167.961 270.172 167.362 270.051C167.973 269.98 168.59 269.991 169.198 270.083C172.168 270.4 175.005 271.48 177.435 273.216C177.95 273.551 178.419 273.953 178.828 274.41Z" fill="#455A64"/>
<path d="M187.529 271.354C187.149 271.043 186.81 270.685 186.521 270.289C185.93 269.602 185.147 268.626 184.331 267.509C183.516 266.392 182.81 265.358 182.328 264.594C182.041 264.194 181.8 263.764 181.609 263.31C181.954 263.659 182.26 264.044 182.521 264.459L184.601 267.31C185.378 268.363 186.091 269.313 186.707 270.141C187.024 270.514 187.3 270.921 187.529 271.354Z" fill="#455A64"/>
<path d="M193.883 215.442C193.883 215.494 193.241 215.635 192.233 215.969C189.594 216.84 187.203 218.333 185.261 220.322C184.882 220.759 184.481 221.177 184.061 221.573C184.332 221.055 184.678 220.579 185.088 220.161C186.022 219.106 187.103 218.192 188.298 217.445C189.492 216.694 190.79 216.121 192.15 215.744C192.709 215.557 193.293 215.455 193.883 215.442Z" fill="#455A64"/>
<path d="M176.101 245.668C176.108 245.539 176.132 245.412 176.171 245.289L176.441 244.23L177.481 240.346L181.044 227.563C181.769 225.066 182.386 222.691 183.086 220.534C183.824 218.659 184.941 216.957 186.366 215.532C187.307 214.567 188.349 213.707 189.473 212.964C189.878 212.708 190.192 212.515 190.417 212.399C190.525 212.331 190.639 212.273 190.757 212.226C190.757 212.226 190.321 212.521 189.55 213.067C188.463 213.844 187.452 214.723 186.533 215.693C185.158 217.111 184.084 218.793 183.374 220.636C182.732 222.761 182.09 225.169 181.365 227.653L177.712 240.403C177.237 242.002 176.845 243.305 176.563 244.255C176.428 244.679 176.325 245.026 176.235 245.295C176.207 245.425 176.162 245.55 176.101 245.668Z" fill="#455A64"/>
<path d="M160.082 213.06C159.986 213.06 159.607 209.684 159.228 205.498C158.849 201.312 158.586 197.909 158.715 197.903C158.843 197.896 159.183 201.28 159.562 205.466C159.941 209.651 160.172 213.054 160.082 213.06Z" fill="#455A64"/>
<path d="M129.934 222.132C129.883 222.132 129.607 221.612 129.035 220.81C128.298 219.766 127.413 218.834 126.41 218.043C125.398 217.261 124.28 216.628 123.09 216.162C122.172 215.802 121.575 215.667 121.588 215.609C122.128 215.635 122.662 215.745 123.167 215.937C125.678 216.765 127.823 218.44 129.234 220.675C129.546 221.119 129.782 221.611 129.934 222.132Z" fill="#455A64"/>
<path d="M141.028 209.806C141.028 209.857 140.232 209.369 138.903 208.759C135.416 207.175 131.549 206.623 127.758 207.167C126.313 207.373 125.434 207.629 125.421 207.572C125.608 207.466 125.809 207.388 126.018 207.341C126.576 207.168 127.144 207.031 127.719 206.93C131.554 206.257 135.502 206.823 138.993 208.547C139.516 208.806 140.022 209.097 140.508 209.421C140.698 209.524 140.873 209.654 141.028 209.806Z" fill="#455A64"/>
<path d="M184.401 218.383C184.246 218.375 184.093 218.349 183.945 218.306L182.661 218.03L177.974 216.996C174.013 216.11 168.531 214.916 162.451 213.715C156.371 212.515 150.85 211.52 146.85 210.833L142.106 210.017L140.822 209.793C140.67 209.775 140.521 209.738 140.379 209.684C140.531 209.688 140.684 209.701 140.835 209.722L142.119 209.889C143.242 210.043 144.866 210.287 146.876 210.602C150.888 211.244 156.422 212.181 162.509 213.388C168.595 214.595 174.065 215.821 178.019 216.765C179.99 217.24 181.589 217.638 182.687 217.927L183.971 218.261C184.117 218.288 184.261 218.329 184.401 218.383Z" fill="#455A64"/>
<path d="M147.904 210.865C147.84 210.865 147.705 210.107 147.108 209.029C146.759 208.406 146.327 207.834 145.824 207.327C145.19 206.703 144.517 206.12 143.808 205.581C142.503 204.617 141.122 203.758 139.68 203.013C139.07 202.723 138.482 202.388 137.921 202.012C138.567 202.216 139.192 202.48 139.789 202.801C141.279 203.492 142.694 204.333 144.013 205.312C144.732 205.859 145.41 206.458 146.042 207.103C146.558 207.637 146.991 208.245 147.326 208.907C147.557 209.354 147.732 209.829 147.846 210.319C147.899 210.496 147.919 210.681 147.904 210.865Z" fill="#455A64"/>
<path d="M212.033 219.564C212.103 219.641 211.14 220.61 210.389 222.093C209.638 223.576 209.394 224.912 209.298 224.893C209.296 223.855 209.57 222.835 210.094 221.939C210.52 220.991 211.188 220.171 212.033 219.564Z" fill="#263238"/>
<g opacity="0.3">
<path d="M170.823 153.785L174.945 182.816L175.15 183.278C176.117 173.242 174.632 163.121 170.823 153.785Z" fill="black"/>
</g>
<path d="M193.017 170.464L179.618 193.884L146.6 194.603L146.517 196.099L178.488 195.861L179.503 195.823L213.259 195.893L220.083 184.126L228.802 171.632C228.928 171.447 229.001 171.231 229.013 171.007C229.026 170.783 228.977 170.56 228.872 170.362C228.767 170.164 228.61 169.998 228.417 169.882C228.225 169.767 228.005 169.706 227.781 169.706L194.082 169.835C193.865 169.836 193.652 169.895 193.465 170.006C193.278 170.116 193.123 170.274 193.017 170.464Z" fill="#E0E0E0"/>
<path d="M220.084 184.145C220.084 184.145 221.817 185.737 221.547 187.085C221.278 188.434 221.361 189.442 220.084 189.531C220.107 190.025 219.941 190.508 219.618 190.882C219.296 191.256 218.842 191.492 218.35 191.541C218.35 191.541 218.742 193.659 216.277 194.025C216.277 194.025 215.519 196.292 213.965 195.74C213.07 195.435 212.209 195.037 211.397 194.552L210.942 193.73C210.942 193.73 208.65 192.87 209.215 191.579C209.561 190.796 210.743 190.591 210.743 190.591C210.607 190.269 210.549 189.92 210.575 189.571C210.6 189.223 210.709 188.886 210.89 188.588C211.436 187.849 213.221 188.459 213.221 188.459C213.184 187.827 213.385 187.204 213.786 186.713C214.428 185.988 217.24 187.946 217.24 187.946L218.787 186.097L220.084 184.145Z" fill="#FFBE9D"/>
<path d="M216.276 194.025C215.275 193.599 214.32 193.072 213.426 192.452C212.473 191.926 211.578 191.303 210.755 190.591C211.755 191.021 212.71 191.55 213.605 192.17C214.556 192.697 215.451 193.319 216.276 194.025Z" fill="#EB996E"/>
<path d="M218.35 191.541C217.419 191.175 216.532 190.705 215.705 190.141C214.822 189.673 213.993 189.109 213.233 188.459C214.166 188.822 215.054 189.292 215.878 189.859C216.762 190.327 217.591 190.891 218.35 191.541Z" fill="#EB996E"/>
<path d="M215.525 186.893C215.577 186.796 216.636 187.355 217.869 188.138C218.633 188.579 219.368 189.068 220.071 189.602C220.026 189.711 218.922 189.21 217.689 188.421C216.916 187.989 216.191 187.477 215.525 186.893Z" fill="#EB996E"/>
<path d="M228.803 170.605C228.749 170.614 228.695 170.614 228.642 170.605H228.167H226.344L219.641 170.656L197.524 170.708H195.913C195.676 170.685 195.436 170.727 195.221 170.829C195.005 170.93 194.82 171.088 194.687 171.286C194.173 172.201 193.672 173.105 193.184 173.995L190.334 179.131L185.5 187.817C184.126 190.27 183.002 192.26 182.213 193.666C181.834 194.308 181.526 194.86 181.307 195.245L181.064 195.649L180.974 195.784C180.974 195.784 180.974 195.727 181.031 195.63L181.25 195.207L182.104 193.602L185.314 187.702L190.09 178.977C190.989 177.34 191.939 175.619 192.915 173.841L194.424 171.112C194.588 170.868 194.814 170.672 195.079 170.543C195.344 170.415 195.639 170.358 195.932 170.38H197.544L219.661 170.425L226.363 170.483L228.186 170.515H228.661C228.713 170.537 228.761 170.567 228.803 170.605Z" fill="#263238"/>
<path d="M205.048 182.386C204.893 182.611 204.805 182.877 204.797 183.151C204.788 183.425 204.859 183.696 205 183.931C205.141 184.166 205.348 184.355 205.594 184.475C205.84 184.596 206.116 184.643 206.388 184.611C206.66 184.579 206.917 184.469 207.129 184.295C207.34 184.12 207.497 183.888 207.58 183.627C207.663 183.365 207.668 183.086 207.596 182.821C207.524 182.557 207.377 182.319 207.173 182.135C206.858 181.889 206.457 181.777 206.06 181.824C205.662 181.871 205.298 182.073 205.048 182.386Z" fill="white"/>
<g opacity="0.3">
<path d="M111.316 173.34C111.033 173.456 110.706 173.648 110.706 173.982C110.716 174.106 110.768 174.223 110.853 174.314C110.938 174.405 111.052 174.465 111.175 174.483C111.646 174.416 112.107 174.293 112.549 174.117C116.022 173.353 118.879 174.085 122.179 175.401L122.288 175.292C120.978 172.448 115.052 171.819 111.316 173.34Z" fill="black"/>
</g>
<path d="M290.184 303.666C290.184 303.756 232.116 303.833 160.5 303.833C88.8853 303.833 30.8164 303.73 30.8164 303.666C30.8164 303.602 88.8725 303.499 160.5 303.499C232.128 303.499 290.184 303.544 290.184 303.666Z" fill="#263238"/>
<path d="M93.3592 99.0028C93.4683 99.1119 114.789 91.7867 114.789 91.7867L106.572 72.9761L87.6133 80.2499L98.0522 86.2462L93.3592 99.0028Z" fill="#455A64"/>
<path d="M103.362 78.6387V53.0293C103.362 53.0293 132.772 47.6494 153.965 47.9704C175.157 48.2914 196.979 51.7646 196.979 51.7646V76.3532C196.979 76.3532 130.557 70.4211 103.362 78.6387Z" fill="#455A64"/>
<path d="M103.208 78.6642L114.764 91.8958V76.353C114.764 76.353 105.102 77.5086 103.208 78.6642Z" fill="#263238"/>
<path d="M103.361 53.0229C103.458 53.0229 103.496 58.8009 103.458 65.8629C103.419 72.9249 103.304 78.7029 103.214 78.7029C103.124 78.7029 103.079 72.9635 103.117 65.8629C103.156 58.7624 103.265 53.0229 103.361 53.0229Z" fill="#263238"/>
<path d="M206.929 97.0385C206.82 97.1476 185.499 89.8224 185.499 89.8224L193.697 71.0054L212.675 78.2664L202.23 84.2627L206.929 97.0385Z" fill="#455A64"/>
<path d="M197.094 76.6999L185.538 89.9315V75.5122C189.413 75.6448 193.274 76.0417 197.094 76.6999Z" fill="#263238"/>
<path d="M196.965 51.7644C197.055 51.7644 197.158 57.3434 197.19 64.232C197.222 71.1207 197.19 76.6997 197.081 76.6997C196.972 76.6997 196.888 71.1207 196.856 64.232C196.824 57.3434 196.869 51.7644 196.965 51.7644Z" fill="#263238"/>
<path d="M119.945 64.2576C119.884 63.5204 120.043 62.7816 120.4 62.1337C120.757 61.4858 121.297 60.9575 121.952 60.6149C122.608 60.2724 123.35 60.1307 124.086 60.2077C124.822 60.2846 125.518 60.5768 126.089 61.0476L125.19 62.1262C124.948 61.9054 124.66 61.7408 124.347 61.6442C124.035 61.5477 123.704 61.5215 123.38 61.5677C122.804 61.6477 122.284 61.9531 121.934 62.4166C121.583 62.8801 121.431 63.4639 121.512 64.0394C121.592 64.6149 121.897 65.135 122.36 65.4854C122.824 65.8357 123.408 65.9876 123.983 65.9076C124.31 65.8647 124.622 65.7489 124.898 65.5689C125.173 65.3889 125.405 65.1492 125.575 64.8675L126.705 65.6572C126.287 66.2662 125.698 66.7382 125.012 67.014C124.326 67.2899 123.575 67.3573 122.851 67.2079C122.127 67.0585 121.464 66.6989 120.943 66.1741C120.423 65.6493 120.069 64.9826 119.926 64.2576H119.945Z" fill="white"/>
<path d="M126.949 63.2949C126.83 62.5536 126.935 61.7936 127.253 61.1132C127.57 60.4328 128.084 59.8633 128.729 59.4786C129.374 59.0938 130.119 58.9114 130.869 58.9551C131.618 58.9987 132.337 59.2664 132.933 59.7235C133.529 60.1805 133.973 60.8058 134.21 61.5185C134.446 62.2312 134.463 62.9983 134.258 63.7206C134.053 64.443 133.636 65.0872 133.061 65.5698C132.486 66.0525 131.779 66.3514 131.032 66.4278C130.557 66.5037 130.071 66.4818 129.604 66.3635C129.137 66.2452 128.699 66.033 128.317 65.7398C127.935 65.4466 127.616 65.0786 127.381 64.6582C127.146 64.2378 126.999 63.7739 126.949 63.2949ZM132.798 62.6914C132.746 62.2748 132.572 61.8828 132.298 61.5643C132.025 61.2459 131.664 61.0149 131.26 60.9004C130.856 60.7858 130.427 60.7927 130.027 60.9202C129.627 61.0477 129.274 61.2901 129.011 61.6172C128.748 61.9444 128.587 62.3417 128.548 62.7598C128.509 63.1778 128.594 63.598 128.793 63.9679C128.991 64.3378 129.294 64.6411 129.664 64.8399C130.034 65.0388 130.454 65.1244 130.872 65.086C131.16 65.0671 131.441 64.9885 131.698 64.8552C131.954 64.7219 132.18 64.5368 132.361 64.3117C132.542 64.0866 132.674 63.8263 132.749 63.5474C132.825 63.2685 132.841 62.977 132.798 62.6914Z" fill="white"/>
<path d="M142.081 65.4326L141.805 61.3367L140.014 64.842L139.307 64.8869L137.093 61.7283L137.356 65.7344L135.873 65.8307L135.462 59.0062L136.746 58.9228L139.571 62.9995L141.811 58.6018L143.095 58.5183L143.558 65.3363L142.081 65.4326Z" fill="white"/>
<path d="M150.921 60.7588C150.959 62.2867 149.842 63.2626 148.019 63.3268L146.639 63.3653L146.696 65.2528L145.111 65.2977L144.918 58.4219L147.878 58.3384C149.707 58.3127 150.869 59.2308 150.921 60.7588ZM149.316 60.8037C149.316 60.0526 148.796 59.6288 147.826 59.6545L146.542 59.693L146.613 62.0684L147.897 62.0299C148.86 62.0042 149.335 61.5484 149.316 60.8037Z" fill="white"/>
<path d="M152.154 58.2744H153.734V63.8213H157.162V65.1053H152.154V58.2744Z" fill="white"/>
<path d="M163.293 64.0204V65.3044L157.996 65.1503L158.195 58.313L163.331 58.4671L163.293 59.7511L159.697 59.6419L159.659 61.1314L162.83 61.2212L162.792 62.4539L159.62 62.3576L159.575 63.9433L163.293 64.0204Z" fill="white"/>
<path d="M166.22 59.8987L164.037 59.7703L164.114 58.4863L170.059 58.8459L169.982 60.1299L167.799 59.995L167.465 65.5355L165.886 65.4392L166.22 59.8987Z" fill="white"/>
<path d="M175.819 64.9576L175.703 66.2416L170.426 65.7537L171.068 58.9485L176.204 59.4236L176.088 60.7076L172.506 60.348L172.371 61.8311L175.53 62.12L175.421 63.3462L172.255 63.0573L172.114 64.6302L175.819 64.9576Z" fill="white"/>
<path d="M177.795 59.5713L180.87 59.9822C183.085 60.2775 184.427 61.8119 184.157 63.8342C183.887 65.8565 182.18 67.0442 179.965 66.7232L176.89 66.3123L177.795 59.5713ZM180.061 65.4584C180.341 65.5033 180.626 65.4917 180.901 65.4243C181.176 65.357 181.435 65.2352 181.662 65.0663C181.889 64.8974 182.08 64.6846 182.223 64.4407C182.367 64.1967 182.46 63.9265 182.497 63.646C182.534 63.3654 182.515 63.0803 182.44 62.8073C182.366 62.5343 182.237 62.2791 182.062 62.0566C181.887 61.8342 181.669 61.6491 181.421 61.5122C181.174 61.3754 180.901 61.2895 180.62 61.2597L179.188 61.0672L178.629 65.2658L180.061 65.4584Z" fill="white"/>
<path d="M210.119 54.0949L211.801 56.0658L216.539 54.0949L215.152 52.0212L210.119 54.0949Z" fill="#455A64"/>
<path d="M207.95 44.7153C207.95 45.2029 207.806 45.6795 207.535 46.0849C207.264 46.4903 206.879 46.8063 206.428 46.9929C205.978 47.1795 205.482 47.2283 205.004 47.1332C204.526 47.0381 204.086 46.8033 203.742 46.4585C203.397 46.1137 203.162 45.6745 203.067 45.1962C202.972 44.718 203.021 44.2223 203.207 43.7719C203.394 43.3214 203.71 42.9364 204.115 42.6655C204.521 42.3946 204.997 42.25 205.485 42.25C206.138 42.2517 206.764 42.512 207.226 42.9739C207.688 43.4359 207.948 44.062 207.95 44.7153Z" fill="#0D21A1"/>
<path d="M152.725 81.489C152.724 81.7333 152.65 81.9717 152.513 82.174C152.376 82.3762 152.182 82.5332 151.955 82.6249C151.729 82.7166 151.48 82.739 151.241 82.6891C151.002 82.6392 150.783 82.5194 150.612 82.3448C150.441 82.1703 150.326 81.9488 150.281 81.7086C150.236 81.4685 150.263 81.2204 150.36 80.9959C150.456 80.7714 150.617 80.5806 150.822 80.4478C151.027 80.315 151.267 80.2461 151.512 80.2499C151.836 80.255 152.146 80.388 152.373 80.62C152.6 80.852 152.727 81.1642 152.725 81.489Z" fill="#0D21A1"/>
<path d="M95.2985 62.9608C95.2985 63.1468 95.2431 63.3285 95.1396 63.4829C95.036 63.6373 94.8888 63.7574 94.7168 63.828C94.5448 63.8985 94.3557 63.9163 94.1735 63.8791C93.9913 63.8419 93.8244 63.7513 93.6938 63.619C93.5633 63.4866 93.475 63.3184 93.4403 63.1357C93.4056 62.9531 93.426 62.7642 93.4989 62.5932C93.5718 62.4221 93.694 62.2766 93.8498 62.1752C94.0056 62.0738 94.1881 62.021 94.374 62.0235C94.6204 62.0269 94.8555 62.1271 95.0285 62.3026C95.2015 62.478 95.2985 62.7145 95.2985 62.9608Z" fill="#0D21A1"/>
<path d="M91.8184 52.644L94.579 52.811L95.8886 47.3796L93.3078 47.4888L91.8184 52.644Z" fill="#455A64"/>
<path d="M178.104 95.9983L179.034 98.6048L184.543 97.6803L183.432 95.3499L178.104 95.9983Z" fill="#0D21A1"/>
<path d="M122.391 80.9563L120.689 83.1391L124.419 87.2928L125.793 85.1036L122.391 80.9563Z" fill="#455A64"/>
<path d="M115.797 29.6797L122.314 36.3244L131.488 32.8576L131.854 35.1367L127.88 43.2708L131.546 49.3441L131.237 51.161L122.359 49.6651L117.107 55.4239L115.874 54.493L114.789 47.1678L106.508 42.8535L106.142 41.1779L114.481 38.8988L115.797 29.6797Z" fill="#0D21A1"/>
<g opacity="0.3">
<path d="M115.797 29.6797L122.314 36.3244L131.488 32.8576L131.854 35.1367L127.88 43.2708L131.546 49.3441L131.237 51.161L122.359 49.6651L117.107 55.4239L115.874 54.493L114.789 47.1678L106.508 42.8535L106.142 41.1779L114.481 38.8988L115.797 29.6797Z" fill="black"/>
</g>
<path d="M115.797 27.8115L122.314 34.4626L131.488 32.8576L127.18 41.1138L131.546 49.3442L122.359 47.8034L115.874 54.493L114.507 45.2803L106.142 41.178L114.481 37.0306L115.797 27.8115Z" fill="#0D21A1"/>
<path d="M183.368 29.6797L176.845 36.3244L167.671 32.8576L167.305 35.1367L171.279 43.2708L167.613 49.3441L167.921 51.161L176.8 49.6651L182.051 55.4239L183.284 54.493L184.369 47.1678L192.651 42.8535L193.017 41.1779L184.677 38.8988L183.368 29.6797Z" fill="#0D21A1"/>
<g opacity="0.3">
<path d="M183.368 29.6797L176.845 36.3244L167.671 32.8576L167.305 35.1367L171.279 43.2708L167.613 49.3441L167.921 51.161L176.8 49.6651L182.051 55.4239L183.284 54.493L184.369 47.1678L192.651 42.8535L193.017 41.1779L184.677 38.8988L183.368 29.6797Z" fill="black"/>
</g>
<path d="M183.368 27.8115L176.845 34.4626L167.671 32.8576L171.979 41.1138L167.613 49.3442L176.8 47.8034L183.285 54.493L184.652 45.2803L193.017 41.178L184.678 37.0306L183.368 27.8115Z" fill="#0D21A1"/>
<path d="M149.368 18.0146L154.793 28.6141L167.306 27.8758L166.882 30.7904L158.934 39.2071L161.085 48.0089L160.026 50.1082L149.76 44.9016L141.164 49.9349L140.014 48.3235L141.478 38.9695L133.017 30.5529L133.209 28.3765L144.252 28.7681L149.368 18.0146Z" fill="#0D21A1"/>
<g opacity="0.3">
<path d="M149.368 18.0146L154.793 28.6141L167.306 27.8758L166.882 30.7904L158.934 39.2071L161.085 48.0089L160.026 50.1082L149.76 44.9016L141.164 49.9349L140.014 48.3235L141.478 38.9695L133.017 30.5529L133.209 28.3765L144.252 28.7681L149.368 18.0146Z" fill="black"/>
</g>
<path d="M150.074 15.7419L155.499 26.3349L167.306 27.8757L158.902 36.3116L161.085 48.0089L150.472 42.6289L140.014 48.3234L141.857 36.562L133.209 28.3765L144.964 26.489L150.074 15.7419Z" fill="#0D21A1"/>
<path d="M171.689 110.829L180.754 111.83C183.815 107.497 188.385 104.466 193.567 103.332C198.749 102.197 204.168 103.042 208.759 105.7C213.349 108.358 216.78 112.637 218.376 117.695C219.973 122.754 219.619 128.227 217.386 133.039C215.152 137.85 211.199 141.652 206.305 143.697C201.411 145.743 195.928 145.884 190.935 144.092C185.942 142.301 181.8 138.707 179.322 134.016C176.844 129.326 176.21 123.878 177.544 118.744L171.689 110.829Z" fill="#FAFAFA"/>
<path d="M171.689 110.829C172.043 111.304 173.879 113.73 177.628 118.706H177.493C177.498 118.695 177.505 118.686 177.513 118.678C177.522 118.671 177.532 118.665 177.543 118.662C177.554 118.659 177.566 118.659 177.577 118.661C177.589 118.663 177.599 118.667 177.609 118.674C177.624 118.683 177.636 118.696 177.642 118.712C177.649 118.729 177.651 118.747 177.647 118.764C176.728 122.365 176.777 126.146 177.788 129.723C178.085 130.796 178.479 131.84 178.963 132.843C179.22 133.356 179.464 133.883 179.74 134.403L180.697 135.924C183.751 140.352 188.372 143.457 193.627 144.611C196.535 145.25 199.546 145.263 202.461 144.649C205.532 143.981 208.419 142.644 210.916 140.733C213.53 138.747 215.633 136.165 217.047 133.202C218.511 130.189 219.233 126.87 219.153 123.521C219.059 120.317 218.247 117.175 216.777 114.327C215.395 111.628 213.435 109.265 211.038 107.407C206.719 104.069 201.284 102.515 195.854 103.067C193.56 103.342 191.32 103.961 189.21 104.903C185.852 106.455 182.959 108.858 180.819 111.875C180.812 111.887 180.802 111.897 180.789 111.903C180.776 111.909 180.762 111.91 180.748 111.907L171.689 110.829L180.767 111.747L180.69 111.785C182.824 108.728 185.73 106.291 189.113 104.723C191.234 103.746 193.492 103.101 195.809 102.81C201.314 102.227 206.831 103.786 211.217 107.163C213.656 109.043 215.649 111.439 217.053 114.18C218.554 117.069 219.382 120.26 219.474 123.514C219.558 126.916 218.827 130.288 217.342 133.35C215.903 136.359 213.765 138.98 211.108 140.996C208.571 142.933 205.638 144.288 202.518 144.964C199.553 145.587 196.488 145.568 193.53 144.906C188.22 143.735 183.554 140.589 180.478 136.104L179.515 134.563C179.239 134.037 178.995 133.498 178.732 132.978C178.249 131.962 177.858 130.905 177.564 129.819C176.557 126.204 176.53 122.386 177.487 118.757L177.641 118.815C177.629 118.834 177.61 118.847 177.589 118.853C177.568 118.859 177.545 118.857 177.525 118.847L171.689 110.829Z" fill="#263238"/>
<path d="M190.288 116.485C190.296 116.583 190.296 116.682 190.288 116.78C190.288 116.992 190.288 117.261 190.288 117.602C190.288 118.346 190.288 119.38 190.327 120.69C190.327 123.354 190.372 127.11 190.404 131.604L190.256 131.456H205.362C205.401 131.418 205.048 131.771 205.196 131.617V129.562C205.196 128.888 205.196 128.214 205.196 127.546V123.637C205.196 121.107 205.196 118.712 205.196 116.51L205.337 116.658L194.423 116.581L191.335 116.549H190.513H190.218H190.481H191.277L194.327 116.51L205.324 116.44H205.472V116.581C205.472 118.783 205.472 121.178 205.472 123.707V131.61C205.626 131.463 205.273 131.822 205.305 131.784H190.198H190.051V131.61C190.051 127.078 190.102 123.296 190.121 120.613C190.121 119.329 190.121 118.289 190.16 117.557C190.16 117.229 190.16 116.966 190.16 116.761C190.19 116.663 190.233 116.57 190.288 116.485Z" fill="#263238"/>
<path d="M203.764 118.982C203.982 119.155 201.953 122.083 199.225 125.524C198.686 126.211 198.153 126.866 197.659 127.45L197.338 127.842L196.978 127.514C194.615 125.389 193.017 123.759 193.158 123.592C193.299 123.425 195.155 124.773 197.601 126.802L196.914 126.866C197.382 126.224 197.896 125.582 198.442 124.901C201.164 121.46 203.552 118.815 203.764 118.982Z" fill="#0D21A1"/>
</svg>
